<?xml version="1.0" encoding="utf-8" standalone="no"?>
<!DOCTYPE svg PUBLIC "-//W3C//DTD SVG 1.1//EN"
  "http://www.w3.org/Graphics/SVG/1.1/DTD/svg11.dtd">
<!-- Created with matplotlib (https://matplotlib.org/) -->
<svg height="277.314375pt" version="1.1" viewBox="0 0 390.554687 277.314375" width="390.554687pt" xmlns="http://www.w3.org/2000/svg" xmlns:xlink="http://www.w3.org/1999/xlink">
 <defs>
  <style type="text/css">
*{stroke-linecap:butt;stroke-linejoin:round;}
  </style>
 </defs>
 <g id="figure_1">
  <g id="patch_1">
   <path d="M 0 277.314375 
L 390.554687 277.314375 
L 390.554687 0 
L 0 0 
z
" style="fill:none;"/>
  </g>
  <g id="axes_1">
   <g id="patch_2">
    <path d="M 40.603125 239.758125 
L 375.403125 239.758125 
L 375.403125 22.318125 
L 40.603125 22.318125 
z
" style="fill:#ffffff;"/>
   </g>
   <g id="PathCollection_1">
    <defs>
     <path d="M 0 3 
C 0.795609 3 1.55874 2.683901 2.12132 2.12132 
C 2.683901 1.55874 3 0.795609 3 0 
C 3 -0.795609 2.683901 -1.55874 2.12132 -2.12132 
C 1.55874 -2.683901 0.795609 -3 0 -3 
C -0.795609 -3 -1.55874 -2.683901 -2.12132 -2.12132 
C -2.683901 -1.55874 -3 -0.795609 -3 0 
C -3 0.795609 -2.683901 1.55874 -2.12132 2.12132 
C -1.55874 2.683901 -0.795609 3 0 3 
z
" id="mfccc607494" style="stroke:#1f77b4;stroke-opacity:0.8;"/>
    </defs>
    <g clip-path="url(#pb4a2ad920c)">
     <use style="fill:#1f77b4;fill-opacity:0.8;stroke:#1f77b4;stroke-opacity:0.8;" x="263.803125" xlink:href="#mfccc607494" y="92.293657"/>
     <use style="fill:#1f77b4;fill-opacity:0.8;stroke:#1f77b4;stroke-opacity:0.8;" x="40.603125" xlink:href="#mfccc607494" y="163.311352"/>
     <use style="fill:#1f77b4;fill-opacity:0.8;stroke:#1f77b4;stroke-opacity:0.8;" x="40.603125" xlink:href="#mfccc607494" y="32.201761"/>
     <use style="fill:#1f77b4;fill-opacity:0.8;stroke:#1f77b4;stroke-opacity:0.8;" x="263.803125" xlink:href="#mfccc607494" y="152.385552"/>
     <use style="fill:#1f77b4;fill-opacity:0.8;stroke:#1f77b4;stroke-opacity:0.8;" x="40.603125" xlink:href="#mfccc607494" y="37.664661"/>
     <use style="fill:#1f77b4;fill-opacity:0.8;stroke:#1f77b4;stroke-opacity:0.8;" x="263.803125" xlink:href="#mfccc607494" y="168.774251"/>
     <use style="fill:#1f77b4;fill-opacity:0.8;stroke:#1f77b4;stroke-opacity:0.8;" x="40.603125" xlink:href="#mfccc607494" y="75.904958"/>
     <use style="fill:#1f77b4;fill-opacity:0.8;stroke:#1f77b4;stroke-opacity:0.8;" x="152.203125" xlink:href="#mfccc607494" y="152.385552"/>
     <use style="fill:#1f77b4;fill-opacity:0.8;stroke:#1f77b4;stroke-opacity:0.8;" x="375.403125" xlink:href="#mfccc607494" y="223.403247"/>
     <use style="fill:#1f77b4;fill-opacity:0.8;stroke:#1f77b4;stroke-opacity:0.8;" x="40.603125" xlink:href="#mfccc607494" y="70.442059"/>
     <use style="fill:#1f77b4;fill-opacity:0.8;stroke:#1f77b4;stroke-opacity:0.8;" x="152.203125" xlink:href="#mfccc607494" y="125.071054"/>
     <use style="fill:#1f77b4;fill-opacity:0.8;stroke:#1f77b4;stroke-opacity:0.8;" x="375.403125" xlink:href="#mfccc607494" y="130.533954"/>
     <use style="fill:#1f77b4;fill-opacity:0.8;stroke:#1f77b4;stroke-opacity:0.8;" x="263.803125" xlink:href="#mfccc607494" y="108.682356"/>
     <use style="fill:#1f77b4;fill-opacity:0.8;stroke:#1f77b4;stroke-opacity:0.8;" x="263.803125" xlink:href="#mfccc607494" y="207.014548"/>
     <use style="fill:#1f77b4;fill-opacity:0.8;stroke:#1f77b4;stroke-opacity:0.8;" x="263.803125" xlink:href="#mfccc607494" y="185.16295"/>
    </g>
   </g>
   <g id="PolyCollection_1">
    <path clip-path="url(#pb4a2ad920c)" d="M 40.603125 50.257754 
L 40.603125 125.618654 
L 43.984943 125.644499 
L 47.366761 125.670344 
L 50.74858 125.880818 
L 54.130398 126.516216 
L 57.512216 126.812504 
L 60.894034 127.392803 
L 64.275852 127.62656 
L 67.65767 127.854954 
L 71.039489 128.230139 
L 74.421307 128.400945 
L 77.803125 128.806453 
L 81.184943 129.216325 
L 84.566761 129.631199 
L 87.94858 130.031909 
L 91.330398 130.592581 
L 94.712216 131.364819 
L 98.094034 132.270155 
L 101.475852 132.529371 
L 104.85767 133.199293 
L 108.239489 133.91006 
L 111.621307 134.495652 
L 115.003125 135.000145 
L 118.384943 135.28315 
L 121.766761 135.563495 
L 125.14858 135.84384 
L 128.530398 136.411443 
L 131.912216 136.647846 
L 135.294034 137.282208 
L 138.675852 138.226017 
L 142.05767 139.073263 
L 145.439489 140.11829 
L 148.821307 140.918216 
L 152.203125 141.839107 
L 155.584943 142.63177 
L 158.966761 143.573427 
L 162.34858 144.499296 
L 165.730398 145.543867 
L 169.112216 146.443264 
L 172.494034 147.206233 
L 175.875852 147.893725 
L 179.25767 148.870539 
L 182.639489 149.802554 
L 186.021307 150.886466 
L 189.403125 151.970377 
L 192.784943 152.955784 
L 196.166761 153.88516 
L 199.54858 155.012295 
L 202.930398 156.06063 
L 206.312216 156.812542 
L 209.694034 157.759249 
L 213.075852 158.880041 
L 216.45767 159.997582 
L 219.839489 161.166435 
L 223.221307 162.628053 
L 226.603125 163.68423 
L 229.984943 164.874495 
L 233.366761 166.259597 
L 236.74858 167.641628 
L 240.130398 168.614252 
L 243.512216 169.886671 
L 246.894034 171.161227 
L 250.275852 172.821898 
L 253.65767 174.554404 
L 257.039489 175.942039 
L 260.421307 177.345297 
L 263.803125 178.824788 
L 267.184943 180.095321 
L 270.566761 181.470134 
L 273.94858 183.128868 
L 277.330398 184.544434 
L 280.712216 186.123847 
L 284.094034 187.75523 
L 287.475852 189.510419 
L 290.85767 191.265316 
L 294.239489 193.020214 
L 297.621307 194.767767 
L 301.003125 196.362254 
L 304.384943 197.53364 
L 307.766761 199.147821 
L 311.14858 200.59887 
L 314.530398 202.237919 
L 317.912216 203.761315 
L 321.294034 205.155211 
L 324.675852 206.545168 
L 328.05767 208.155545 
L 331.439489 209.676753 
L 334.821307 211.012151 
L 338.203125 212.346213 
L 341.584943 214.109718 
L 344.966761 215.596434 
L 348.34858 217.15295 
L 351.730398 218.879153 
L 355.112216 220.625987 
L 358.494034 221.879211 
L 361.875852 223.282793 
L 365.25767 224.826339 
L 368.639489 226.393526 
L 372.021307 228.237691 
L 375.403125 229.874489 
L 375.403125 143.097282 
L 375.403125 143.097282 
L 372.021307 142.715469 
L 368.639489 142.517898 
L 365.25767 142.339829 
L 361.875852 141.797706 
L 358.494034 141.587187 
L 355.112216 141.068097 
L 351.730398 140.725421 
L 348.34858 140.391691 
L 344.966761 140.059863 
L 341.584943 139.371965 
L 338.203125 138.64194 
L 334.821307 137.911915 
L 331.439489 137.183368 
L 328.05767 136.459609 
L 324.675852 136.076571 
L 321.294034 135.61473 
L 317.912216 134.877972 
L 314.530398 134.141213 
L 311.14858 133.652012 
L 307.766761 132.993414 
L 304.384943 132.471263 
L 301.003125 131.625217 
L 297.621307 130.77917 
L 294.239489 129.978738 
L 290.85767 129.46061 
L 287.475852 129.159045 
L 284.094034 128.764181 
L 280.712216 128.328405 
L 277.330398 127.593594 
L 273.94858 127.040369 
L 270.566761 126.993295 
L 267.184943 126.028466 
L 263.803125 125.071054 
L 260.421307 124.697198 
L 257.039489 124.14334 
L 253.65767 123.874053 
L 250.275852 123.426099 
L 246.894034 122.51893 
L 243.512216 121.495933 
L 240.130398 120.912951 
L 236.74858 119.845165 
L 233.366761 118.630502 
L 229.984943 117.55274 
L 226.603125 116.880654 
L 223.221307 116.151812 
L 219.839489 115.51242 
L 216.45767 114.36977 
L 213.075852 113.835198 
L 209.694034 113.165555 
L 206.312216 111.791069 
L 202.930398 111.00127 
L 199.54858 109.859301 
L 196.166761 108.907444 
L 192.784943 107.835863 
L 189.403125 106.663973 
L 186.021307 105.91997 
L 182.639489 105.496718 
L 179.25767 104.431207 
L 175.875852 103.341871 
L 172.494034 102.344464 
L 169.112216 101.163583 
L 165.730398 100.163877 
L 162.34858 99.57522 
L 158.966761 98.468733 
L 155.584943 97.366884 
L 152.203125 96.276732 
L 148.821307 95.162147 
L 145.439489 94.00915 
L 142.05767 92.766118 
L 138.675852 91.529243 
L 135.294034 90.605731 
L 131.912216 89.201238 
L 128.530398 88.02553 
L 125.14858 86.730454 
L 121.766761 85.420897 
L 118.384943 84.111134 
L 115.003125 82.862285 
L 111.621307 81.89212 
L 108.239489 80.451091 
L 104.85767 78.89516 
L 101.475852 77.514756 
L 98.094034 75.98311 
L 94.712216 74.45494 
L 91.330398 72.925195 
L 87.94858 71.393583 
L 84.566761 69.90598 
L 81.184943 68.596582 
L 77.803125 67.189831 
L 74.421307 65.779268 
L 71.039489 64.206517 
L 67.65767 62.695636 
L 64.275852 61.164944 
L 60.894034 59.538074 
L 57.512216 58.253284 
L 54.130398 56.362989 
L 50.74858 54.833394 
L 47.366761 53.305311 
L 43.984943 51.778474 
L 40.603125 50.257754 
z
" style="fill:#1f77b4;fill-opacity:0.15;"/>
   </g>
   <g id="matplotlib.axis_1">
    <g id="xtick_1">
     <g id="line2d_1">
      <defs>
       <path d="M 0 0 
L 0 3.5 
" id="md78e07b375" style="stroke:#000000;stroke-width:0.8;"/>
      </defs>
      <g>
       <use style="stroke:#000000;stroke-width:0.8;" x="40.603125" xlink:href="#md78e07b375" y="239.758125"/>
      </g>
     </g>
     <g id="text_1">
      <!-- 1.0 -->
      <defs>
       <path d="M 12.40625 8.296875 
L 28.515625 8.296875 
L 28.515625 63.921875 
L 10.984375 60.40625 
L 10.984375 69.390625 
L 28.421875 72.90625 
L 38.28125 72.90625 
L 38.28125 8.296875 
L 54.390625 8.296875 
L 54.390625 0 
L 12.40625 0 
z
" id="DejaVuSans-49"/>
       <path d="M 10.6875 12.40625 
L 21 12.40625 
L 21 0 
L 10.6875 0 
z
" id="DejaVuSans-46"/>
       <path d="M 31.78125 66.40625 
Q 24.171875 66.40625 20.328125 58.90625 
Q 16.5 51.421875 16.5 36.375 
Q 16.5 21.390625 20.328125 13.890625 
Q 24.171875 6.390625 31.78125 6.390625 
Q 39.453125 6.390625 43.28125 13.890625 
Q 47.125 21.390625 47.125 36.375 
Q 47.125 51.421875 43.28125 58.90625 
Q 39.453125 66.40625 31.78125 66.40625 
z
M 31.78125 74.21875 
Q 44.046875 74.21875 50.515625 64.515625 
Q 56.984375 54.828125 56.984375 36.375 
Q 56.984375 17.96875 50.515625 8.265625 
Q 44.046875 -1.421875 31.78125 -1.421875 
Q 19.53125 -1.421875 13.0625 8.265625 
Q 6.59375 17.96875 6.59375 36.375 
Q 6.59375 54.828125 13.0625 64.515625 
Q 19.53125 74.21875 31.78125 74.21875 
z
" id="DejaVuSans-48"/>
      </defs>
      <g transform="translate(32.651563 254.356562)scale(0.1 -0.1)">
       <use xlink:href="#DejaVuSans-49"/>
       <use x="63.623047" xlink:href="#DejaVuSans-46"/>
       <use x="95.410156" xlink:href="#DejaVuSans-48"/>
      </g>
     </g>
    </g>
    <g id="xtick_2">
     <g id="line2d_2">
      <g>
       <use style="stroke:#000000;stroke-width:0.8;" x="96.403125" xlink:href="#md78e07b375" y="239.758125"/>
      </g>
     </g>
     <g id="text_2">
      <!-- 1.5 -->
      <defs>
       <path d="M 10.796875 72.90625 
L 49.515625 72.90625 
L 49.515625 64.59375 
L 19.828125 64.59375 
L 19.828125 46.734375 
Q 21.96875 47.46875 24.109375 47.828125 
Q 26.265625 48.1875 28.421875 48.1875 
Q 40.625 48.1875 47.75 41.5 
Q 54.890625 34.8125 54.890625 23.390625 
Q 54.890625 11.625 47.5625 5.09375 
Q 40.234375 -1.421875 26.90625 -1.421875 
Q 22.3125 -1.421875 17.546875 -0.640625 
Q 12.796875 0.140625 7.71875 1.703125 
L 7.71875 11.625 
Q 12.109375 9.234375 16.796875 8.0625 
Q 21.484375 6.890625 26.703125 6.890625 
Q 35.15625 6.890625 40.078125 11.328125 
Q 45.015625 15.765625 45.015625 23.390625 
Q 45.015625 31 40.078125 35.4375 
Q 35.15625 39.890625 26.703125 39.890625 
Q 22.75 39.890625 18.8125 39.015625 
Q 14.890625 38.140625 10.796875 36.28125 
z
" id="DejaVuSans-53"/>
      </defs>
      <g transform="translate(88.451563 254.356562)scale(0.1 -0.1)">
       <use xlink:href="#DejaVuSans-49"/>
       <use x="63.623047" xlink:href="#DejaVuSans-46"/>
       <use x="95.410156" xlink:href="#DejaVuSans-53"/>
      </g>
     </g>
    </g>
    <g id="xtick_3">
     <g id="line2d_3">
      <g>
       <use style="stroke:#000000;stroke-width:0.8;" x="152.203125" xlink:href="#md78e07b375" y="239.758125"/>
      </g>
     </g>
     <g id="text_3">
      <!-- 2.0 -->
      <defs>
       <path d="M 19.1875 8.296875 
L 53.609375 8.296875 
L 53.609375 0 
L 7.328125 0 
L 7.328125 8.296875 
Q 12.9375 14.109375 22.625 23.890625 
Q 32.328125 33.6875 34.8125 36.53125 
Q 39.546875 41.84375 41.421875 45.53125 
Q 43.3125 49.21875 43.3125 52.78125 
Q 43.3125 58.59375 39.234375 62.25 
Q 35.15625 65.921875 28.609375 65.921875 
Q 23.96875 65.921875 18.8125 64.3125 
Q 13.671875 62.703125 7.8125 59.421875 
L 7.8125 69.390625 
Q 13.765625 71.78125 18.9375 73 
Q 24.125 74.21875 28.421875 74.21875 
Q 39.75 74.21875 46.484375 68.546875 
Q 53.21875 62.890625 53.21875 53.421875 
Q 53.21875 48.921875 51.53125 44.890625 
Q 49.859375 40.875 45.40625 35.40625 
Q 44.1875 33.984375 37.640625 27.21875 
Q 31.109375 20.453125 19.1875 8.296875 
z
" id="DejaVuSans-50"/>
      </defs>
      <g transform="translate(144.251563 254.356562)scale(0.1 -0.1)">
       <use xlink:href="#DejaVuSans-50"/>
       <use x="63.623047" xlink:href="#DejaVuSans-46"/>
       <use x="95.410156" xlink:href="#DejaVuSans-48"/>
      </g>
     </g>
    </g>
    <g id="xtick_4">
     <g id="line2d_4">
      <g>
       <use style="stroke:#000000;stroke-width:0.8;" x="208.003125" xlink:href="#md78e07b375" y="239.758125"/>
      </g>
     </g>
     <g id="text_4">
      <!-- 2.5 -->
      <g transform="translate(200.051562 254.356562)scale(0.1 -0.1)">
       <use xlink:href="#DejaVuSans-50"/>
       <use x="63.623047" xlink:href="#DejaVuSans-46"/>
       <use x="95.410156" xlink:href="#DejaVuSans-53"/>
      </g>
     </g>
    </g>
    <g id="xtick_5">
     <g id="line2d_5">
      <g>
       <use style="stroke:#000000;stroke-width:0.8;" x="263.803125" xlink:href="#md78e07b375" y="239.758125"/>
      </g>
     </g>
     <g id="text_5">
      <!-- 3.0 -->
      <defs>
       <path d="M 40.578125 39.3125 
Q 47.65625 37.796875 51.625 33 
Q 55.609375 28.21875 55.609375 21.1875 
Q 55.609375 10.40625 48.1875 4.484375 
Q 40.765625 -1.421875 27.09375 -1.421875 
Q 22.515625 -1.421875 17.65625 -0.515625 
Q 12.796875 0.390625 7.625 2.203125 
L 7.625 11.71875 
Q 11.71875 9.328125 16.59375 8.109375 
Q 21.484375 6.890625 26.8125 6.890625 
Q 36.078125 6.890625 40.9375 10.546875 
Q 45.796875 14.203125 45.796875 21.1875 
Q 45.796875 27.640625 41.28125 31.265625 
Q 36.765625 34.90625 28.71875 34.90625 
L 20.21875 34.90625 
L 20.21875 43.015625 
L 29.109375 43.015625 
Q 36.375 43.015625 40.234375 45.921875 
Q 44.09375 48.828125 44.09375 54.296875 
Q 44.09375 59.90625 40.109375 62.90625 
Q 36.140625 65.921875 28.71875 65.921875 
Q 24.65625 65.921875 20.015625 65.03125 
Q 15.375 64.15625 9.8125 62.3125 
L 9.8125 71.09375 
Q 15.4375 72.65625 20.34375 73.4375 
Q 25.25 74.21875 29.59375 74.21875 
Q 40.828125 74.21875 47.359375 69.109375 
Q 53.90625 64.015625 53.90625 55.328125 
Q 53.90625 49.265625 50.4375 45.09375 
Q 46.96875 40.921875 40.578125 39.3125 
z
" id="DejaVuSans-51"/>
      </defs>
      <g transform="translate(255.851562 254.356562)scale(0.1 -0.1)">
       <use xlink:href="#DejaVuSans-51"/>
       <use x="63.623047" xlink:href="#DejaVuSans-46"/>
       <use x="95.410156" xlink:href="#DejaVuSans-48"/>
      </g>
     </g>
    </g>
    <g id="xtick_6">
     <g id="line2d_6">
      <g>
       <use style="stroke:#000000;stroke-width:0.8;" x="319.603125" xlink:href="#md78e07b375" y="239.758125"/>
      </g>
     </g>
     <g id="text_6">
      <!-- 3.5 -->
      <g transform="translate(311.651562 254.356562)scale(0.1 -0.1)">
       <use xlink:href="#DejaVuSans-51"/>
       <use x="63.623047" xlink:href="#DejaVuSans-46"/>
       <use x="95.410156" xlink:href="#DejaVuSans-53"/>
      </g>
     </g>
    </g>
    <g id="xtick_7">
     <g id="line2d_7">
      <g>
       <use style="stroke:#000000;stroke-width:0.8;" x="375.403125" xlink:href="#md78e07b375" y="239.758125"/>
      </g>
     </g>
     <g id="text_7">
      <!-- 4.0 -->
      <defs>
       <path d="M 37.796875 64.3125 
L 12.890625 25.390625 
L 37.796875 25.390625 
z
M 35.203125 72.90625 
L 47.609375 72.90625 
L 47.609375 25.390625 
L 58.015625 25.390625 
L 58.015625 17.1875 
L 47.609375 17.1875 
L 47.609375 0 
L 37.796875 0 
L 37.796875 17.1875 
L 4.890625 17.1875 
L 4.890625 26.703125 
z
" id="DejaVuSans-52"/>
      </defs>
      <g transform="translate(367.451562 254.356562)scale(0.1 -0.1)">
       <use xlink:href="#DejaVuSans-52"/>
       <use x="63.623047" xlink:href="#DejaVuSans-46"/>
       <use x="95.410156" xlink:href="#DejaVuSans-48"/>
      </g>
     </g>
    </g>
    <g id="text_8">
     <!-- TurnoversAllowed -->
     <defs>
      <path d="M -0.296875 72.90625 
L 61.375 72.90625 
L 61.375 64.59375 
L 35.5 64.59375 
L 35.5 0 
L 25.59375 0 
L 25.59375 64.59375 
L -0.296875 64.59375 
z
" id="DejaVuSans-84"/>
      <path d="M 8.5 21.578125 
L 8.5 54.6875 
L 17.484375 54.6875 
L 17.484375 21.921875 
Q 17.484375 14.15625 20.5 10.265625 
Q 23.53125 6.390625 29.59375 6.390625 
Q 36.859375 6.390625 41.078125 11.03125 
Q 45.3125 15.671875 45.3125 23.6875 
L 45.3125 54.6875 
L 54.296875 54.6875 
L 54.296875 0 
L 45.3125 0 
L 45.3125 8.40625 
Q 42.046875 3.421875 37.71875 1 
Q 33.40625 -1.421875 27.6875 -1.421875 
Q 18.265625 -1.421875 13.375 4.4375 
Q 8.5 10.296875 8.5 21.578125 
z
M 31.109375 56 
z
" id="DejaVuSans-117"/>
      <path d="M 41.109375 46.296875 
Q 39.59375 47.171875 37.8125 47.578125 
Q 36.03125 48 33.890625 48 
Q 26.265625 48 22.1875 43.046875 
Q 18.109375 38.09375 18.109375 28.8125 
L 18.109375 0 
L 9.078125 0 
L 9.078125 54.6875 
L 18.109375 54.6875 
L 18.109375 46.1875 
Q 20.953125 51.171875 25.484375 53.578125 
Q 30.03125 56 36.53125 56 
Q 37.453125 56 38.578125 55.875 
Q 39.703125 55.765625 41.0625 55.515625 
z
" id="DejaVuSans-114"/>
      <path d="M 54.890625 33.015625 
L 54.890625 0 
L 45.90625 0 
L 45.90625 32.71875 
Q 45.90625 40.484375 42.875 44.328125 
Q 39.84375 48.1875 33.796875 48.1875 
Q 26.515625 48.1875 22.3125 43.546875 
Q 18.109375 38.921875 18.109375 30.90625 
L 18.109375 0 
L 9.078125 0 
L 9.078125 54.6875 
L 18.109375 54.6875 
L 18.109375 46.1875 
Q 21.34375 51.125 25.703125 53.5625 
Q 30.078125 56 35.796875 56 
Q 45.21875 56 50.046875 50.171875 
Q 54.890625 44.34375 54.890625 33.015625 
z
" id="DejaVuSans-110"/>
      <path d="M 30.609375 48.390625 
Q 23.390625 48.390625 19.1875 42.75 
Q 14.984375 37.109375 14.984375 27.296875 
Q 14.984375 17.484375 19.15625 11.84375 
Q 23.34375 6.203125 30.609375 6.203125 
Q 37.796875 6.203125 41.984375 11.859375 
Q 46.1875 17.53125 46.1875 27.296875 
Q 46.1875 37.015625 41.984375 42.703125 
Q 37.796875 48.390625 30.609375 48.390625 
z
M 30.609375 56 
Q 42.328125 56 49.015625 48.375 
Q 55.71875 40.765625 55.71875 27.296875 
Q 55.71875 13.875 49.015625 6.21875 
Q 42.328125 -1.421875 30.609375 -1.421875 
Q 18.84375 -1.421875 12.171875 6.21875 
Q 5.515625 13.875 5.515625 27.296875 
Q 5.515625 40.765625 12.171875 48.375 
Q 18.84375 56 30.609375 56 
z
" id="DejaVuSans-111"/>
      <path d="M 2.984375 54.6875 
L 12.5 54.6875 
L 29.59375 8.796875 
L 46.6875 54.6875 
L 56.203125 54.6875 
L 35.6875 0 
L 23.484375 0 
z
" id="DejaVuSans-118"/>
      <path d="M 56.203125 29.59375 
L 56.203125 25.203125 
L 14.890625 25.203125 
Q 15.484375 15.921875 20.484375 11.0625 
Q 25.484375 6.203125 34.421875 6.203125 
Q 39.59375 6.203125 44.453125 7.46875 
Q 49.3125 8.734375 54.109375 11.28125 
L 54.109375 2.78125 
Q 49.265625 0.734375 44.1875 -0.34375 
Q 39.109375 -1.421875 33.890625 -1.421875 
Q 20.796875 -1.421875 13.15625 6.1875 
Q 5.515625 13.8125 5.515625 26.8125 
Q 5.515625 40.234375 12.765625 48.109375 
Q 20.015625 56 32.328125 56 
Q 43.359375 56 49.78125 48.890625 
Q 56.203125 41.796875 56.203125 29.59375 
z
M 47.21875 32.234375 
Q 47.125 39.59375 43.09375 43.984375 
Q 39.0625 48.390625 32.421875 48.390625 
Q 24.90625 48.390625 20.390625 44.140625 
Q 15.875 39.890625 15.1875 32.171875 
z
" id="DejaVuSans-101"/>
      <path d="M 44.28125 53.078125 
L 44.28125 44.578125 
Q 40.484375 46.53125 36.375 47.5 
Q 32.28125 48.484375 27.875 48.484375 
Q 21.1875 48.484375 17.84375 46.4375 
Q 14.5 44.390625 14.5 40.28125 
Q 14.5 37.15625 16.890625 35.375 
Q 19.28125 33.59375 26.515625 31.984375 
L 29.59375 31.296875 
Q 39.15625 29.25 43.1875 25.515625 
Q 47.21875 21.78125 47.21875 15.09375 
Q 47.21875 7.46875 41.1875 3.015625 
Q 35.15625 -1.421875 24.609375 -1.421875 
Q 20.21875 -1.421875 15.453125 -0.5625 
Q 10.6875 0.296875 5.421875 2 
L 5.421875 11.28125 
Q 10.40625 8.6875 15.234375 7.390625 
Q 20.0625 6.109375 24.8125 6.109375 
Q 31.15625 6.109375 34.5625 8.28125 
Q 37.984375 10.453125 37.984375 14.40625 
Q 37.984375 18.0625 35.515625 20.015625 
Q 33.0625 21.96875 24.703125 23.78125 
L 21.578125 24.515625 
Q 13.234375 26.265625 9.515625 29.90625 
Q 5.8125 33.546875 5.8125 39.890625 
Q 5.8125 47.609375 11.28125 51.796875 
Q 16.75 56 26.8125 56 
Q 31.78125 56 36.171875 55.265625 
Q 40.578125 54.546875 44.28125 53.078125 
z
" id="DejaVuSans-115"/>
      <path d="M 34.1875 63.1875 
L 20.796875 26.90625 
L 47.609375 26.90625 
z
M 28.609375 72.90625 
L 39.796875 72.90625 
L 67.578125 0 
L 57.328125 0 
L 50.6875 18.703125 
L 17.828125 18.703125 
L 11.1875 0 
L 0.78125 0 
z
" id="DejaVuSans-65"/>
      <path d="M 9.421875 75.984375 
L 18.40625 75.984375 
L 18.40625 0 
L 9.421875 0 
z
" id="DejaVuSans-108"/>
      <path d="M 4.203125 54.6875 
L 13.1875 54.6875 
L 24.421875 12.015625 
L 35.59375 54.6875 
L 46.1875 54.6875 
L 57.421875 12.015625 
L 68.609375 54.6875 
L 77.59375 54.6875 
L 63.28125 0 
L 52.6875 0 
L 40.921875 44.828125 
L 29.109375 0 
L 18.5 0 
z
" id="DejaVuSans-119"/>
      <path d="M 45.40625 46.390625 
L 45.40625 75.984375 
L 54.390625 75.984375 
L 54.390625 0 
L 45.40625 0 
L 45.40625 8.203125 
Q 42.578125 3.328125 38.25 0.953125 
Q 33.9375 -1.421875 27.875 -1.421875 
Q 17.96875 -1.421875 11.734375 6.484375 
Q 5.515625 14.40625 5.515625 27.296875 
Q 5.515625 40.1875 11.734375 48.09375 
Q 17.96875 56 27.875 56 
Q 33.9375 56 38.25 53.625 
Q 42.578125 51.265625 45.40625 46.390625 
z
M 14.796875 27.296875 
Q 14.796875 17.390625 18.875 11.75 
Q 22.953125 6.109375 30.078125 6.109375 
Q 37.203125 6.109375 41.296875 11.75 
Q 45.40625 17.390625 45.40625 27.296875 
Q 45.40625 37.203125 41.296875 42.84375 
Q 37.203125 48.484375 30.078125 48.484375 
Q 22.953125 48.484375 18.875 42.84375 
Q 14.796875 37.203125 14.796875 27.296875 
z
" id="DejaVuSans-100"/>
     </defs>
     <g transform="translate(164.046875 268.034687)scale(0.1 -0.1)">
      <use xlink:href="#DejaVuSans-84"/>
      <use x="45.958984" xlink:href="#DejaVuSans-117"/>
      <use x="109.337891" xlink:href="#DejaVuSans-114"/>
      <use x="148.701172" xlink:href="#DejaVuSans-110"/>
      <use x="212.080078" xlink:href="#DejaVuSans-111"/>
      <use x="273.261719" xlink:href="#DejaVuSans-118"/>
      <use x="332.441406" xlink:href="#DejaVuSans-101"/>
      <use x="393.964844" xlink:href="#DejaVuSans-114"/>
      <use x="435.078125" xlink:href="#DejaVuSans-115"/>
      <use x="487.177734" xlink:href="#DejaVuSans-65"/>
      <use x="555.585938" xlink:href="#DejaVuSans-108"/>
      <use x="583.369141" xlink:href="#DejaVuSans-108"/>
      <use x="611.152344" xlink:href="#DejaVuSans-111"/>
      <use x="672.333984" xlink:href="#DejaVuSans-119"/>
      <use x="754.121094" xlink:href="#DejaVuSans-101"/>
      <use x="815.644531" xlink:href="#DejaVuSans-100"/>
     </g>
    </g>
   </g>
   <g id="matplotlib.axis_2">
    <g id="ytick_1">
     <g id="line2d_8">
      <defs>
       <path d="M 0 0 
L -3.5 0 
" id="mb5c3fefb1c" style="stroke:#000000;stroke-width:0.8;"/>
      </defs>
      <g>
       <use style="stroke:#000000;stroke-width:0.8;" x="40.603125" xlink:href="#mb5c3fefb1c" y="212.477448"/>
      </g>
     </g>
     <g id="text_9">
      <!-- 5 -->
      <g transform="translate(27.240625 216.276667)scale(0.1 -0.1)">
       <use xlink:href="#DejaVuSans-53"/>
      </g>
     </g>
    </g>
    <g id="ytick_2">
     <g id="line2d_9">
      <g>
       <use style="stroke:#000000;stroke-width:0.8;" x="40.603125" xlink:href="#mb5c3fefb1c" y="185.16295"/>
      </g>
     </g>
     <g id="text_10">
      <!-- 10 -->
      <g transform="translate(20.878125 188.962169)scale(0.1 -0.1)">
       <use xlink:href="#DejaVuSans-49"/>
       <use x="63.623047" xlink:href="#DejaVuSans-48"/>
      </g>
     </g>
    </g>
    <g id="ytick_3">
     <g id="line2d_10">
      <g>
       <use style="stroke:#000000;stroke-width:0.8;" x="40.603125" xlink:href="#mb5c3fefb1c" y="157.848452"/>
      </g>
     </g>
     <g id="text_11">
      <!-- 15 -->
      <g transform="translate(20.878125 161.647671)scale(0.1 -0.1)">
       <use xlink:href="#DejaVuSans-49"/>
       <use x="63.623047" xlink:href="#DejaVuSans-53"/>
      </g>
     </g>
    </g>
    <g id="ytick_4">
     <g id="line2d_11">
      <g>
       <use style="stroke:#000000;stroke-width:0.8;" x="40.603125" xlink:href="#mb5c3fefb1c" y="130.533954"/>
      </g>
     </g>
     <g id="text_12">
      <!-- 20 -->
      <g transform="translate(20.878125 134.333173)scale(0.1 -0.1)">
       <use xlink:href="#DejaVuSans-50"/>
       <use x="63.623047" xlink:href="#DejaVuSans-48"/>
      </g>
     </g>
    </g>
    <g id="ytick_5">
     <g id="line2d_12">
      <g>
       <use style="stroke:#000000;stroke-width:0.8;" x="40.603125" xlink:href="#mb5c3fefb1c" y="103.219456"/>
      </g>
     </g>
     <g id="text_13">
      <!-- 25 -->
      <g transform="translate(20.878125 107.018675)scale(0.1 -0.1)">
       <use xlink:href="#DejaVuSans-50"/>
       <use x="63.623047" xlink:href="#DejaVuSans-53"/>
      </g>
     </g>
    </g>
    <g id="ytick_6">
     <g id="line2d_13">
      <g>
       <use style="stroke:#000000;stroke-width:0.8;" x="40.603125" xlink:href="#mb5c3fefb1c" y="75.904958"/>
      </g>
     </g>
     <g id="text_14">
      <!-- 30 -->
      <g transform="translate(20.878125 79.704177)scale(0.1 -0.1)">
       <use xlink:href="#DejaVuSans-51"/>
       <use x="63.623047" xlink:href="#DejaVuSans-48"/>
      </g>
     </g>
    </g>
    <g id="ytick_7">
     <g id="line2d_14">
      <g>
       <use style="stroke:#000000;stroke-width:0.8;" x="40.603125" xlink:href="#mb5c3fefb1c" y="48.59046"/>
      </g>
     </g>
     <g id="text_15">
      <!-- 35 -->
      <g transform="translate(20.878125 52.389679)scale(0.1 -0.1)">
       <use xlink:href="#DejaVuSans-51"/>
       <use x="63.623047" xlink:href="#DejaVuSans-53"/>
      </g>
     </g>
    </g>
    <g id="text_16">
     <!-- ScoredPoints -->
     <defs>
      <path d="M 53.515625 70.515625 
L 53.515625 60.890625 
Q 47.90625 63.578125 42.921875 64.890625 
Q 37.9375 66.21875 33.296875 66.21875 
Q 25.25 66.21875 20.875 63.09375 
Q 16.5 59.96875 16.5 54.203125 
Q 16.5 49.359375 19.40625 46.890625 
Q 22.3125 44.4375 30.421875 42.921875 
L 36.375 41.703125 
Q 47.40625 39.59375 52.65625 34.296875 
Q 57.90625 29 57.90625 20.125 
Q 57.90625 9.515625 50.796875 4.046875 
Q 43.703125 -1.421875 29.984375 -1.421875 
Q 24.8125 -1.421875 18.96875 -0.25 
Q 13.140625 0.921875 6.890625 3.21875 
L 6.890625 13.375 
Q 12.890625 10.015625 18.65625 8.296875 
Q 24.421875 6.59375 29.984375 6.59375 
Q 38.421875 6.59375 43.015625 9.90625 
Q 47.609375 13.234375 47.609375 19.390625 
Q 47.609375 24.75 44.3125 27.78125 
Q 41.015625 30.8125 33.5 32.328125 
L 27.484375 33.5 
Q 16.453125 35.6875 11.515625 40.375 
Q 6.59375 45.0625 6.59375 53.421875 
Q 6.59375 63.09375 13.40625 68.65625 
Q 20.21875 74.21875 32.171875 74.21875 
Q 37.3125 74.21875 42.625 73.28125 
Q 47.953125 72.359375 53.515625 70.515625 
z
" id="DejaVuSans-83"/>
      <path d="M 48.78125 52.59375 
L 48.78125 44.1875 
Q 44.96875 46.296875 41.140625 47.34375 
Q 37.3125 48.390625 33.40625 48.390625 
Q 24.65625 48.390625 19.8125 42.84375 
Q 14.984375 37.3125 14.984375 27.296875 
Q 14.984375 17.28125 19.8125 11.734375 
Q 24.65625 6.203125 33.40625 6.203125 
Q 37.3125 6.203125 41.140625 7.25 
Q 44.96875 8.296875 48.78125 10.40625 
L 48.78125 2.09375 
Q 45.015625 0.34375 40.984375 -0.53125 
Q 36.96875 -1.421875 32.421875 -1.421875 
Q 20.0625 -1.421875 12.78125 6.34375 
Q 5.515625 14.109375 5.515625 27.296875 
Q 5.515625 40.671875 12.859375 48.328125 
Q 20.21875 56 33.015625 56 
Q 37.15625 56 41.109375 55.140625 
Q 45.0625 54.296875 48.78125 52.59375 
z
" id="DejaVuSans-99"/>
      <path d="M 19.671875 64.796875 
L 19.671875 37.40625 
L 32.078125 37.40625 
Q 38.96875 37.40625 42.71875 40.96875 
Q 46.484375 44.53125 46.484375 51.125 
Q 46.484375 57.671875 42.71875 61.234375 
Q 38.96875 64.796875 32.078125 64.796875 
z
M 9.8125 72.90625 
L 32.078125 72.90625 
Q 44.34375 72.90625 50.609375 67.359375 
Q 56.890625 61.8125 56.890625 51.125 
Q 56.890625 40.328125 50.609375 34.8125 
Q 44.34375 29.296875 32.078125 29.296875 
L 19.671875 29.296875 
L 19.671875 0 
L 9.8125 0 
z
" id="DejaVuSans-80"/>
      <path d="M 9.421875 54.6875 
L 18.40625 54.6875 
L 18.40625 0 
L 9.421875 0 
z
M 9.421875 75.984375 
L 18.40625 75.984375 
L 18.40625 64.59375 
L 9.421875 64.59375 
z
" id="DejaVuSans-105"/>
      <path d="M 18.3125 70.21875 
L 18.3125 54.6875 
L 36.8125 54.6875 
L 36.8125 47.703125 
L 18.3125 47.703125 
L 18.3125 18.015625 
Q 18.3125 11.328125 20.140625 9.421875 
Q 21.96875 7.515625 27.59375 7.515625 
L 36.8125 7.515625 
L 36.8125 0 
L 27.59375 0 
Q 17.1875 0 13.234375 3.875 
Q 9.28125 7.765625 9.28125 18.015625 
L 9.28125 47.703125 
L 2.6875 47.703125 
L 2.6875 54.6875 
L 9.28125 54.6875 
L 9.28125 70.21875 
z
" id="DejaVuSans-116"/>
     </defs>
     <g transform="translate(14.798438 163.230312)rotate(-90)scale(0.1 -0.1)">
      <use xlink:href="#DejaVuSans-83"/>
      <use x="63.476562" xlink:href="#DejaVuSans-99"/>
      <use x="118.457031" xlink:href="#DejaVuSans-111"/>
      <use x="179.638672" xlink:href="#DejaVuSans-114"/>
      <use x="218.501953" xlink:href="#DejaVuSans-101"/>
      <use x="280.025391" xlink:href="#DejaVuSans-100"/>
      <use x="343.501953" xlink:href="#DejaVuSans-80"/>
      <use x="400.179688" xlink:href="#DejaVuSans-111"/>
      <use x="461.361328" xlink:href="#DejaVuSans-105"/>
      <use x="489.144531" xlink:href="#DejaVuSans-110"/>
      <use x="552.523438" xlink:href="#DejaVuSans-116"/>
      <use x="591.732422" xlink:href="#DejaVuSans-115"/>
     </g>
    </g>
   </g>
   <g id="line2d_15">
    <path clip-path="url(#pb4a2ad920c)" d="M 40.603125 82.124259 
L 43.984943 83.174817 
L 47.366761 84.225374 
L 50.74858 85.275932 
L 54.130398 86.32649 
L 57.512216 87.377047 
L 60.894034 88.427605 
L 64.275852 89.478162 
L 67.65767 90.52872 
L 71.039489 91.579278 
L 74.421307 92.629835 
L 77.803125 93.680393 
L 81.184943 94.730951 
L 84.566761 95.781508 
L 87.94858 96.832066 
L 91.330398 97.882623 
L 94.712216 98.933181 
L 98.094034 99.983739 
L 101.475852 101.034296 
L 104.85767 102.084854 
L 108.239489 103.135411 
L 111.621307 104.185969 
L 115.003125 105.236527 
L 118.384943 106.287084 
L 121.766761 107.337642 
L 125.14858 108.3882 
L 128.530398 109.438757 
L 131.912216 110.489315 
L 135.294034 111.539872 
L 138.675852 112.59043 
L 142.05767 113.640988 
L 145.439489 114.691545 
L 148.821307 115.742103 
L 152.203125 116.79266 
L 155.584943 117.843218 
L 158.966761 118.893776 
L 162.34858 119.944333 
L 165.730398 120.994891 
L 169.112216 122.045449 
L 172.494034 123.096006 
L 175.875852 124.146564 
L 179.25767 125.197121 
L 182.639489 126.247679 
L 186.021307 127.298237 
L 189.403125 128.348794 
L 192.784943 129.399352 
L 196.166761 130.449909 
L 199.54858 131.500467 
L 202.930398 132.551025 
L 206.312216 133.601582 
L 209.694034 134.65214 
L 213.075852 135.702698 
L 216.45767 136.753255 
L 219.839489 137.803813 
L 223.221307 138.85437 
L 226.603125 139.904928 
L 229.984943 140.955486 
L 233.366761 142.006043 
L 236.74858 143.056601 
L 240.130398 144.107158 
L 243.512216 145.157716 
L 246.894034 146.208274 
L 250.275852 147.258831 
L 253.65767 148.309389 
L 257.039489 149.359947 
L 260.421307 150.410504 
L 263.803125 151.461062 
L 267.184943 152.511619 
L 270.566761 153.562177 
L 273.94858 154.612735 
L 277.330398 155.663292 
L 280.712216 156.71385 
L 284.094034 157.764407 
L 287.475852 158.814965 
L 290.85767 159.865523 
L 294.239489 160.91608 
L 297.621307 161.966638 
L 301.003125 163.017195 
L 304.384943 164.067753 
L 307.766761 165.118311 
L 311.14858 166.168868 
L 314.530398 167.219426 
L 317.912216 168.269984 
L 321.294034 169.320541 
L 324.675852 170.371099 
L 328.05767 171.421656 
L 331.439489 172.472214 
L 334.821307 173.522772 
L 338.203125 174.573329 
L 341.584943 175.623887 
L 344.966761 176.674444 
L 348.34858 177.725002 
L 351.730398 178.77556 
L 355.112216 179.826117 
L 358.494034 180.876675 
L 361.875852 181.927233 
L 365.25767 182.97779 
L 368.639489 184.028348 
L 372.021307 185.078905 
L 375.403125 186.129463 
" style="fill:none;stroke:#1f77b4;stroke-linecap:square;stroke-width:2.25;"/>
   </g>
   <g id="patch_3">
    <path d="M 40.603125 239.758125 
L 40.603125 22.318125 
" style="fill:none;stroke:#000000;stroke-linecap:square;stroke-linejoin:miter;stroke-width:0.8;"/>
   </g>
   <g id="patch_4">
    <path d="M 375.403125 239.758125 
L 375.403125 22.318125 
" style="fill:none;stroke:#000000;stroke-linecap:square;stroke-linejoin:miter;stroke-width:0.8;"/>
   </g>
   <g id="patch_5">
    <path d="M 40.603125 239.758125 
L 375.403125 239.758125 
" style="fill:none;stroke:#000000;stroke-linecap:square;stroke-linejoin:miter;stroke-width:0.8;"/>
   </g>
   <g id="patch_6">
    <path d="M 40.603125 22.318125 
L 375.403125 22.318125 
" style="fill:none;stroke:#000000;stroke-linecap:square;stroke-linejoin:miter;stroke-width:0.8;"/>
   </g>
   <g id="text_17">
    <!-- Panthers -->
    <defs>
     <path d="M 34.28125 27.484375 
Q 23.390625 27.484375 19.1875 25 
Q 14.984375 22.515625 14.984375 16.5 
Q 14.984375 11.71875 18.140625 8.90625 
Q 21.296875 6.109375 26.703125 6.109375 
Q 34.1875 6.109375 38.703125 11.40625 
Q 43.21875 16.703125 43.21875 25.484375 
L 43.21875 27.484375 
z
M 52.203125 31.203125 
L 52.203125 0 
L 43.21875 0 
L 43.21875 8.296875 
Q 40.140625 3.328125 35.546875 0.953125 
Q 30.953125 -1.421875 24.3125 -1.421875 
Q 15.921875 -1.421875 10.953125 3.296875 
Q 6 8.015625 6 15.921875 
Q 6 25.140625 12.171875 29.828125 
Q 18.359375 34.515625 30.609375 34.515625 
L 43.21875 34.515625 
L 43.21875 35.40625 
Q 43.21875 41.609375 39.140625 45 
Q 35.0625 48.390625 27.6875 48.390625 
Q 23 48.390625 18.546875 47.265625 
Q 14.109375 46.140625 10.015625 43.890625 
L 10.015625 52.203125 
Q 14.9375 54.109375 19.578125 55.046875 
Q 24.21875 56 28.609375 56 
Q 40.484375 56 46.34375 49.84375 
Q 52.203125 43.703125 52.203125 31.203125 
z
" id="DejaVuSans-97"/>
     <path d="M 54.890625 33.015625 
L 54.890625 0 
L 45.90625 0 
L 45.90625 32.71875 
Q 45.90625 40.484375 42.875 44.328125 
Q 39.84375 48.1875 33.796875 48.1875 
Q 26.515625 48.1875 22.3125 43.546875 
Q 18.109375 38.921875 18.109375 30.90625 
L 18.109375 0 
L 9.078125 0 
L 9.078125 75.984375 
L 18.109375 75.984375 
L 18.109375 46.1875 
Q 21.34375 51.125 25.703125 53.5625 
Q 30.078125 56 35.796875 56 
Q 45.21875 56 50.046875 50.171875 
Q 54.890625 44.34375 54.890625 33.015625 
z
" id="DejaVuSans-104"/>
    </defs>
    <g transform="translate(181.737187 16.318125)scale(0.12 -0.12)">
     <use xlink:href="#DejaVuSans-80"/>
     <use x="55.802734" xlink:href="#DejaVuSans-97"/>
     <use x="117.082031" xlink:href="#DejaVuSans-110"/>
     <use x="180.460938" xlink:href="#DejaVuSans-116"/>
     <use x="219.669922" xlink:href="#DejaVuSans-104"/>
     <use x="283.048828" xlink:href="#DejaVuSans-101"/>
     <use x="344.572266" xlink:href="#DejaVuSans-114"/>
     <use x="385.685547" xlink:href="#DejaVuSans-115"/>
    </g>
   </g>
  </g>
 </g>
 <defs>
  <clipPath id="pb4a2ad920c">
   <rect height="217.44" width="334.8" x="40.603125" y="22.318125"/>
  </clipPath>
 </defs>
</svg>
