<?xml version="1.0" encoding="utf-8" standalone="no"?>
<!DOCTYPE svg PUBLIC "-//W3C//DTD SVG 1.1//EN"
  "http://www.w3.org/Graphics/SVG/1.1/DTD/svg11.dtd">
<!-- Created with matplotlib (https://matplotlib.org/) -->
<svg height="277.314375pt" version="1.1" viewBox="0 0 382.603125 277.314375" width="382.603125pt" xmlns="http://www.w3.org/2000/svg" xmlns:xlink="http://www.w3.org/1999/xlink">
 <defs>
  <style type="text/css">
*{stroke-linecap:butt;stroke-linejoin:round;}
  </style>
 </defs>
 <g id="figure_1">
  <g id="patch_1">
   <path d="M 0 277.314375 
L 382.603125 277.314375 
L 382.603125 0 
L 0 0 
z
" style="fill:none;"/>
  </g>
  <g id="axes_1">
   <g id="patch_2">
    <path d="M 40.603125 239.758125 
L 375.403125 239.758125 
L 375.403125 22.318125 
L 40.603125 22.318125 
z
" style="fill:#ffffff;"/>
   </g>
   <g id="PathCollection_1">
    <defs>
     <path d="M 0 3 
C 0.795609 3 1.55874 2.683901 2.12132 2.12132 
C 2.683901 1.55874 3 0.795609 3 0 
C 3 -0.795609 2.683901 -1.55874 2.12132 -2.12132 
C 1.55874 -2.683901 0.795609 -3 0 -3 
C -0.795609 -3 -1.55874 -2.683901 -2.12132 -2.12132 
C -2.683901 -1.55874 -3 -0.795609 -3 0 
C -3 0.795609 -2.683901 1.55874 -2.12132 2.12132 
C -1.55874 2.683901 -0.795609 3 0 3 
z
" id="m85db2b3521" style="stroke:#1f77b4;stroke-opacity:0.8;"/>
    </defs>
    <g clip-path="url(#p5fe22b2b74)">
     <use style="fill:#1f77b4;fill-opacity:0.8;stroke:#1f77b4;stroke-opacity:0.8;" x="159.998713" xlink:href="#m85db2b3521" y="45.171029"/>
     <use style="fill:#1f77b4;fill-opacity:0.8;stroke:#1f77b4;stroke-opacity:0.8;" x="40.603125" xlink:href="#m85db2b3521" y="156.852191"/>
     <use style="fill:#1f77b4;fill-opacity:0.8;stroke:#1f77b4;stroke-opacity:0.8;" x="200.617831" xlink:href="#m85db2b3521" y="199.806484"/>
     <use style="fill:#1f77b4;fill-opacity:0.8;stroke:#1f77b4;stroke-opacity:0.8;" x="173.538419" xlink:href="#m85db2b3521" y="126.784186"/>
     <use style="fill:#1f77b4;fill-opacity:0.8;stroke:#1f77b4;stroke-opacity:0.8;" x="78.760478" xlink:href="#m85db2b3521" y="199.806484"/>
     <use style="fill:#1f77b4;fill-opacity:0.8;stroke:#1f77b4;stroke-opacity:0.8;" x="97.223713" xlink:href="#m85db2b3521" y="229.874489"/>
     <use style="fill:#1f77b4;fill-opacity:0.8;stroke:#1f77b4;stroke-opacity:0.8;" x="270.778125" xlink:href="#m85db2b3521" y="131.079615"/>
     <use style="fill:#1f77b4;fill-opacity:0.8;stroke:#1f77b4;stroke-opacity:0.8;" x="108.301654" xlink:href="#m85db2b3521" y="113.897898"/>
     <use style="fill:#1f77b4;fill-opacity:0.8;stroke:#1f77b4;stroke-opacity:0.8;" x="275.701654" xlink:href="#m85db2b3521" y="143.965903"/>
     <use style="fill:#1f77b4;fill-opacity:0.8;stroke:#1f77b4;stroke-opacity:0.8;" x="73.836949" xlink:href="#m85db2b3521" y="79.534464"/>
     <use style="fill:#1f77b4;fill-opacity:0.8;stroke:#1f77b4;stroke-opacity:0.8;" x="204.310478" xlink:href="#m85db2b3521" y="49.466459"/>
     <use style="fill:#1f77b4;fill-opacity:0.8;stroke:#1f77b4;stroke-opacity:0.8;" x="63.98989" xlink:href="#m85db2b3521" y="96.716181"/>
     <use style="fill:#1f77b4;fill-opacity:0.8;stroke:#1f77b4;stroke-opacity:0.8;" x="375.403125" xlink:href="#m85db2b3521" y="49.466459"/>
     <use style="fill:#1f77b4;fill-opacity:0.8;stroke:#1f77b4;stroke-opacity:0.8;" x="225.235478" xlink:href="#m85db2b3521" y="139.670474"/>
     <use style="fill:#1f77b4;fill-opacity:0.8;stroke:#1f77b4;stroke-opacity:0.8;" x="199.386949" xlink:href="#m85db2b3521" y="109.602469"/>
     <use style="fill:#1f77b4;fill-opacity:0.8;stroke:#1f77b4;stroke-opacity:0.8;" x="167.384007" xlink:href="#m85db2b3521" y="79.534464"/>
    </g>
   </g>
   <g id="PolyCollection_1">
    <path clip-path="url(#p5fe22b2b74)" d="M 40.603125 95.117381 
L 40.603125 195.375858 
L 43.984943 193.830106 
L 47.366761 192.335918 
L 50.74858 191.501319 
L 54.130398 189.75595 
L 57.512216 188.6752 
L 60.894034 187.593501 
L 64.275852 186.511802 
L 67.65767 185.328553 
L 71.039489 183.227969 
L 74.421307 181.720119 
L 77.803125 180.362938 
L 81.184943 179.059492 
L 84.566761 177.42526 
L 87.94858 176.175025 
L 91.330398 174.919897 
L 94.712216 174.072475 
L 98.094034 173.135053 
L 101.475852 171.990012 
L 104.85767 170.47036 
L 108.239489 169.571496 
L 111.621307 168.541498 
L 115.003125 167.607765 
L 118.384943 166.674032 
L 121.766761 166.004898 
L 125.14858 164.798582 
L 128.530398 163.279724 
L 131.912216 161.8342 
L 135.294034 160.266293 
L 138.675852 158.94508 
L 142.05767 158.147924 
L 145.439489 156.794521 
L 148.821307 155.434522 
L 152.203125 154.137416 
L 155.584943 153.555077 
L 158.966761 152.690831 
L 162.34858 151.988433 
L 165.730398 151.296249 
L 169.112216 150.591321 
L 172.494034 149.782774 
L 175.875852 148.70078 
L 179.25767 147.847856 
L 182.639489 147.494888 
L 186.021307 147.094224 
L 189.403125 146.401909 
L 192.784943 145.695711 
L 196.166761 144.997528 
L 199.54858 144.302369 
L 202.930398 144.137909 
L 206.312216 142.997152 
L 209.694034 142.479394 
L 213.075852 142.252975 
L 216.45767 142.309562 
L 219.839489 142.224024 
L 223.221307 142.204138 
L 226.603125 141.819128 
L 229.984943 141.451836 
L 233.366761 141.073439 
L 236.74858 140.696611 
L 240.130398 140.368542 
L 243.512216 140.143024 
L 246.894034 140.099303 
L 250.275852 140.097947 
L 253.65767 140.369179 
L 257.039489 140.20494 
L 260.421307 140.843497 
L 263.803125 141.790247 
L 267.184943 142.034307 
L 270.566761 142.025878 
L 273.94858 142.014908 
L 277.330398 141.998857 
L 280.712216 141.982806 
L 284.094034 142.095948 
L 287.475852 142.140154 
L 290.85767 142.648791 
L 294.239489 143.286215 
L 297.621307 143.68746 
L 301.003125 144.097547 
L 304.384943 144.477372 
L 307.766761 144.858424 
L 311.14858 145.270878 
L 314.530398 145.671438 
L 317.912216 146.538761 
L 321.294034 146.685522 
L 324.675852 146.841427 
L 328.05767 146.961843 
L 331.439489 147.106985 
L 334.821307 147.569461 
L 338.203125 148.351322 
L 341.584943 148.844028 
L 344.966761 149.011192 
L 348.34858 149.105981 
L 351.730398 149.245741 
L 355.112216 149.821106 
L 358.494034 150.14764 
L 361.875852 150.319038 
L 365.25767 150.811901 
L 368.639489 151.022358 
L 372.021307 151.228628 
L 375.403125 151.428392 
L 375.403125 32.201761 
L 375.403125 32.201761 
L 372.021307 33.592332 
L 368.639489 35.041884 
L 365.25767 36.497867 
L 361.875852 37.891172 
L 358.494034 39.178547 
L 355.112216 40.450896 
L 351.730398 41.593834 
L 348.34858 42.736772 
L 344.966761 43.87971 
L 341.584943 45.022648 
L 338.203125 46.165586 
L 334.821307 47.309906 
L 331.439489 48.472686 
L 328.05767 49.636218 
L 324.675852 51.39399 
L 321.294034 53.161972 
L 317.912216 54.230275 
L 314.530398 55.524443 
L 311.14858 56.462439 
L 307.766761 57.176056 
L 304.384943 57.878869 
L 301.003125 58.806621 
L 297.621307 59.897992 
L 294.239489 60.830294 
L 290.85767 62.099761 
L 287.475852 63.369228 
L 284.094034 64.517776 
L 280.712216 65.65763 
L 277.330398 66.803443 
L 273.94858 67.956776 
L 270.566761 69.117675 
L 267.184943 70.278575 
L 263.803125 71.759763 
L 260.421307 73.028104 
L 257.039489 73.744412 
L 253.65767 74.868535 
L 250.275852 75.833485 
L 246.894034 76.412543 
L 243.512216 77.185609 
L 240.130398 78.722069 
L 236.74858 80.272214 
L 233.366761 81.749138 
L 229.984943 82.964403 
L 226.603125 83.882715 
L 223.221307 84.852194 
L 219.839489 86.289025 
L 216.45767 87.196924 
L 213.075852 87.675876 
L 209.694034 88.457409 
L 206.312216 89.457955 
L 202.930398 90.390153 
L 199.54858 91.373216 
L 196.166761 92.465422 
L 192.784943 93.439865 
L 189.403125 93.776821 
L 186.021307 94.188409 
L 182.639489 94.919515 
L 179.25767 95.646285 
L 175.875852 96.186219 
L 172.494034 96.710398 
L 169.112216 96.859222 
L 165.730398 96.906496 
L 162.34858 97.157388 
L 158.966761 97.160401 
L 155.584943 97.536832 
L 152.203125 97.901101 
L 148.821307 98.186226 
L 145.439489 98.215846 
L 142.05767 98.045848 
L 138.675852 97.99894 
L 135.294034 98.473189 
L 131.912216 99.081576 
L 128.530398 99.253806 
L 125.14858 98.539091 
L 121.766761 97.843059 
L 118.384943 98.035739 
L 115.003125 98.304444 
L 111.621307 98.586735 
L 108.239489 98.878743 
L 104.85767 99.174514 
L 101.475852 99.263099 
L 98.094034 99.61727 
L 94.712216 99.2409 
L 91.330398 98.950172 
L 87.94858 98.850232 
L 84.566761 98.659893 
L 81.184943 98.807573 
L 77.803125 98.750799 
L 74.421307 98.483969 
L 71.039489 97.859386 
L 67.65767 97.311147 
L 64.275852 97.022995 
L 60.894034 96.738941 
L 57.512216 96.459933 
L 54.130398 96.180925 
L 50.74858 95.904393 
L 47.366761 95.630886 
L 43.984943 95.398564 
L 40.603125 95.117381 
z
" style="fill:#1f77b4;fill-opacity:0.15;"/>
   </g>
   <g id="matplotlib.axis_1">
    <g id="xtick_1">
     <g id="line2d_1">
      <defs>
       <path d="M 0 0 
L 0 3.5 
" id="m1b6f6943aa" style="stroke:#000000;stroke-width:0.8;"/>
      </defs>
      <g>
       <use style="stroke:#000000;stroke-width:0.8;" x="78.760478" xlink:href="#m1b6f6943aa" y="239.758125"/>
      </g>
     </g>
     <g id="text_1">
      <!-- 150 -->
      <defs>
       <path d="M 12.40625 8.296875 
L 28.515625 8.296875 
L 28.515625 63.921875 
L 10.984375 60.40625 
L 10.984375 69.390625 
L 28.421875 72.90625 
L 38.28125 72.90625 
L 38.28125 8.296875 
L 54.390625 8.296875 
L 54.390625 0 
L 12.40625 0 
z
" id="DejaVuSans-49"/>
       <path d="M 10.796875 72.90625 
L 49.515625 72.90625 
L 49.515625 64.59375 
L 19.828125 64.59375 
L 19.828125 46.734375 
Q 21.96875 47.46875 24.109375 47.828125 
Q 26.265625 48.1875 28.421875 48.1875 
Q 40.625 48.1875 47.75 41.5 
Q 54.890625 34.8125 54.890625 23.390625 
Q 54.890625 11.625 47.5625 5.09375 
Q 40.234375 -1.421875 26.90625 -1.421875 
Q 22.3125 -1.421875 17.546875 -0.640625 
Q 12.796875 0.140625 7.71875 1.703125 
L 7.71875 11.625 
Q 12.109375 9.234375 16.796875 8.0625 
Q 21.484375 6.890625 26.703125 6.890625 
Q 35.15625 6.890625 40.078125 11.328125 
Q 45.015625 15.765625 45.015625 23.390625 
Q 45.015625 31 40.078125 35.4375 
Q 35.15625 39.890625 26.703125 39.890625 
Q 22.75 39.890625 18.8125 39.015625 
Q 14.890625 38.140625 10.796875 36.28125 
z
" id="DejaVuSans-53"/>
       <path d="M 31.78125 66.40625 
Q 24.171875 66.40625 20.328125 58.90625 
Q 16.5 51.421875 16.5 36.375 
Q 16.5 21.390625 20.328125 13.890625 
Q 24.171875 6.390625 31.78125 6.390625 
Q 39.453125 6.390625 43.28125 13.890625 
Q 47.125 21.390625 47.125 36.375 
Q 47.125 51.421875 43.28125 58.90625 
Q 39.453125 66.40625 31.78125 66.40625 
z
M 31.78125 74.21875 
Q 44.046875 74.21875 50.515625 64.515625 
Q 56.984375 54.828125 56.984375 36.375 
Q 56.984375 17.96875 50.515625 8.265625 
Q 44.046875 -1.421875 31.78125 -1.421875 
Q 19.53125 -1.421875 13.0625 8.265625 
Q 6.59375 17.96875 6.59375 36.375 
Q 6.59375 54.828125 13.0625 64.515625 
Q 19.53125 74.21875 31.78125 74.21875 
z
" id="DejaVuSans-48"/>
      </defs>
      <g transform="translate(69.216728 254.356562)scale(0.1 -0.1)">
       <use xlink:href="#DejaVuSans-49"/>
       <use x="63.623047" xlink:href="#DejaVuSans-53"/>
       <use x="127.246094" xlink:href="#DejaVuSans-48"/>
      </g>
     </g>
    </g>
    <g id="xtick_2">
     <g id="line2d_2">
      <g>
       <use style="stroke:#000000;stroke-width:0.8;" x="140.304596" xlink:href="#m1b6f6943aa" y="239.758125"/>
      </g>
     </g>
     <g id="text_2">
      <!-- 200 -->
      <defs>
       <path d="M 19.1875 8.296875 
L 53.609375 8.296875 
L 53.609375 0 
L 7.328125 0 
L 7.328125 8.296875 
Q 12.9375 14.109375 22.625 23.890625 
Q 32.328125 33.6875 34.8125 36.53125 
Q 39.546875 41.84375 41.421875 45.53125 
Q 43.3125 49.21875 43.3125 52.78125 
Q 43.3125 58.59375 39.234375 62.25 
Q 35.15625 65.921875 28.609375 65.921875 
Q 23.96875 65.921875 18.8125 64.3125 
Q 13.671875 62.703125 7.8125 59.421875 
L 7.8125 69.390625 
Q 13.765625 71.78125 18.9375 73 
Q 24.125 74.21875 28.421875 74.21875 
Q 39.75 74.21875 46.484375 68.546875 
Q 53.21875 62.890625 53.21875 53.421875 
Q 53.21875 48.921875 51.53125 44.890625 
Q 49.859375 40.875 45.40625 35.40625 
Q 44.1875 33.984375 37.640625 27.21875 
Q 31.109375 20.453125 19.1875 8.296875 
z
" id="DejaVuSans-50"/>
      </defs>
      <g transform="translate(130.760846 254.356562)scale(0.1 -0.1)">
       <use xlink:href="#DejaVuSans-50"/>
       <use x="63.623047" xlink:href="#DejaVuSans-48"/>
       <use x="127.246094" xlink:href="#DejaVuSans-48"/>
      </g>
     </g>
    </g>
    <g id="xtick_3">
     <g id="line2d_3">
      <g>
       <use style="stroke:#000000;stroke-width:0.8;" x="201.848713" xlink:href="#m1b6f6943aa" y="239.758125"/>
      </g>
     </g>
     <g id="text_3">
      <!-- 250 -->
      <g transform="translate(192.304963 254.356562)scale(0.1 -0.1)">
       <use xlink:href="#DejaVuSans-50"/>
       <use x="63.623047" xlink:href="#DejaVuSans-53"/>
       <use x="127.246094" xlink:href="#DejaVuSans-48"/>
      </g>
     </g>
    </g>
    <g id="xtick_4">
     <g id="line2d_4">
      <g>
       <use style="stroke:#000000;stroke-width:0.8;" x="263.392831" xlink:href="#m1b6f6943aa" y="239.758125"/>
      </g>
     </g>
     <g id="text_4">
      <!-- 300 -->
      <defs>
       <path d="M 40.578125 39.3125 
Q 47.65625 37.796875 51.625 33 
Q 55.609375 28.21875 55.609375 21.1875 
Q 55.609375 10.40625 48.1875 4.484375 
Q 40.765625 -1.421875 27.09375 -1.421875 
Q 22.515625 -1.421875 17.65625 -0.515625 
Q 12.796875 0.390625 7.625 2.203125 
L 7.625 11.71875 
Q 11.71875 9.328125 16.59375 8.109375 
Q 21.484375 6.890625 26.8125 6.890625 
Q 36.078125 6.890625 40.9375 10.546875 
Q 45.796875 14.203125 45.796875 21.1875 
Q 45.796875 27.640625 41.28125 31.265625 
Q 36.765625 34.90625 28.71875 34.90625 
L 20.21875 34.90625 
L 20.21875 43.015625 
L 29.109375 43.015625 
Q 36.375 43.015625 40.234375 45.921875 
Q 44.09375 48.828125 44.09375 54.296875 
Q 44.09375 59.90625 40.109375 62.90625 
Q 36.140625 65.921875 28.71875 65.921875 
Q 24.65625 65.921875 20.015625 65.03125 
Q 15.375 64.15625 9.8125 62.3125 
L 9.8125 71.09375 
Q 15.4375 72.65625 20.34375 73.4375 
Q 25.25 74.21875 29.59375 74.21875 
Q 40.828125 74.21875 47.359375 69.109375 
Q 53.90625 64.015625 53.90625 55.328125 
Q 53.90625 49.265625 50.4375 45.09375 
Q 46.96875 40.921875 40.578125 39.3125 
z
" id="DejaVuSans-51"/>
      </defs>
      <g transform="translate(253.849081 254.356562)scale(0.1 -0.1)">
       <use xlink:href="#DejaVuSans-51"/>
       <use x="63.623047" xlink:href="#DejaVuSans-48"/>
       <use x="127.246094" xlink:href="#DejaVuSans-48"/>
      </g>
     </g>
    </g>
    <g id="xtick_5">
     <g id="line2d_5">
      <g>
       <use style="stroke:#000000;stroke-width:0.8;" x="324.936949" xlink:href="#m1b6f6943aa" y="239.758125"/>
      </g>
     </g>
     <g id="text_5">
      <!-- 350 -->
      <g transform="translate(315.393199 254.356562)scale(0.1 -0.1)">
       <use xlink:href="#DejaVuSans-51"/>
       <use x="63.623047" xlink:href="#DejaVuSans-53"/>
       <use x="127.246094" xlink:href="#DejaVuSans-48"/>
      </g>
     </g>
    </g>
    <g id="text_6">
     <!-- PassY -->
     <defs>
      <path d="M 19.671875 64.796875 
L 19.671875 37.40625 
L 32.078125 37.40625 
Q 38.96875 37.40625 42.71875 40.96875 
Q 46.484375 44.53125 46.484375 51.125 
Q 46.484375 57.671875 42.71875 61.234375 
Q 38.96875 64.796875 32.078125 64.796875 
z
M 9.8125 72.90625 
L 32.078125 72.90625 
Q 44.34375 72.90625 50.609375 67.359375 
Q 56.890625 61.8125 56.890625 51.125 
Q 56.890625 40.328125 50.609375 34.8125 
Q 44.34375 29.296875 32.078125 29.296875 
L 19.671875 29.296875 
L 19.671875 0 
L 9.8125 0 
z
" id="DejaVuSans-80"/>
      <path d="M 34.28125 27.484375 
Q 23.390625 27.484375 19.1875 25 
Q 14.984375 22.515625 14.984375 16.5 
Q 14.984375 11.71875 18.140625 8.90625 
Q 21.296875 6.109375 26.703125 6.109375 
Q 34.1875 6.109375 38.703125 11.40625 
Q 43.21875 16.703125 43.21875 25.484375 
L 43.21875 27.484375 
z
M 52.203125 31.203125 
L 52.203125 0 
L 43.21875 0 
L 43.21875 8.296875 
Q 40.140625 3.328125 35.546875 0.953125 
Q 30.953125 -1.421875 24.3125 -1.421875 
Q 15.921875 -1.421875 10.953125 3.296875 
Q 6 8.015625 6 15.921875 
Q 6 25.140625 12.171875 29.828125 
Q 18.359375 34.515625 30.609375 34.515625 
L 43.21875 34.515625 
L 43.21875 35.40625 
Q 43.21875 41.609375 39.140625 45 
Q 35.0625 48.390625 27.6875 48.390625 
Q 23 48.390625 18.546875 47.265625 
Q 14.109375 46.140625 10.015625 43.890625 
L 10.015625 52.203125 
Q 14.9375 54.109375 19.578125 55.046875 
Q 24.21875 56 28.609375 56 
Q 40.484375 56 46.34375 49.84375 
Q 52.203125 43.703125 52.203125 31.203125 
z
" id="DejaVuSans-97"/>
      <path d="M 44.28125 53.078125 
L 44.28125 44.578125 
Q 40.484375 46.53125 36.375 47.5 
Q 32.28125 48.484375 27.875 48.484375 
Q 21.1875 48.484375 17.84375 46.4375 
Q 14.5 44.390625 14.5 40.28125 
Q 14.5 37.15625 16.890625 35.375 
Q 19.28125 33.59375 26.515625 31.984375 
L 29.59375 31.296875 
Q 39.15625 29.25 43.1875 25.515625 
Q 47.21875 21.78125 47.21875 15.09375 
Q 47.21875 7.46875 41.1875 3.015625 
Q 35.15625 -1.421875 24.609375 -1.421875 
Q 20.21875 -1.421875 15.453125 -0.5625 
Q 10.6875 0.296875 5.421875 2 
L 5.421875 11.28125 
Q 10.40625 8.6875 15.234375 7.390625 
Q 20.0625 6.109375 24.8125 6.109375 
Q 31.15625 6.109375 34.5625 8.28125 
Q 37.984375 10.453125 37.984375 14.40625 
Q 37.984375 18.0625 35.515625 20.015625 
Q 33.0625 21.96875 24.703125 23.78125 
L 21.578125 24.515625 
Q 13.234375 26.265625 9.515625 29.90625 
Q 5.8125 33.546875 5.8125 39.890625 
Q 5.8125 47.609375 11.28125 51.796875 
Q 16.75 56 26.8125 56 
Q 31.78125 56 36.171875 55.265625 
Q 40.578125 54.546875 44.28125 53.078125 
z
" id="DejaVuSans-115"/>
      <path d="M -0.203125 72.90625 
L 10.40625 72.90625 
L 30.609375 42.921875 
L 50.6875 72.90625 
L 61.28125 72.90625 
L 35.5 34.71875 
L 35.5 0 
L 25.59375 0 
L 25.59375 34.71875 
z
" id="DejaVuSans-89"/>
     </defs>
     <g transform="translate(193.885937 268.034687)scale(0.1 -0.1)">
      <use xlink:href="#DejaVuSans-80"/>
      <use x="55.802734" xlink:href="#DejaVuSans-97"/>
      <use x="117.082031" xlink:href="#DejaVuSans-115"/>
      <use x="169.181641" xlink:href="#DejaVuSans-115"/>
      <use x="221.28125" xlink:href="#DejaVuSans-89"/>
     </g>
    </g>
   </g>
   <g id="matplotlib.axis_2">
    <g id="ytick_1">
     <g id="line2d_6">
      <defs>
       <path d="M 0 0 
L -3.5 0 
" id="m2ef644c524" style="stroke:#000000;stroke-width:0.8;"/>
      </defs>
      <g>
       <use style="stroke:#000000;stroke-width:0.8;" x="40.603125" xlink:href="#m2ef644c524" y="229.874489"/>
      </g>
     </g>
     <g id="text_7">
      <!-- 0 -->
      <g transform="translate(27.240625 233.673707)scale(0.1 -0.1)">
       <use xlink:href="#DejaVuSans-48"/>
      </g>
     </g>
    </g>
    <g id="ytick_2">
     <g id="line2d_7">
      <g>
       <use style="stroke:#000000;stroke-width:0.8;" x="40.603125" xlink:href="#m2ef644c524" y="186.920196"/>
      </g>
     </g>
     <g id="text_8">
      <!-- 10 -->
      <g transform="translate(20.878125 190.719415)scale(0.1 -0.1)">
       <use xlink:href="#DejaVuSans-49"/>
       <use x="63.623047" xlink:href="#DejaVuSans-48"/>
      </g>
     </g>
    </g>
    <g id="ytick_3">
     <g id="line2d_8">
      <g>
       <use style="stroke:#000000;stroke-width:0.8;" x="40.603125" xlink:href="#m2ef644c524" y="143.965903"/>
      </g>
     </g>
     <g id="text_9">
      <!-- 20 -->
      <g transform="translate(20.878125 147.765122)scale(0.1 -0.1)">
       <use xlink:href="#DejaVuSans-50"/>
       <use x="63.623047" xlink:href="#DejaVuSans-48"/>
      </g>
     </g>
    </g>
    <g id="ytick_4">
     <g id="line2d_9">
      <g>
       <use style="stroke:#000000;stroke-width:0.8;" x="40.603125" xlink:href="#m2ef644c524" y="101.01161"/>
      </g>
     </g>
     <g id="text_10">
      <!-- 30 -->
      <g transform="translate(20.878125 104.810829)scale(0.1 -0.1)">
       <use xlink:href="#DejaVuSans-51"/>
       <use x="63.623047" xlink:href="#DejaVuSans-48"/>
      </g>
     </g>
    </g>
    <g id="ytick_5">
     <g id="line2d_10">
      <g>
       <use style="stroke:#000000;stroke-width:0.8;" x="40.603125" xlink:href="#m2ef644c524" y="58.057317"/>
      </g>
     </g>
     <g id="text_11">
      <!-- 40 -->
      <defs>
       <path d="M 37.796875 64.3125 
L 12.890625 25.390625 
L 37.796875 25.390625 
z
M 35.203125 72.90625 
L 47.609375 72.90625 
L 47.609375 25.390625 
L 58.015625 25.390625 
L 58.015625 17.1875 
L 47.609375 17.1875 
L 47.609375 0 
L 37.796875 0 
L 37.796875 17.1875 
L 4.890625 17.1875 
L 4.890625 26.703125 
z
" id="DejaVuSans-52"/>
      </defs>
      <g transform="translate(20.878125 61.856536)scale(0.1 -0.1)">
       <use xlink:href="#DejaVuSans-52"/>
       <use x="63.623047" xlink:href="#DejaVuSans-48"/>
      </g>
     </g>
    </g>
    <g id="text_12">
     <!-- ScoredPoints -->
     <defs>
      <path d="M 53.515625 70.515625 
L 53.515625 60.890625 
Q 47.90625 63.578125 42.921875 64.890625 
Q 37.9375 66.21875 33.296875 66.21875 
Q 25.25 66.21875 20.875 63.09375 
Q 16.5 59.96875 16.5 54.203125 
Q 16.5 49.359375 19.40625 46.890625 
Q 22.3125 44.4375 30.421875 42.921875 
L 36.375 41.703125 
Q 47.40625 39.59375 52.65625 34.296875 
Q 57.90625 29 57.90625 20.125 
Q 57.90625 9.515625 50.796875 4.046875 
Q 43.703125 -1.421875 29.984375 -1.421875 
Q 24.8125 -1.421875 18.96875 -0.25 
Q 13.140625 0.921875 6.890625 3.21875 
L 6.890625 13.375 
Q 12.890625 10.015625 18.65625 8.296875 
Q 24.421875 6.59375 29.984375 6.59375 
Q 38.421875 6.59375 43.015625 9.90625 
Q 47.609375 13.234375 47.609375 19.390625 
Q 47.609375 24.75 44.3125 27.78125 
Q 41.015625 30.8125 33.5 32.328125 
L 27.484375 33.5 
Q 16.453125 35.6875 11.515625 40.375 
Q 6.59375 45.0625 6.59375 53.421875 
Q 6.59375 63.09375 13.40625 68.65625 
Q 20.21875 74.21875 32.171875 74.21875 
Q 37.3125 74.21875 42.625 73.28125 
Q 47.953125 72.359375 53.515625 70.515625 
z
" id="DejaVuSans-83"/>
      <path d="M 48.78125 52.59375 
L 48.78125 44.1875 
Q 44.96875 46.296875 41.140625 47.34375 
Q 37.3125 48.390625 33.40625 48.390625 
Q 24.65625 48.390625 19.8125 42.84375 
Q 14.984375 37.3125 14.984375 27.296875 
Q 14.984375 17.28125 19.8125 11.734375 
Q 24.65625 6.203125 33.40625 6.203125 
Q 37.3125 6.203125 41.140625 7.25 
Q 44.96875 8.296875 48.78125 10.40625 
L 48.78125 2.09375 
Q 45.015625 0.34375 40.984375 -0.53125 
Q 36.96875 -1.421875 32.421875 -1.421875 
Q 20.0625 -1.421875 12.78125 6.34375 
Q 5.515625 14.109375 5.515625 27.296875 
Q 5.515625 40.671875 12.859375 48.328125 
Q 20.21875 56 33.015625 56 
Q 37.15625 56 41.109375 55.140625 
Q 45.0625 54.296875 48.78125 52.59375 
z
" id="DejaVuSans-99"/>
      <path d="M 30.609375 48.390625 
Q 23.390625 48.390625 19.1875 42.75 
Q 14.984375 37.109375 14.984375 27.296875 
Q 14.984375 17.484375 19.15625 11.84375 
Q 23.34375 6.203125 30.609375 6.203125 
Q 37.796875 6.203125 41.984375 11.859375 
Q 46.1875 17.53125 46.1875 27.296875 
Q 46.1875 37.015625 41.984375 42.703125 
Q 37.796875 48.390625 30.609375 48.390625 
z
M 30.609375 56 
Q 42.328125 56 49.015625 48.375 
Q 55.71875 40.765625 55.71875 27.296875 
Q 55.71875 13.875 49.015625 6.21875 
Q 42.328125 -1.421875 30.609375 -1.421875 
Q 18.84375 -1.421875 12.171875 6.21875 
Q 5.515625 13.875 5.515625 27.296875 
Q 5.515625 40.765625 12.171875 48.375 
Q 18.84375 56 30.609375 56 
z
" id="DejaVuSans-111"/>
      <path d="M 41.109375 46.296875 
Q 39.59375 47.171875 37.8125 47.578125 
Q 36.03125 48 33.890625 48 
Q 26.265625 48 22.1875 43.046875 
Q 18.109375 38.09375 18.109375 28.8125 
L 18.109375 0 
L 9.078125 0 
L 9.078125 54.6875 
L 18.109375 54.6875 
L 18.109375 46.1875 
Q 20.953125 51.171875 25.484375 53.578125 
Q 30.03125 56 36.53125 56 
Q 37.453125 56 38.578125 55.875 
Q 39.703125 55.765625 41.0625 55.515625 
z
" id="DejaVuSans-114"/>
      <path d="M 56.203125 29.59375 
L 56.203125 25.203125 
L 14.890625 25.203125 
Q 15.484375 15.921875 20.484375 11.0625 
Q 25.484375 6.203125 34.421875 6.203125 
Q 39.59375 6.203125 44.453125 7.46875 
Q 49.3125 8.734375 54.109375 11.28125 
L 54.109375 2.78125 
Q 49.265625 0.734375 44.1875 -0.34375 
Q 39.109375 -1.421875 33.890625 -1.421875 
Q 20.796875 -1.421875 13.15625 6.1875 
Q 5.515625 13.8125 5.515625 26.8125 
Q 5.515625 40.234375 12.765625 48.109375 
Q 20.015625 56 32.328125 56 
Q 43.359375 56 49.78125 48.890625 
Q 56.203125 41.796875 56.203125 29.59375 
z
M 47.21875 32.234375 
Q 47.125 39.59375 43.09375 43.984375 
Q 39.0625 48.390625 32.421875 48.390625 
Q 24.90625 48.390625 20.390625 44.140625 
Q 15.875 39.890625 15.1875 32.171875 
z
" id="DejaVuSans-101"/>
      <path d="M 45.40625 46.390625 
L 45.40625 75.984375 
L 54.390625 75.984375 
L 54.390625 0 
L 45.40625 0 
L 45.40625 8.203125 
Q 42.578125 3.328125 38.25 0.953125 
Q 33.9375 -1.421875 27.875 -1.421875 
Q 17.96875 -1.421875 11.734375 6.484375 
Q 5.515625 14.40625 5.515625 27.296875 
Q 5.515625 40.1875 11.734375 48.09375 
Q 17.96875 56 27.875 56 
Q 33.9375 56 38.25 53.625 
Q 42.578125 51.265625 45.40625 46.390625 
z
M 14.796875 27.296875 
Q 14.796875 17.390625 18.875 11.75 
Q 22.953125 6.109375 30.078125 6.109375 
Q 37.203125 6.109375 41.296875 11.75 
Q 45.40625 17.390625 45.40625 27.296875 
Q 45.40625 37.203125 41.296875 42.84375 
Q 37.203125 48.484375 30.078125 48.484375 
Q 22.953125 48.484375 18.875 42.84375 
Q 14.796875 37.203125 14.796875 27.296875 
z
" id="DejaVuSans-100"/>
      <path d="M 9.421875 54.6875 
L 18.40625 54.6875 
L 18.40625 0 
L 9.421875 0 
z
M 9.421875 75.984375 
L 18.40625 75.984375 
L 18.40625 64.59375 
L 9.421875 64.59375 
z
" id="DejaVuSans-105"/>
      <path d="M 54.890625 33.015625 
L 54.890625 0 
L 45.90625 0 
L 45.90625 32.71875 
Q 45.90625 40.484375 42.875 44.328125 
Q 39.84375 48.1875 33.796875 48.1875 
Q 26.515625 48.1875 22.3125 43.546875 
Q 18.109375 38.921875 18.109375 30.90625 
L 18.109375 0 
L 9.078125 0 
L 9.078125 54.6875 
L 18.109375 54.6875 
L 18.109375 46.1875 
Q 21.34375 51.125 25.703125 53.5625 
Q 30.078125 56 35.796875 56 
Q 45.21875 56 50.046875 50.171875 
Q 54.890625 44.34375 54.890625 33.015625 
z
" id="DejaVuSans-110"/>
      <path d="M 18.3125 70.21875 
L 18.3125 54.6875 
L 36.8125 54.6875 
L 36.8125 47.703125 
L 18.3125 47.703125 
L 18.3125 18.015625 
Q 18.3125 11.328125 20.140625 9.421875 
Q 21.96875 7.515625 27.59375 7.515625 
L 36.8125 7.515625 
L 36.8125 0 
L 27.59375 0 
Q 17.1875 0 13.234375 3.875 
Q 9.28125 7.765625 9.28125 18.015625 
L 9.28125 47.703125 
L 2.6875 47.703125 
L 2.6875 54.6875 
L 9.28125 54.6875 
L 9.28125 70.21875 
z
" id="DejaVuSans-116"/>
     </defs>
     <g transform="translate(14.798438 163.230312)rotate(-90)scale(0.1 -0.1)">
      <use xlink:href="#DejaVuSans-83"/>
      <use x="63.476562" xlink:href="#DejaVuSans-99"/>
      <use x="118.457031" xlink:href="#DejaVuSans-111"/>
      <use x="179.638672" xlink:href="#DejaVuSans-114"/>
      <use x="218.501953" xlink:href="#DejaVuSans-101"/>
      <use x="280.025391" xlink:href="#DejaVuSans-100"/>
      <use x="343.501953" xlink:href="#DejaVuSans-80"/>
      <use x="400.179688" xlink:href="#DejaVuSans-111"/>
      <use x="461.361328" xlink:href="#DejaVuSans-105"/>
      <use x="489.144531" xlink:href="#DejaVuSans-110"/>
      <use x="552.523438" xlink:href="#DejaVuSans-116"/>
      <use x="591.732422" xlink:href="#DejaVuSans-115"/>
     </g>
    </g>
   </g>
   <g id="line2d_11">
    <path clip-path="url(#p5fe22b2b74)" d="M 40.603125 145.268511 
L 43.984943 144.657669 
L 47.366761 144.046828 
L 50.74858 143.435987 
L 54.130398 142.825145 
L 57.512216 142.214304 
L 60.894034 141.603462 
L 64.275852 140.992621 
L 67.65767 140.381779 
L 71.039489 139.770938 
L 74.421307 139.160096 
L 77.803125 138.549255 
L 81.184943 137.938413 
L 84.566761 137.327572 
L 87.94858 136.71673 
L 91.330398 136.105889 
L 94.712216 135.495048 
L 98.094034 134.884206 
L 101.475852 134.273365 
L 104.85767 133.662523 
L 108.239489 133.051682 
L 111.621307 132.44084 
L 115.003125 131.829999 
L 118.384943 131.219157 
L 121.766761 130.608316 
L 125.14858 129.997474 
L 128.530398 129.386633 
L 131.912216 128.775792 
L 135.294034 128.16495 
L 138.675852 127.554109 
L 142.05767 126.943267 
L 145.439489 126.332426 
L 148.821307 125.721584 
L 152.203125 125.110743 
L 155.584943 124.499901 
L 158.966761 123.88906 
L 162.34858 123.278218 
L 165.730398 122.667377 
L 169.112216 122.056536 
L 172.494034 121.445694 
L 175.875852 120.834853 
L 179.25767 120.224011 
L 182.639489 119.61317 
L 186.021307 119.002328 
L 189.403125 118.391487 
L 192.784943 117.780645 
L 196.166761 117.169804 
L 199.54858 116.558962 
L 202.930398 115.948121 
L 206.312216 115.33728 
L 209.694034 114.726438 
L 213.075852 114.115597 
L 216.45767 113.504755 
L 219.839489 112.893914 
L 223.221307 112.283072 
L 226.603125 111.672231 
L 229.984943 111.061389 
L 233.366761 110.450548 
L 236.74858 109.839706 
L 240.130398 109.228865 
L 243.512216 108.618024 
L 246.894034 108.007182 
L 250.275852 107.396341 
L 253.65767 106.785499 
L 257.039489 106.174658 
L 260.421307 105.563816 
L 263.803125 104.952975 
L 267.184943 104.342133 
L 270.566761 103.731292 
L 273.94858 103.12045 
L 277.330398 102.509609 
L 280.712216 101.898768 
L 284.094034 101.287926 
L 287.475852 100.677085 
L 290.85767 100.066243 
L 294.239489 99.455402 
L 297.621307 98.84456 
L 301.003125 98.233719 
L 304.384943 97.622877 
L 307.766761 97.012036 
L 311.14858 96.401194 
L 314.530398 95.790353 
L 317.912216 95.179512 
L 321.294034 94.56867 
L 324.675852 93.957829 
L 328.05767 93.346987 
L 331.439489 92.736146 
L 334.821307 92.125304 
L 338.203125 91.514463 
L 341.584943 90.903621 
L 344.966761 90.29278 
L 348.34858 89.681938 
L 351.730398 89.071097 
L 355.112216 88.460256 
L 358.494034 87.849414 
L 361.875852 87.238573 
L 365.25767 86.627731 
L 368.639489 86.01689 
L 372.021307 85.406048 
L 375.403125 84.795207 
" style="fill:none;stroke:#1f77b4;stroke-linecap:square;stroke-width:2.25;"/>
   </g>
   <g id="patch_3">
    <path d="M 40.603125 239.758125 
L 40.603125 22.318125 
" style="fill:none;stroke:#000000;stroke-linecap:square;stroke-linejoin:miter;stroke-width:0.8;"/>
   </g>
   <g id="patch_4">
    <path d="M 375.403125 239.758125 
L 375.403125 22.318125 
" style="fill:none;stroke:#000000;stroke-linecap:square;stroke-linejoin:miter;stroke-width:0.8;"/>
   </g>
   <g id="patch_5">
    <path d="M 40.603125 239.758125 
L 375.403125 239.758125 
" style="fill:none;stroke:#000000;stroke-linecap:square;stroke-linejoin:miter;stroke-width:0.8;"/>
   </g>
   <g id="patch_6">
    <path d="M 40.603125 22.318125 
L 375.403125 22.318125 
" style="fill:none;stroke:#000000;stroke-linecap:square;stroke-linejoin:miter;stroke-width:0.8;"/>
   </g>
   <g id="text_13">
    <!-- Titans -->
    <defs>
     <path d="M -0.296875 72.90625 
L 61.375 72.90625 
L 61.375 64.59375 
L 35.5 64.59375 
L 35.5 0 
L 25.59375 0 
L 25.59375 64.59375 
L -0.296875 64.59375 
z
" id="DejaVuSans-84"/>
    </defs>
    <g transform="translate(189.901875 16.318125)scale(0.12 -0.12)">
     <use xlink:href="#DejaVuSans-84"/>
     <use x="57.958984" xlink:href="#DejaVuSans-105"/>
     <use x="85.742188" xlink:href="#DejaVuSans-116"/>
     <use x="124.951172" xlink:href="#DejaVuSans-97"/>
     <use x="186.230469" xlink:href="#DejaVuSans-110"/>
     <use x="249.609375" xlink:href="#DejaVuSans-115"/>
    </g>
   </g>
  </g>
 </g>
 <defs>
  <clipPath id="p5fe22b2b74">
   <rect height="217.44" width="334.8" x="40.603125" y="22.318125"/>
  </clipPath>
 </defs>
</svg>
