<?xml version="1.0" encoding="utf-8" standalone="no"?>
<!DOCTYPE svg PUBLIC "-//W3C//DTD SVG 1.1//EN"
  "http://www.w3.org/Graphics/SVG/1.1/DTD/svg11.dtd">
<!-- Created with matplotlib (https://matplotlib.org/) -->
<svg height="277.314375pt" version="1.1" viewBox="0 0 382.603125 277.314375" width="382.603125pt" xmlns="http://www.w3.org/2000/svg" xmlns:xlink="http://www.w3.org/1999/xlink">
 <defs>
  <style type="text/css">
*{stroke-linecap:butt;stroke-linejoin:round;}
  </style>
 </defs>
 <g id="figure_1">
  <g id="patch_1">
   <path d="M 0 277.314375 
L 382.603125 277.314375 
L 382.603125 0 
L 0 0 
z
" style="fill:none;"/>
  </g>
  <g id="axes_1">
   <g id="patch_2">
    <path d="M 40.603125 239.758125 
L 375.403125 239.758125 
L 375.403125 22.318125 
L 40.603125 22.318125 
z
" style="fill:#ffffff;"/>
   </g>
   <g id="PathCollection_1">
    <defs>
     <path d="M 0 3 
C 0.795609 3 1.55874 2.683901 2.12132 2.12132 
C 2.683901 1.55874 3 0.795609 3 0 
C 3 -0.795609 2.683901 -1.55874 2.12132 -2.12132 
C 1.55874 -2.683901 0.795609 -3 0 -3 
C -0.795609 -3 -1.55874 -2.683901 -2.12132 -2.12132 
C -2.683901 -1.55874 -3 -0.795609 -3 0 
C -3 0.795609 -2.683901 1.55874 -2.12132 2.12132 
C -1.55874 2.683901 -0.795609 3 0 3 
z
" id="mbe0c4e0bdc" style="stroke:#1f77b4;stroke-opacity:0.8;"/>
    </defs>
    <g clip-path="url(#p9c147696bc)">
     <use style="fill:#1f77b4;fill-opacity:0.8;stroke:#1f77b4;stroke-opacity:0.8;" x="198.156066" xlink:href="#mbe0c4e0bdc" y="214.734041"/>
     <use style="fill:#1f77b4;fill-opacity:0.8;stroke:#1f77b4;stroke-opacity:0.8;" x="270.367831" xlink:href="#mbe0c4e0bdc" y="62.181258"/>
     <use style="fill:#1f77b4;fill-opacity:0.8;stroke:#1f77b4;stroke-opacity:0.8;" x="217.850184" xlink:href="#mbe0c4e0bdc" y="138.486829"/>
     <use style="fill:#1f77b4;fill-opacity:0.8;stroke:#1f77b4;stroke-opacity:0.8;" x="152.203125" xlink:href="#mbe0c4e0bdc" y="179.726313"/>
     <use style="fill:#1f77b4;fill-opacity:0.8;stroke:#1f77b4;stroke-opacity:0.8;" x="171.897243" xlink:href="#mbe0c4e0bdc" y="139.903496"/>
     <use style="fill:#1f77b4;fill-opacity:0.8;stroke:#1f77b4;stroke-opacity:0.8;" x="171.897243" xlink:href="#mbe0c4e0bdc" y="164.591792"/>
     <use style="fill:#1f77b4;fill-opacity:0.8;stroke:#1f77b4;stroke-opacity:0.8;" x="60.297243" xlink:href="#mbe0c4e0bdc" y="147.227911"/>
     <use style="fill:#1f77b4;fill-opacity:0.8;stroke:#1f77b4;stroke-opacity:0.8;" x="217.850184" xlink:href="#mbe0c4e0bdc" y="164.920393"/>
     <use style="fill:#1f77b4;fill-opacity:0.8;stroke:#1f77b4;stroke-opacity:0.8;" x="190.360478" xlink:href="#mbe0c4e0bdc" y="189.657081"/>
     <use style="fill:#1f77b4;fill-opacity:0.8;stroke:#1f77b4;stroke-opacity:0.8;" x="60.297243" xlink:href="#mbe0c4e0bdc" y="204.930764"/>
     <use style="fill:#1f77b4;fill-opacity:0.8;stroke:#1f77b4;stroke-opacity:0.8;" x="198.156066" xlink:href="#mbe0c4e0bdc" y="151.221699"/>
     <use style="fill:#1f77b4;fill-opacity:0.8;stroke:#1f77b4;stroke-opacity:0.8;" x="106.250184" xlink:href="#mbe0c4e0bdc" y="157.312281"/>
     <use style="fill:#1f77b4;fill-opacity:0.8;stroke:#1f77b4;stroke-opacity:0.8;" x="237.544301" xlink:href="#mbe0c4e0bdc" y="177.692755"/>
     <use style="fill:#1f77b4;fill-opacity:0.8;stroke:#1f77b4;stroke-opacity:0.8;" x="79.99136" xlink:href="#mbe0c4e0bdc" y="80.626036"/>
     <use style="fill:#1f77b4;fill-opacity:0.8;stroke:#1f77b4;stroke-opacity:0.8;" x="257.238419" xlink:href="#mbe0c4e0bdc" y="168.017866"/>
     <use style="fill:#1f77b4;fill-opacity:0.8;stroke:#1f77b4;stroke-opacity:0.8;" x="217.850184" xlink:href="#mbe0c4e0bdc" y="161.724699"/>
     <use style="fill:#1f77b4;fill-opacity:0.8;stroke:#1f77b4;stroke-opacity:0.8;" x="217.850184" xlink:href="#mbe0c4e0bdc" y="148.297468"/>
     <use style="fill:#1f77b4;fill-opacity:0.8;stroke:#1f77b4;stroke-opacity:0.8;" x="270.367831" xlink:href="#mbe0c4e0bdc" y="87.090327"/>
     <use style="fill:#1f77b4;fill-opacity:0.8;stroke:#1f77b4;stroke-opacity:0.8;" x="224.41489" xlink:href="#mbe0c4e0bdc" y="146.509284"/>
     <use style="fill:#1f77b4;fill-opacity:0.8;stroke:#1f77b4;stroke-opacity:0.8;" x="190.360478" xlink:href="#mbe0c4e0bdc" y="149.277932"/>
     <use style="fill:#1f77b4;fill-opacity:0.8;stroke:#1f77b4;stroke-opacity:0.8;" x="190.360478" xlink:href="#mbe0c4e0bdc" y="64.680784"/>
     <use style="fill:#1f77b4;fill-opacity:0.8;stroke:#1f77b4;stroke-opacity:0.8;" x="303.19136" xlink:href="#mbe0c4e0bdc" y="138.179775"/>
     <use style="fill:#1f77b4;fill-opacity:0.8;stroke:#1f77b4;stroke-opacity:0.8;" x="224.41489" xlink:href="#mbe0c4e0bdc" y="172.780792"/>
     <use style="fill:#1f77b4;fill-opacity:0.8;stroke:#1f77b4;stroke-opacity:0.8;" x="244.109007" xlink:href="#mbe0c4e0bdc" y="161.925271"/>
     <use style="fill:#1f77b4;fill-opacity:0.8;stroke:#1f77b4;stroke-opacity:0.8;" x="211.285478" xlink:href="#mbe0c4e0bdc" y="69.401392"/>
     <use style="fill:#1f77b4;fill-opacity:0.8;stroke:#1f77b4;stroke-opacity:0.8;" x="237.544301" xlink:href="#mbe0c4e0bdc" y="179.111308"/>
     <use style="fill:#1f77b4;fill-opacity:0.8;stroke:#1f77b4;stroke-opacity:0.8;" x="217.850184" xlink:href="#mbe0c4e0bdc" y="144.966383"/>
     <use style="fill:#1f77b4;fill-opacity:0.8;stroke:#1f77b4;stroke-opacity:0.8;" x="283.497243" xlink:href="#mbe0c4e0bdc" y="136.114793"/>
     <use style="fill:#1f77b4;fill-opacity:0.8;stroke:#1f77b4;stroke-opacity:0.8;" x="303.19136" xlink:href="#mbe0c4e0bdc" y="117.587717"/>
     <use style="fill:#1f77b4;fill-opacity:0.8;stroke:#1f77b4;stroke-opacity:0.8;" x="185.026654" xlink:href="#mbe0c4e0bdc" y="118.205115"/>
     <use style="fill:#1f77b4;fill-opacity:0.8;stroke:#1f77b4;stroke-opacity:0.8;" x="217.850184" xlink:href="#mbe0c4e0bdc" y="168.582953"/>
     <use style="fill:#1f77b4;fill-opacity:0.8;stroke:#1f77b4;stroke-opacity:0.8;" x="99.685478" xlink:href="#mbe0c4e0bdc" y="187.518478"/>
     <use style="fill:#1f77b4;fill-opacity:0.8;stroke:#1f77b4;stroke-opacity:0.8;" x="217.850184" xlink:href="#mbe0c4e0bdc" y="129.754649"/>
     <use style="fill:#1f77b4;fill-opacity:0.8;stroke:#1f77b4;stroke-opacity:0.8;" x="139.073713" xlink:href="#mbe0c4e0bdc" y="181.118829"/>
     <use style="fill:#1f77b4;fill-opacity:0.8;stroke:#1f77b4;stroke-opacity:0.8;" x="237.544301" xlink:href="#mbe0c4e0bdc" y="117.587717"/>
     <use style="fill:#1f77b4;fill-opacity:0.8;stroke:#1f77b4;stroke-opacity:0.8;" x="244.109007" xlink:href="#mbe0c4e0bdc" y="32.201761"/>
     <use style="fill:#1f77b4;fill-opacity:0.8;stroke:#1f77b4;stroke-opacity:0.8;" x="263.803125" xlink:href="#mbe0c4e0bdc" y="70.365769"/>
     <use style="fill:#1f77b4;fill-opacity:0.8;stroke:#1f77b4;stroke-opacity:0.8;" x="139.073713" xlink:href="#mbe0c4e0bdc" y="171.248216"/>
     <use style="fill:#1f77b4;fill-opacity:0.8;stroke:#1f77b4;stroke-opacity:0.8;" x="224.41489" xlink:href="#mbe0c4e0bdc" y="136.374083"/>
     <use style="fill:#1f77b4;fill-opacity:0.8;stroke:#1f77b4;stroke-opacity:0.8;" x="125.944301" xlink:href="#mbe0c4e0bdc" y="149.277932"/>
     <use style="fill:#1f77b4;fill-opacity:0.8;stroke:#1f77b4;stroke-opacity:0.8;" x="60.297243" xlink:href="#mbe0c4e0bdc" y="117.587717"/>
     <use style="fill:#1f77b4;fill-opacity:0.8;stroke:#1f77b4;stroke-opacity:0.8;" x="79.99136" xlink:href="#mbe0c4e0bdc" y="139.02552"/>
     <use style="fill:#1f77b4;fill-opacity:0.8;stroke:#1f77b4;stroke-opacity:0.8;" x="125.944301" xlink:href="#mbe0c4e0bdc" y="89.627561"/>
     <use style="fill:#1f77b4;fill-opacity:0.8;stroke:#1f77b4;stroke-opacity:0.8;" x="198.156066" xlink:href="#mbe0c4e0bdc" y="156.869702"/>
     <use style="fill:#1f77b4;fill-opacity:0.8;stroke:#1f77b4;stroke-opacity:0.8;" x="244.109007" xlink:href="#mbe0c4e0bdc" y="153.128449"/>
     <use style="fill:#1f77b4;fill-opacity:0.8;stroke:#1f77b4;stroke-opacity:0.8;" x="106.250184" xlink:href="#mbe0c4e0bdc" y="186.984904"/>
     <use style="fill:#1f77b4;fill-opacity:0.8;stroke:#1f77b4;stroke-opacity:0.8;" x="244.109007" xlink:href="#mbe0c4e0bdc" y="121.886619"/>
     <use style="fill:#1f77b4;fill-opacity:0.8;stroke:#1f77b4;stroke-opacity:0.8;" x="190.360478" xlink:href="#mbe0c4e0bdc" y="143.067498"/>
     <use style="fill:#1f77b4;fill-opacity:0.8;stroke:#1f77b4;stroke-opacity:0.8;" x="190.360478" xlink:href="#mbe0c4e0bdc" y="41.614039"/>
     <use style="fill:#1f77b4;fill-opacity:0.8;stroke:#1f77b4;stroke-opacity:0.8;" x="191.59136" xlink:href="#mbe0c4e0bdc" y="161.172181"/>
     <use style="fill:#1f77b4;fill-opacity:0.8;stroke:#1f77b4;stroke-opacity:0.8;" x="237.544301" xlink:href="#mbe0c4e0bdc" y="99.252173"/>
     <use style="fill:#1f77b4;fill-opacity:0.8;stroke:#1f77b4;stroke-opacity:0.8;" x="185.026654" xlink:href="#mbe0c4e0bdc" y="145.790131"/>
     <use style="fill:#1f77b4;fill-opacity:0.8;stroke:#1f77b4;stroke-opacity:0.8;" x="99.685478" xlink:href="#mbe0c4e0bdc" y="114.83695"/>
     <use style="fill:#1f77b4;fill-opacity:0.8;stroke:#1f77b4;stroke-opacity:0.8;" x="145.638419" xlink:href="#mbe0c4e0bdc" y="137.59439"/>
     <use style="fill:#1f77b4;fill-opacity:0.8;stroke:#1f77b4;stroke-opacity:0.8;" x="165.332537" xlink:href="#mbe0c4e0bdc" y="123.259832"/>
     <use style="fill:#1f77b4;fill-opacity:0.8;stroke:#1f77b4;stroke-opacity:0.8;" x="244.109007" xlink:href="#mbe0c4e0bdc" y="102.741992"/>
     <use style="fill:#1f77b4;fill-opacity:0.8;stroke:#1f77b4;stroke-opacity:0.8;" x="125.944301" xlink:href="#mbe0c4e0bdc" y="117.587717"/>
     <use style="fill:#1f77b4;fill-opacity:0.8;stroke:#1f77b4;stroke-opacity:0.8;" x="106.250184" xlink:href="#mbe0c4e0bdc" y="183.383127"/>
     <use style="fill:#1f77b4;fill-opacity:0.8;stroke:#1f77b4;stroke-opacity:0.8;" x="60.297243" xlink:href="#mbe0c4e0bdc" y="172.720638"/>
     <use style="fill:#1f77b4;fill-opacity:0.8;stroke:#1f77b4;stroke-opacity:0.8;" x="290.061949" xlink:href="#mbe0c4e0bdc" y="137.253227"/>
     <use style="fill:#1f77b4;fill-opacity:0.8;stroke:#1f77b4;stroke-opacity:0.8;" x="132.509007" xlink:href="#mbe0c4e0bdc" y="128.212197"/>
     <use style="fill:#1f77b4;fill-opacity:0.8;stroke:#1f77b4;stroke-opacity:0.8;" x="250.673713" xlink:href="#mbe0c4e0bdc" y="132.383461"/>
     <use style="fill:#1f77b4;fill-opacity:0.8;stroke:#1f77b4;stroke-opacity:0.8;" x="152.203125" xlink:href="#mbe0c4e0bdc" y="148.102462"/>
     <use style="fill:#1f77b4;fill-opacity:0.8;stroke:#1f77b4;stroke-opacity:0.8;" x="185.026654" xlink:href="#mbe0c4e0bdc" y="172.708248"/>
     <use style="fill:#1f77b4;fill-opacity:0.8;stroke:#1f77b4;stroke-opacity:0.8;" x="106.250184" xlink:href="#mbe0c4e0bdc" y="175.813621"/>
     <use style="fill:#1f77b4;fill-opacity:0.8;stroke:#1f77b4;stroke-opacity:0.8;" x="125.944301" xlink:href="#mbe0c4e0bdc" y="155.625281"/>
     <use style="fill:#1f77b4;fill-opacity:0.8;stroke:#1f77b4;stroke-opacity:0.8;" x="178.461949" xlink:href="#mbe0c4e0bdc" y="157.260208"/>
     <use style="fill:#1f77b4;fill-opacity:0.8;stroke:#1f77b4;stroke-opacity:0.8;" x="198.156066" xlink:href="#mbe0c4e0bdc" y="129.883935"/>
     <use style="fill:#1f77b4;fill-opacity:0.8;stroke:#1f77b4;stroke-opacity:0.8;" x="217.850184" xlink:href="#mbe0c4e0bdc" y="117.587717"/>
     <use style="fill:#1f77b4;fill-opacity:0.8;stroke:#1f77b4;stroke-opacity:0.8;" x="40.603125" xlink:href="#mbe0c4e0bdc" y="226.377936"/>
     <use style="fill:#1f77b4;fill-opacity:0.8;stroke:#1f77b4;stroke-opacity:0.8;" x="191.59136" xlink:href="#mbe0c4e0bdc" y="128.047897"/>
     <use style="fill:#1f77b4;fill-opacity:0.8;stroke:#1f77b4;stroke-opacity:0.8;" x="152.203125" xlink:href="#mbe0c4e0bdc" y="117.587717"/>
     <use style="fill:#1f77b4;fill-opacity:0.8;stroke:#1f77b4;stroke-opacity:0.8;" x="185.026654" xlink:href="#mbe0c4e0bdc" y="130.358252"/>
     <use style="fill:#1f77b4;fill-opacity:0.8;stroke:#1f77b4;stroke-opacity:0.8;" x="125.944301" xlink:href="#mbe0c4e0bdc" y="104.855492"/>
     <use style="fill:#1f77b4;fill-opacity:0.8;stroke:#1f77b4;stroke-opacity:0.8;" x="178.461949" xlink:href="#mbe0c4e0bdc" y="117.728381"/>
     <use style="fill:#1f77b4;fill-opacity:0.8;stroke:#1f77b4;stroke-opacity:0.8;" x="152.203125" xlink:href="#mbe0c4e0bdc" y="105.011138"/>
     <use style="fill:#1f77b4;fill-opacity:0.8;stroke:#1f77b4;stroke-opacity:0.8;" x="152.203125" xlink:href="#mbe0c4e0bdc" y="151.560858"/>
     <use style="fill:#1f77b4;fill-opacity:0.8;stroke:#1f77b4;stroke-opacity:0.8;" x="60.297243" xlink:href="#mbe0c4e0bdc" y="150.879953"/>
     <use style="fill:#1f77b4;fill-opacity:0.8;stroke:#1f77b4;stroke-opacity:0.8;" x="217.850184" xlink:href="#mbe0c4e0bdc" y="172.379377"/>
     <use style="fill:#1f77b4;fill-opacity:0.8;stroke:#1f77b4;stroke-opacity:0.8;" x="217.850184" xlink:href="#mbe0c4e0bdc" y="124.29771"/>
     <use style="fill:#1f77b4;fill-opacity:0.8;stroke:#1f77b4;stroke-opacity:0.8;" x="152.203125" xlink:href="#mbe0c4e0bdc" y="143.067498"/>
     <use style="fill:#1f77b4;fill-opacity:0.8;stroke:#1f77b4;stroke-opacity:0.8;" x="198.156066" xlink:href="#mbe0c4e0bdc" y="89.245091"/>
     <use style="fill:#1f77b4;fill-opacity:0.8;stroke:#1f77b4;stroke-opacity:0.8;" x="119.379596" xlink:href="#mbe0c4e0bdc" y="117.587717"/>
     <use style="fill:#1f77b4;fill-opacity:0.8;stroke:#1f77b4;stroke-opacity:0.8;" x="145.638419" xlink:href="#mbe0c4e0bdc" y="73.496013"/>
     <use style="fill:#1f77b4;fill-opacity:0.8;stroke:#1f77b4;stroke-opacity:0.8;" x="217.850184" xlink:href="#mbe0c4e0bdc" y="143.111491"/>
     <use style="fill:#1f77b4;fill-opacity:0.8;stroke:#1f77b4;stroke-opacity:0.8;" x="190.360478" xlink:href="#mbe0c4e0bdc" y="116.395114"/>
     <use style="fill:#1f77b4;fill-opacity:0.8;stroke:#1f77b4;stroke-opacity:0.8;" x="244.109007" xlink:href="#mbe0c4e0bdc" y="85.629916"/>
     <use style="fill:#1f77b4;fill-opacity:0.8;stroke:#1f77b4;stroke-opacity:0.8;" x="79.99136" xlink:href="#mbe0c4e0bdc" y="229.874489"/>
     <use style="fill:#1f77b4;fill-opacity:0.8;stroke:#1f77b4;stroke-opacity:0.8;" x="171.897243" xlink:href="#mbe0c4e0bdc" y="126.630026"/>
     <use style="fill:#1f77b4;fill-opacity:0.8;stroke:#1f77b4;stroke-opacity:0.8;" x="211.285478" xlink:href="#mbe0c4e0bdc" y="117.587717"/>
     <use style="fill:#1f77b4;fill-opacity:0.8;stroke:#1f77b4;stroke-opacity:0.8;" x="217.850184" xlink:href="#mbe0c4e0bdc" y="144.579423"/>
     <use style="fill:#1f77b4;fill-opacity:0.8;stroke:#1f77b4;stroke-opacity:0.8;" x="309.756066" xlink:href="#mbe0c4e0bdc" y="139.09555"/>
     <use style="fill:#1f77b4;fill-opacity:0.8;stroke:#1f77b4;stroke-opacity:0.8;" x="283.497243" xlink:href="#mbe0c4e0bdc" y="130.419932"/>
     <use style="fill:#1f77b4;fill-opacity:0.8;stroke:#1f77b4;stroke-opacity:0.8;" x="125.944301" xlink:href="#mbe0c4e0bdc" y="147.746926"/>
     <use style="fill:#1f77b4;fill-opacity:0.8;stroke:#1f77b4;stroke-opacity:0.8;" x="171.897243" xlink:href="#mbe0c4e0bdc" y="134.479613"/>
     <use style="fill:#1f77b4;fill-opacity:0.8;stroke:#1f77b4;stroke-opacity:0.8;" x="309.756066" xlink:href="#mbe0c4e0bdc" y="164.609299"/>
     <use style="fill:#1f77b4;fill-opacity:0.8;stroke:#1f77b4;stroke-opacity:0.8;" x="217.850184" xlink:href="#mbe0c4e0bdc" y="144.832608"/>
     <use style="fill:#1f77b4;fill-opacity:0.8;stroke:#1f77b4;stroke-opacity:0.8;" x="152.203125" xlink:href="#mbe0c4e0bdc" y="77.277174"/>
     <use style="fill:#1f77b4;fill-opacity:0.8;stroke:#1f77b4;stroke-opacity:0.8;" x="112.81489" xlink:href="#mbe0c4e0bdc" y="155.181759"/>
     <use style="fill:#1f77b4;fill-opacity:0.8;stroke:#1f77b4;stroke-opacity:0.8;" x="171.897243" xlink:href="#mbe0c4e0bdc" y="149.492285"/>
     <use style="fill:#1f77b4;fill-opacity:0.8;stroke:#1f77b4;stroke-opacity:0.8;" x="171.897243" xlink:href="#mbe0c4e0bdc" y="145.057242"/>
     <use style="fill:#1f77b4;fill-opacity:0.8;stroke:#1f77b4;stroke-opacity:0.8;" x="99.685478" xlink:href="#mbe0c4e0bdc" y="199.843726"/>
     <use style="fill:#1f77b4;fill-opacity:0.8;stroke:#1f77b4;stroke-opacity:0.8;" x="244.109007" xlink:href="#mbe0c4e0bdc" y="76.285983"/>
     <use style="fill:#1f77b4;fill-opacity:0.8;stroke:#1f77b4;stroke-opacity:0.8;" x="290.061949" xlink:href="#mbe0c4e0bdc" y="129.975512"/>
     <use style="fill:#1f77b4;fill-opacity:0.8;stroke:#1f77b4;stroke-opacity:0.8;" x="198.156066" xlink:href="#mbe0c4e0bdc" y="129.051675"/>
     <use style="fill:#1f77b4;fill-opacity:0.8;stroke:#1f77b4;stroke-opacity:0.8;" x="152.203125" xlink:href="#mbe0c4e0bdc" y="151.471615"/>
     <use style="fill:#1f77b4;fill-opacity:0.8;stroke:#1f77b4;stroke-opacity:0.8;" x="190.360478" xlink:href="#mbe0c4e0bdc" y="130.358252"/>
     <use style="fill:#1f77b4;fill-opacity:0.8;stroke:#1f77b4;stroke-opacity:0.8;" x="190.360478" xlink:href="#mbe0c4e0bdc" y="202.876556"/>
     <use style="fill:#1f77b4;fill-opacity:0.8;stroke:#1f77b4;stroke-opacity:0.8;" x="257.238419" xlink:href="#mbe0c4e0bdc" y="150.12794"/>
     <use style="fill:#1f77b4;fill-opacity:0.8;stroke:#1f77b4;stroke-opacity:0.8;" x="296.626654" xlink:href="#mbe0c4e0bdc" y="141.926371"/>
     <use style="fill:#1f77b4;fill-opacity:0.8;stroke:#1f77b4;stroke-opacity:0.8;" x="86.556066" xlink:href="#mbe0c4e0bdc" y="227.16613"/>
     <use style="fill:#1f77b4;fill-opacity:0.8;stroke:#1f77b4;stroke-opacity:0.8;" x="198.156066" xlink:href="#mbe0c4e0bdc" y="153.637601"/>
     <use style="fill:#1f77b4;fill-opacity:0.8;stroke:#1f77b4;stroke-opacity:0.8;" x="198.156066" xlink:href="#mbe0c4e0bdc" y="163.298906"/>
     <use style="fill:#1f77b4;fill-opacity:0.8;stroke:#1f77b4;stroke-opacity:0.8;" x="230.979596" xlink:href="#mbe0c4e0bdc" y="120.704641"/>
     <use style="fill:#1f77b4;fill-opacity:0.8;stroke:#1f77b4;stroke-opacity:0.8;" x="158.767831" xlink:href="#mbe0c4e0bdc" y="166.84729"/>
     <use style="fill:#1f77b4;fill-opacity:0.8;stroke:#1f77b4;stroke-opacity:0.8;" x="198.156066" xlink:href="#mbe0c4e0bdc" y="182.364283"/>
     <use style="fill:#1f77b4;fill-opacity:0.8;stroke:#1f77b4;stroke-opacity:0.8;" x="190.360478" xlink:href="#mbe0c4e0bdc" y="101.460806"/>
     <use style="fill:#1f77b4;fill-opacity:0.8;stroke:#1f77b4;stroke-opacity:0.8;" x="79.99136" xlink:href="#mbe0c4e0bdc" y="171.888809"/>
     <use style="fill:#1f77b4;fill-opacity:0.8;stroke:#1f77b4;stroke-opacity:0.8;" x="217.850184" xlink:href="#mbe0c4e0bdc" y="110.895079"/>
     <use style="fill:#1f77b4;fill-opacity:0.8;stroke:#1f77b4;stroke-opacity:0.8;" x="276.932537" xlink:href="#mbe0c4e0bdc" y="101.484149"/>
     <use style="fill:#1f77b4;fill-opacity:0.8;stroke:#1f77b4;stroke-opacity:0.8;" x="191.59136" xlink:href="#mbe0c4e0bdc" y="145.188144"/>
     <use style="fill:#1f77b4;fill-opacity:0.8;stroke:#1f77b4;stroke-opacity:0.8;" x="152.203125" xlink:href="#mbe0c4e0bdc" y="74.420316"/>
     <use style="fill:#1f77b4;fill-opacity:0.8;stroke:#1f77b4;stroke-opacity:0.8;" x="244.109007" xlink:href="#mbe0c4e0bdc" y="111.639461"/>
     <use style="fill:#1f77b4;fill-opacity:0.8;stroke:#1f77b4;stroke-opacity:0.8;" x="145.638419" xlink:href="#mbe0c4e0bdc" y="107.172725"/>
     <use style="fill:#1f77b4;fill-opacity:0.8;stroke:#1f77b4;stroke-opacity:0.8;" x="152.203125" xlink:href="#mbe0c4e0bdc" y="123.979882"/>
     <use style="fill:#1f77b4;fill-opacity:0.8;stroke:#1f77b4;stroke-opacity:0.8;" x="237.544301" xlink:href="#mbe0c4e0bdc" y="145.866356"/>
     <use style="fill:#1f77b4;fill-opacity:0.8;stroke:#1f77b4;stroke-opacity:0.8;" x="152.203125" xlink:href="#mbe0c4e0bdc" y="199.827565"/>
     <use style="fill:#1f77b4;fill-opacity:0.8;stroke:#1f77b4;stroke-opacity:0.8;" x="79.99136" xlink:href="#mbe0c4e0bdc" y="136.682214"/>
     <use style="fill:#1f77b4;fill-opacity:0.8;stroke:#1f77b4;stroke-opacity:0.8;" x="99.685478" xlink:href="#mbe0c4e0bdc" y="102.400283"/>
     <use style="fill:#1f77b4;fill-opacity:0.8;stroke:#1f77b4;stroke-opacity:0.8;" x="270.367831" xlink:href="#mbe0c4e0bdc" y="151.892153"/>
     <use style="fill:#1f77b4;fill-opacity:0.8;stroke:#1f77b4;stroke-opacity:0.8;" x="106.250184" xlink:href="#mbe0c4e0bdc" y="177.915521"/>
     <use style="fill:#1f77b4;fill-opacity:0.8;stroke:#1f77b4;stroke-opacity:0.8;" x="257.238419" xlink:href="#mbe0c4e0bdc" y="150.348803"/>
     <use style="fill:#1f77b4;fill-opacity:0.8;stroke:#1f77b4;stroke-opacity:0.8;" x="171.897243" xlink:href="#mbe0c4e0bdc" y="156.321585"/>
     <use style="fill:#1f77b4;fill-opacity:0.8;stroke:#1f77b4;stroke-opacity:0.8;" x="178.461949" xlink:href="#mbe0c4e0bdc" y="94.963295"/>
     <use style="fill:#1f77b4;fill-opacity:0.8;stroke:#1f77b4;stroke-opacity:0.8;" x="171.897243" xlink:href="#mbe0c4e0bdc" y="139.979003"/>
     <use style="fill:#1f77b4;fill-opacity:0.8;stroke:#1f77b4;stroke-opacity:0.8;" x="375.403125" xlink:href="#mbe0c4e0bdc" y="101.922733"/>
    </g>
   </g>
   <g id="PolyCollection_1">
    <path clip-path="url(#p9c147696bc)" d="M 40.603125 145.959922 
L 40.603125 177.148138 
L 43.984943 176.265765 
L 47.366761 175.394972 
L 50.74858 174.554257 
L 54.130398 173.723924 
L 57.512216 172.927045 
L 60.894034 172.099877 
L 64.275852 171.271616 
L 67.65767 170.490271 
L 71.039489 169.651151 
L 74.421307 168.83403 
L 77.803125 168.069723 
L 81.184943 167.304784 
L 84.566761 166.515336 
L 87.94858 165.774471 
L 91.330398 165.008837 
L 94.712216 164.209338 
L 98.094034 163.423654 
L 101.475852 162.581698 
L 104.85767 161.76054 
L 108.239489 160.915438 
L 111.621307 160.071448 
L 115.003125 159.345191 
L 118.384943 158.570025 
L 121.766761 157.726973 
L 125.14858 156.916691 
L 128.530398 156.00064 
L 131.912216 155.298468 
L 135.294034 154.505641 
L 138.675852 153.820555 
L 142.05767 153.15352 
L 145.439489 152.406801 
L 148.821307 151.653629 
L 152.203125 151.02294 
L 155.584943 150.300324 
L 158.966761 149.562972 
L 162.34858 148.93653 
L 165.730398 148.206407 
L 169.112216 147.434612 
L 172.494034 146.813777 
L 175.875852 146.189945 
L 179.25767 145.587711 
L 182.639489 145.133241 
L 186.021307 144.563171 
L 189.403125 143.880033 
L 192.784943 143.284178 
L 196.166761 142.722172 
L 199.54858 142.07412 
L 202.930398 141.532311 
L 206.312216 141.050773 
L 209.694034 140.621681 
L 213.075852 140.209294 
L 216.45767 139.735146 
L 219.839489 139.18325 
L 223.221307 138.731575 
L 226.603125 138.341685 
L 229.984943 137.955324 
L 233.366761 137.480415 
L 236.74858 137.049491 
L 240.130398 136.840755 
L 243.512216 136.420335 
L 246.894034 136.101407 
L 250.275852 135.845125 
L 253.65767 135.564321 
L 257.039489 135.17301 
L 260.421307 134.861146 
L 263.803125 134.586691 
L 267.184943 134.286772 
L 270.566761 133.960517 
L 273.94858 133.62606 
L 277.330398 133.395584 
L 280.712216 133.120511 
L 284.094034 132.868833 
L 287.475852 132.629261 
L 290.85767 132.443627 
L 294.239489 132.303822 
L 297.621307 132.067227 
L 301.003125 131.832193 
L 304.384943 131.594931 
L 307.766761 131.357085 
L 311.14858 131.118965 
L 314.530398 130.873241 
L 317.912216 130.551056 
L 321.294034 130.290669 
L 324.675852 130.038248 
L 328.05767 129.785593 
L 331.439489 129.532668 
L 334.821307 129.279742 
L 338.203125 129.025571 
L 341.584943 128.856899 
L 344.966761 128.635213 
L 348.34858 128.37789 
L 351.730398 128.118829 
L 355.112216 127.819619 
L 358.494034 127.604868 
L 361.875852 127.35052 
L 365.25767 127.093647 
L 368.639489 126.833584 
L 372.021307 126.573462 
L 375.403125 126.292902 
L 375.403125 90.567142 
L 375.403125 90.567142 
L 372.021307 91.485009 
L 368.639489 92.402394 
L 365.25767 93.226117 
L 361.875852 94.085576 
L 358.494034 94.93639 
L 355.112216 95.781488 
L 351.730398 96.626586 
L 348.34858 97.471684 
L 344.966761 98.318213 
L 341.584943 99.185465 
L 338.203125 100.045843 
L 334.821307 100.872187 
L 331.439489 101.69853 
L 328.05767 102.538948 
L 324.675852 103.34991 
L 321.294034 104.175838 
L 317.912216 105.061209 
L 314.530398 105.886328 
L 311.14858 106.712715 
L 307.766761 107.549774 
L 304.384943 108.358952 
L 301.003125 109.18344 
L 297.621307 110.007929 
L 294.239489 110.824143 
L 290.85767 111.608264 
L 287.475852 112.377189 
L 284.094034 113.145177 
L 280.712216 113.851283 
L 277.330398 114.682807 
L 273.94858 115.447775 
L 270.566761 116.212855 
L 267.184943 117.044872 
L 263.803125 117.768924 
L 260.421307 118.601929 
L 257.039489 119.382456 
L 253.65767 120.147434 
L 250.275852 120.846923 
L 246.894034 121.640451 
L 243.512216 122.320037 
L 240.130398 123.076186 
L 236.74858 123.840778 
L 233.366761 124.55256 
L 229.984943 125.366123 
L 226.603125 125.993499 
L 223.221307 126.626188 
L 219.839489 127.329535 
L 216.45767 127.833278 
L 213.075852 128.540943 
L 209.694034 129.01536 
L 206.312216 129.661997 
L 202.930398 130.296316 
L 199.54858 130.878463 
L 196.166761 131.364725 
L 192.784943 131.933667 
L 189.403125 132.458952 
L 186.021307 132.810126 
L 182.639489 133.309592 
L 179.25767 133.736409 
L 175.875852 134.255356 
L 172.494034 134.687272 
L 169.112216 135.00342 
L 165.730398 135.486119 
L 162.34858 135.895636 
L 158.966761 136.167825 
L 155.584943 136.622892 
L 152.203125 136.996069 
L 148.821307 137.332862 
L 145.439489 137.78616 
L 142.05767 138.112108 
L 138.675852 138.281714 
L 135.294034 138.698533 
L 131.912216 138.988977 
L 128.530398 139.281374 
L 125.14858 139.551409 
L 121.766761 139.861609 
L 118.384943 140.152192 
L 115.003125 140.379927 
L 111.621307 140.736467 
L 108.239489 141.03692 
L 104.85767 141.291552 
L 101.475852 141.445189 
L 98.094034 141.601486 
L 94.712216 141.820454 
L 91.330398 142.089813 
L 87.94858 142.359172 
L 84.566761 142.628531 
L 81.184943 142.897891 
L 77.803125 143.167837 
L 74.421307 143.438268 
L 71.039489 143.709455 
L 67.65767 143.982255 
L 64.275852 144.255054 
L 60.894034 144.527854 
L 57.512216 144.801511 
L 54.130398 145.075477 
L 50.74858 145.349443 
L 47.366761 145.588309 
L 43.984943 145.774116 
L 40.603125 145.959922 
z
" style="fill:#1f77b4;fill-opacity:0.15;"/>
   </g>
   <g id="matplotlib.axis_1">
    <g id="xtick_1">
     <g id="line2d_1">
      <defs>
       <path d="M 0 0 
L 0 3.5 
" id="m25053e5241" style="stroke:#000000;stroke-width:0.8;"/>
      </defs>
      <g>
       <use style="stroke:#000000;stroke-width:0.8;" x="40.603125" xlink:href="#m25053e5241" y="239.758125"/>
      </g>
     </g>
     <g id="text_1">
      <!-- 0 -->
      <defs>
       <path d="M 31.78125 66.40625 
Q 24.171875 66.40625 20.328125 58.90625 
Q 16.5 51.421875 16.5 36.375 
Q 16.5 21.390625 20.328125 13.890625 
Q 24.171875 6.390625 31.78125 6.390625 
Q 39.453125 6.390625 43.28125 13.890625 
Q 47.125 21.390625 47.125 36.375 
Q 47.125 51.421875 43.28125 58.90625 
Q 39.453125 66.40625 31.78125 66.40625 
z
M 31.78125 74.21875 
Q 44.046875 74.21875 50.515625 64.515625 
Q 56.984375 54.828125 56.984375 36.375 
Q 56.984375 17.96875 50.515625 8.265625 
Q 44.046875 -1.421875 31.78125 -1.421875 
Q 19.53125 -1.421875 13.0625 8.265625 
Q 6.59375 17.96875 6.59375 36.375 
Q 6.59375 54.828125 13.0625 64.515625 
Q 19.53125 74.21875 31.78125 74.21875 
z
" id="DejaVuSans-48"/>
      </defs>
      <g transform="translate(37.421875 254.356562)scale(0.1 -0.1)">
       <use xlink:href="#DejaVuSans-48"/>
      </g>
     </g>
    </g>
    <g id="xtick_2">
     <g id="line2d_2">
      <g>
       <use style="stroke:#000000;stroke-width:0.8;" x="106.250184" xlink:href="#m25053e5241" y="239.758125"/>
      </g>
     </g>
     <g id="text_2">
      <!-- 10 -->
      <defs>
       <path d="M 12.40625 8.296875 
L 28.515625 8.296875 
L 28.515625 63.921875 
L 10.984375 60.40625 
L 10.984375 69.390625 
L 28.421875 72.90625 
L 38.28125 72.90625 
L 38.28125 8.296875 
L 54.390625 8.296875 
L 54.390625 0 
L 12.40625 0 
z
" id="DejaVuSans-49"/>
      </defs>
      <g transform="translate(99.887684 254.356562)scale(0.1 -0.1)">
       <use xlink:href="#DejaVuSans-49"/>
       <use x="63.623047" xlink:href="#DejaVuSans-48"/>
      </g>
     </g>
    </g>
    <g id="xtick_3">
     <g id="line2d_3">
      <g>
       <use style="stroke:#000000;stroke-width:0.8;" x="171.897243" xlink:href="#m25053e5241" y="239.758125"/>
      </g>
     </g>
     <g id="text_3">
      <!-- 20 -->
      <defs>
       <path d="M 19.1875 8.296875 
L 53.609375 8.296875 
L 53.609375 0 
L 7.328125 0 
L 7.328125 8.296875 
Q 12.9375 14.109375 22.625 23.890625 
Q 32.328125 33.6875 34.8125 36.53125 
Q 39.546875 41.84375 41.421875 45.53125 
Q 43.3125 49.21875 43.3125 52.78125 
Q 43.3125 58.59375 39.234375 62.25 
Q 35.15625 65.921875 28.609375 65.921875 
Q 23.96875 65.921875 18.8125 64.3125 
Q 13.671875 62.703125 7.8125 59.421875 
L 7.8125 69.390625 
Q 13.765625 71.78125 18.9375 73 
Q 24.125 74.21875 28.421875 74.21875 
Q 39.75 74.21875 46.484375 68.546875 
Q 53.21875 62.890625 53.21875 53.421875 
Q 53.21875 48.921875 51.53125 44.890625 
Q 49.859375 40.875 45.40625 35.40625 
Q 44.1875 33.984375 37.640625 27.21875 
Q 31.109375 20.453125 19.1875 8.296875 
z
" id="DejaVuSans-50"/>
      </defs>
      <g transform="translate(165.534743 254.356562)scale(0.1 -0.1)">
       <use xlink:href="#DejaVuSans-50"/>
       <use x="63.623047" xlink:href="#DejaVuSans-48"/>
      </g>
     </g>
    </g>
    <g id="xtick_4">
     <g id="line2d_4">
      <g>
       <use style="stroke:#000000;stroke-width:0.8;" x="237.544301" xlink:href="#m25053e5241" y="239.758125"/>
      </g>
     </g>
     <g id="text_4">
      <!-- 30 -->
      <defs>
       <path d="M 40.578125 39.3125 
Q 47.65625 37.796875 51.625 33 
Q 55.609375 28.21875 55.609375 21.1875 
Q 55.609375 10.40625 48.1875 4.484375 
Q 40.765625 -1.421875 27.09375 -1.421875 
Q 22.515625 -1.421875 17.65625 -0.515625 
Q 12.796875 0.390625 7.625 2.203125 
L 7.625 11.71875 
Q 11.71875 9.328125 16.59375 8.109375 
Q 21.484375 6.890625 26.8125 6.890625 
Q 36.078125 6.890625 40.9375 10.546875 
Q 45.796875 14.203125 45.796875 21.1875 
Q 45.796875 27.640625 41.28125 31.265625 
Q 36.765625 34.90625 28.71875 34.90625 
L 20.21875 34.90625 
L 20.21875 43.015625 
L 29.109375 43.015625 
Q 36.375 43.015625 40.234375 45.921875 
Q 44.09375 48.828125 44.09375 54.296875 
Q 44.09375 59.90625 40.109375 62.90625 
Q 36.140625 65.921875 28.71875 65.921875 
Q 24.65625 65.921875 20.015625 65.03125 
Q 15.375 64.15625 9.8125 62.3125 
L 9.8125 71.09375 
Q 15.4375 72.65625 20.34375 73.4375 
Q 25.25 74.21875 29.59375 74.21875 
Q 40.828125 74.21875 47.359375 69.109375 
Q 53.90625 64.015625 53.90625 55.328125 
Q 53.90625 49.265625 50.4375 45.09375 
Q 46.96875 40.921875 40.578125 39.3125 
z
" id="DejaVuSans-51"/>
      </defs>
      <g transform="translate(231.181801 254.356562)scale(0.1 -0.1)">
       <use xlink:href="#DejaVuSans-51"/>
       <use x="63.623047" xlink:href="#DejaVuSans-48"/>
      </g>
     </g>
    </g>
    <g id="xtick_5">
     <g id="line2d_5">
      <g>
       <use style="stroke:#000000;stroke-width:0.8;" x="303.19136" xlink:href="#m25053e5241" y="239.758125"/>
      </g>
     </g>
     <g id="text_5">
      <!-- 40 -->
      <defs>
       <path d="M 37.796875 64.3125 
L 12.890625 25.390625 
L 37.796875 25.390625 
z
M 35.203125 72.90625 
L 47.609375 72.90625 
L 47.609375 25.390625 
L 58.015625 25.390625 
L 58.015625 17.1875 
L 47.609375 17.1875 
L 47.609375 0 
L 37.796875 0 
L 37.796875 17.1875 
L 4.890625 17.1875 
L 4.890625 26.703125 
z
" id="DejaVuSans-52"/>
      </defs>
      <g transform="translate(296.82886 254.356562)scale(0.1 -0.1)">
       <use xlink:href="#DejaVuSans-52"/>
       <use x="63.623047" xlink:href="#DejaVuSans-48"/>
      </g>
     </g>
    </g>
    <g id="xtick_6">
     <g id="line2d_6">
      <g>
       <use style="stroke:#000000;stroke-width:0.8;" x="368.838419" xlink:href="#m25053e5241" y="239.758125"/>
      </g>
     </g>
     <g id="text_6">
      <!-- 50 -->
      <defs>
       <path d="M 10.796875 72.90625 
L 49.515625 72.90625 
L 49.515625 64.59375 
L 19.828125 64.59375 
L 19.828125 46.734375 
Q 21.96875 47.46875 24.109375 47.828125 
Q 26.265625 48.1875 28.421875 48.1875 
Q 40.625 48.1875 47.75 41.5 
Q 54.890625 34.8125 54.890625 23.390625 
Q 54.890625 11.625 47.5625 5.09375 
Q 40.234375 -1.421875 26.90625 -1.421875 
Q 22.3125 -1.421875 17.546875 -0.640625 
Q 12.796875 0.140625 7.71875 1.703125 
L 7.71875 11.625 
Q 12.109375 9.234375 16.796875 8.0625 
Q 21.484375 6.890625 26.703125 6.890625 
Q 35.15625 6.890625 40.078125 11.328125 
Q 45.015625 15.765625 45.015625 23.390625 
Q 45.015625 31 40.078125 35.4375 
Q 35.15625 39.890625 26.703125 39.890625 
Q 22.75 39.890625 18.8125 39.015625 
Q 14.890625 38.140625 10.796875 36.28125 
z
" id="DejaVuSans-53"/>
      </defs>
      <g transform="translate(362.475919 254.356562)scale(0.1 -0.1)">
       <use xlink:href="#DejaVuSans-53"/>
       <use x="63.623047" xlink:href="#DejaVuSans-48"/>
      </g>
     </g>
    </g>
    <g id="text_7">
     <!-- Expected -->
     <defs>
      <path d="M 9.8125 72.90625 
L 55.90625 72.90625 
L 55.90625 64.59375 
L 19.671875 64.59375 
L 19.671875 43.015625 
L 54.390625 43.015625 
L 54.390625 34.71875 
L 19.671875 34.71875 
L 19.671875 8.296875 
L 56.78125 8.296875 
L 56.78125 0 
L 9.8125 0 
z
" id="DejaVuSans-69"/>
      <path d="M 54.890625 54.6875 
L 35.109375 28.078125 
L 55.90625 0 
L 45.3125 0 
L 29.390625 21.484375 
L 13.484375 0 
L 2.875 0 
L 24.125 28.609375 
L 4.6875 54.6875 
L 15.28125 54.6875 
L 29.78125 35.203125 
L 44.28125 54.6875 
z
" id="DejaVuSans-120"/>
      <path d="M 18.109375 8.203125 
L 18.109375 -20.796875 
L 9.078125 -20.796875 
L 9.078125 54.6875 
L 18.109375 54.6875 
L 18.109375 46.390625 
Q 20.953125 51.265625 25.265625 53.625 
Q 29.59375 56 35.59375 56 
Q 45.5625 56 51.78125 48.09375 
Q 58.015625 40.1875 58.015625 27.296875 
Q 58.015625 14.40625 51.78125 6.484375 
Q 45.5625 -1.421875 35.59375 -1.421875 
Q 29.59375 -1.421875 25.265625 0.953125 
Q 20.953125 3.328125 18.109375 8.203125 
z
M 48.6875 27.296875 
Q 48.6875 37.203125 44.609375 42.84375 
Q 40.53125 48.484375 33.40625 48.484375 
Q 26.265625 48.484375 22.1875 42.84375 
Q 18.109375 37.203125 18.109375 27.296875 
Q 18.109375 17.390625 22.1875 11.75 
Q 26.265625 6.109375 33.40625 6.109375 
Q 40.53125 6.109375 44.609375 11.75 
Q 48.6875 17.390625 48.6875 27.296875 
z
" id="DejaVuSans-112"/>
      <path d="M 56.203125 29.59375 
L 56.203125 25.203125 
L 14.890625 25.203125 
Q 15.484375 15.921875 20.484375 11.0625 
Q 25.484375 6.203125 34.421875 6.203125 
Q 39.59375 6.203125 44.453125 7.46875 
Q 49.3125 8.734375 54.109375 11.28125 
L 54.109375 2.78125 
Q 49.265625 0.734375 44.1875 -0.34375 
Q 39.109375 -1.421875 33.890625 -1.421875 
Q 20.796875 -1.421875 13.15625 6.1875 
Q 5.515625 13.8125 5.515625 26.8125 
Q 5.515625 40.234375 12.765625 48.109375 
Q 20.015625 56 32.328125 56 
Q 43.359375 56 49.78125 48.890625 
Q 56.203125 41.796875 56.203125 29.59375 
z
M 47.21875 32.234375 
Q 47.125 39.59375 43.09375 43.984375 
Q 39.0625 48.390625 32.421875 48.390625 
Q 24.90625 48.390625 20.390625 44.140625 
Q 15.875 39.890625 15.1875 32.171875 
z
" id="DejaVuSans-101"/>
      <path d="M 48.78125 52.59375 
L 48.78125 44.1875 
Q 44.96875 46.296875 41.140625 47.34375 
Q 37.3125 48.390625 33.40625 48.390625 
Q 24.65625 48.390625 19.8125 42.84375 
Q 14.984375 37.3125 14.984375 27.296875 
Q 14.984375 17.28125 19.8125 11.734375 
Q 24.65625 6.203125 33.40625 6.203125 
Q 37.3125 6.203125 41.140625 7.25 
Q 44.96875 8.296875 48.78125 10.40625 
L 48.78125 2.09375 
Q 45.015625 0.34375 40.984375 -0.53125 
Q 36.96875 -1.421875 32.421875 -1.421875 
Q 20.0625 -1.421875 12.78125 6.34375 
Q 5.515625 14.109375 5.515625 27.296875 
Q 5.515625 40.671875 12.859375 48.328125 
Q 20.21875 56 33.015625 56 
Q 37.15625 56 41.109375 55.140625 
Q 45.0625 54.296875 48.78125 52.59375 
z
" id="DejaVuSans-99"/>
      <path d="M 18.3125 70.21875 
L 18.3125 54.6875 
L 36.8125 54.6875 
L 36.8125 47.703125 
L 18.3125 47.703125 
L 18.3125 18.015625 
Q 18.3125 11.328125 20.140625 9.421875 
Q 21.96875 7.515625 27.59375 7.515625 
L 36.8125 7.515625 
L 36.8125 0 
L 27.59375 0 
Q 17.1875 0 13.234375 3.875 
Q 9.28125 7.765625 9.28125 18.015625 
L 9.28125 47.703125 
L 2.6875 47.703125 
L 2.6875 54.6875 
L 9.28125 54.6875 
L 9.28125 70.21875 
z
" id="DejaVuSans-116"/>
      <path d="M 45.40625 46.390625 
L 45.40625 75.984375 
L 54.390625 75.984375 
L 54.390625 0 
L 45.40625 0 
L 45.40625 8.203125 
Q 42.578125 3.328125 38.25 0.953125 
Q 33.9375 -1.421875 27.875 -1.421875 
Q 17.96875 -1.421875 11.734375 6.484375 
Q 5.515625 14.40625 5.515625 27.296875 
Q 5.515625 40.1875 11.734375 48.09375 
Q 17.96875 56 27.875 56 
Q 33.9375 56 38.25 53.625 
Q 42.578125 51.265625 45.40625 46.390625 
z
M 14.796875 27.296875 
Q 14.796875 17.390625 18.875 11.75 
Q 22.953125 6.109375 30.078125 6.109375 
Q 37.203125 6.109375 41.296875 11.75 
Q 45.40625 17.390625 45.40625 27.296875 
Q 45.40625 37.203125 41.296875 42.84375 
Q 37.203125 48.484375 30.078125 48.484375 
Q 22.953125 48.484375 18.875 42.84375 
Q 14.796875 37.203125 14.796875 27.296875 
z
" id="DejaVuSans-100"/>
     </defs>
     <g transform="translate(184.673437 268.034687)scale(0.1 -0.1)">
      <use xlink:href="#DejaVuSans-69"/>
      <use x="63.183594" xlink:href="#DejaVuSans-120"/>
      <use x="122.363281" xlink:href="#DejaVuSans-112"/>
      <use x="185.839844" xlink:href="#DejaVuSans-101"/>
      <use x="247.363281" xlink:href="#DejaVuSans-99"/>
      <use x="302.34375" xlink:href="#DejaVuSans-116"/>
      <use x="341.552734" xlink:href="#DejaVuSans-101"/>
      <use x="403.076172" xlink:href="#DejaVuSans-100"/>
     </g>
    </g>
   </g>
   <g id="matplotlib.axis_2">
    <g id="ytick_1">
     <g id="line2d_7">
      <defs>
       <path d="M 0 0 
L -3.5 0 
" id="mb2f43c9b77" style="stroke:#000000;stroke-width:0.8;"/>
      </defs>
      <g>
       <use style="stroke:#000000;stroke-width:0.8;" x="40.603125" xlink:href="#mb2f43c9b77" y="207.326143"/>
      </g>
     </g>
     <g id="text_8">
      <!-- 15 -->
      <g transform="translate(20.878125 211.125362)scale(0.1 -0.1)">
       <use xlink:href="#DejaVuSans-49"/>
       <use x="63.623047" xlink:href="#DejaVuSans-53"/>
      </g>
     </g>
    </g>
    <g id="ytick_2">
     <g id="line2d_8">
      <g>
       <use style="stroke:#000000;stroke-width:0.8;" x="40.603125" xlink:href="#mb2f43c9b77" y="164.230869"/>
      </g>
     </g>
     <g id="text_9">
      <!-- 20 -->
      <g transform="translate(20.878125 168.030087)scale(0.1 -0.1)">
       <use xlink:href="#DejaVuSans-50"/>
       <use x="63.623047" xlink:href="#DejaVuSans-48"/>
      </g>
     </g>
    </g>
    <g id="ytick_3">
     <g id="line2d_9">
      <g>
       <use style="stroke:#000000;stroke-width:0.8;" x="40.603125" xlink:href="#mb2f43c9b77" y="121.135594"/>
      </g>
     </g>
     <g id="text_10">
      <!-- 25 -->
      <g transform="translate(20.878125 124.934813)scale(0.1 -0.1)">
       <use xlink:href="#DejaVuSans-50"/>
       <use x="63.623047" xlink:href="#DejaVuSans-53"/>
      </g>
     </g>
    </g>
    <g id="ytick_4">
     <g id="line2d_10">
      <g>
       <use style="stroke:#000000;stroke-width:0.8;" x="40.603125" xlink:href="#mb2f43c9b77" y="78.040319"/>
      </g>
     </g>
     <g id="text_11">
      <!-- 30 -->
      <g transform="translate(20.878125 81.839538)scale(0.1 -0.1)">
       <use xlink:href="#DejaVuSans-51"/>
       <use x="63.623047" xlink:href="#DejaVuSans-48"/>
      </g>
     </g>
    </g>
    <g id="ytick_5">
     <g id="line2d_11">
      <g>
       <use style="stroke:#000000;stroke-width:0.8;" x="40.603125" xlink:href="#mb2f43c9b77" y="34.945045"/>
      </g>
     </g>
     <g id="text_12">
      <!-- 35 -->
      <g transform="translate(20.878125 38.744264)scale(0.1 -0.1)">
       <use xlink:href="#DejaVuSans-51"/>
       <use x="63.623047" xlink:href="#DejaVuSans-53"/>
      </g>
     </g>
    </g>
    <g id="text_13">
     <!-- Predicted -->
     <defs>
      <path d="M 19.671875 64.796875 
L 19.671875 37.40625 
L 32.078125 37.40625 
Q 38.96875 37.40625 42.71875 40.96875 
Q 46.484375 44.53125 46.484375 51.125 
Q 46.484375 57.671875 42.71875 61.234375 
Q 38.96875 64.796875 32.078125 64.796875 
z
M 9.8125 72.90625 
L 32.078125 72.90625 
Q 44.34375 72.90625 50.609375 67.359375 
Q 56.890625 61.8125 56.890625 51.125 
Q 56.890625 40.328125 50.609375 34.8125 
Q 44.34375 29.296875 32.078125 29.296875 
L 19.671875 29.296875 
L 19.671875 0 
L 9.8125 0 
z
" id="DejaVuSans-80"/>
      <path d="M 41.109375 46.296875 
Q 39.59375 47.171875 37.8125 47.578125 
Q 36.03125 48 33.890625 48 
Q 26.265625 48 22.1875 43.046875 
Q 18.109375 38.09375 18.109375 28.8125 
L 18.109375 0 
L 9.078125 0 
L 9.078125 54.6875 
L 18.109375 54.6875 
L 18.109375 46.1875 
Q 20.953125 51.171875 25.484375 53.578125 
Q 30.03125 56 36.53125 56 
Q 37.453125 56 38.578125 55.875 
Q 39.703125 55.765625 41.0625 55.515625 
z
" id="DejaVuSans-114"/>
      <path d="M 9.421875 54.6875 
L 18.40625 54.6875 
L 18.40625 0 
L 9.421875 0 
z
M 9.421875 75.984375 
L 18.40625 75.984375 
L 18.40625 64.59375 
L 9.421875 64.59375 
z
" id="DejaVuSans-105"/>
     </defs>
     <g transform="translate(14.798438 154.508437)rotate(-90)scale(0.1 -0.1)">
      <use xlink:href="#DejaVuSans-80"/>
      <use x="58.552734" xlink:href="#DejaVuSans-114"/>
      <use x="97.416016" xlink:href="#DejaVuSans-101"/>
      <use x="158.939453" xlink:href="#DejaVuSans-100"/>
      <use x="222.416016" xlink:href="#DejaVuSans-105"/>
      <use x="250.199219" xlink:href="#DejaVuSans-99"/>
      <use x="305.179688" xlink:href="#DejaVuSans-116"/>
      <use x="344.388672" xlink:href="#DejaVuSans-101"/>
      <use x="405.912109" xlink:href="#DejaVuSans-100"/>
     </g>
    </g>
   </g>
   <g id="line2d_12">
    <path clip-path="url(#p9c147696bc)" d="M 40.603125 162.236154 
L 43.984943 161.69048 
L 47.366761 161.144806 
L 50.74858 160.599132 
L 54.130398 160.053459 
L 57.512216 159.507785 
L 60.894034 158.962111 
L 64.275852 158.416437 
L 67.65767 157.870764 
L 71.039489 157.32509 
L 74.421307 156.779416 
L 77.803125 156.233742 
L 81.184943 155.688068 
L 84.566761 155.142395 
L 87.94858 154.596721 
L 91.330398 154.051047 
L 94.712216 153.505373 
L 98.094034 152.9597 
L 101.475852 152.414026 
L 104.85767 151.868352 
L 108.239489 151.322678 
L 111.621307 150.777005 
L 115.003125 150.231331 
L 118.384943 149.685657 
L 121.766761 149.139983 
L 125.14858 148.594309 
L 128.530398 148.048636 
L 131.912216 147.502962 
L 135.294034 146.957288 
L 138.675852 146.411614 
L 142.05767 145.865941 
L 145.439489 145.320267 
L 148.821307 144.774593 
L 152.203125 144.228919 
L 155.584943 143.683246 
L 158.966761 143.137572 
L 162.34858 142.591898 
L 165.730398 142.046224 
L 169.112216 141.50055 
L 172.494034 140.954877 
L 175.875852 140.409203 
L 179.25767 139.863529 
L 182.639489 139.317855 
L 186.021307 138.772182 
L 189.403125 138.226508 
L 192.784943 137.680834 
L 196.166761 137.13516 
L 199.54858 136.589487 
L 202.930398 136.043813 
L 206.312216 135.498139 
L 209.694034 134.952465 
L 213.075852 134.406791 
L 216.45767 133.861118 
L 219.839489 133.315444 
L 223.221307 132.76977 
L 226.603125 132.224096 
L 229.984943 131.678423 
L 233.366761 131.132749 
L 236.74858 130.587075 
L 240.130398 130.041401 
L 243.512216 129.495728 
L 246.894034 128.950054 
L 250.275852 128.40438 
L 253.65767 127.858706 
L 257.039489 127.313032 
L 260.421307 126.767359 
L 263.803125 126.221685 
L 267.184943 125.676011 
L 270.566761 125.130337 
L 273.94858 124.584664 
L 277.330398 124.03899 
L 280.712216 123.493316 
L 284.094034 122.947642 
L 287.475852 122.401969 
L 290.85767 121.856295 
L 294.239489 121.310621 
L 297.621307 120.764947 
L 301.003125 120.219273 
L 304.384943 119.6736 
L 307.766761 119.127926 
L 311.14858 118.582252 
L 314.530398 118.036578 
L 317.912216 117.490905 
L 321.294034 116.945231 
L 324.675852 116.399557 
L 328.05767 115.853883 
L 331.439489 115.308209 
L 334.821307 114.762536 
L 338.203125 114.216862 
L 341.584943 113.671188 
L 344.966761 113.125514 
L 348.34858 112.579841 
L 351.730398 112.034167 
L 355.112216 111.488493 
L 358.494034 110.942819 
L 361.875852 110.397146 
L 365.25767 109.851472 
L 368.639489 109.305798 
L 372.021307 108.760124 
L 375.403125 108.21445 
" style="fill:none;stroke:#1f77b4;stroke-linecap:square;stroke-width:2.25;"/>
   </g>
   <g id="patch_3">
    <path d="M 40.603125 239.758125 
L 40.603125 22.318125 
" style="fill:none;stroke:#000000;stroke-linecap:square;stroke-linejoin:miter;stroke-width:0.8;"/>
   </g>
   <g id="patch_4">
    <path d="M 375.403125 239.758125 
L 375.403125 22.318125 
" style="fill:none;stroke:#000000;stroke-linecap:square;stroke-linejoin:miter;stroke-width:0.8;"/>
   </g>
   <g id="patch_5">
    <path d="M 40.603125 239.758125 
L 375.403125 239.758125 
" style="fill:none;stroke:#000000;stroke-linecap:square;stroke-linejoin:miter;stroke-width:0.8;"/>
   </g>
   <g id="patch_6">
    <path d="M 40.603125 22.318125 
L 375.403125 22.318125 
" style="fill:none;stroke:#000000;stroke-linecap:square;stroke-linejoin:miter;stroke-width:0.8;"/>
   </g>
   <g id="text_14">
    <!-- Predicted Score vs. Expected Score -->
    <defs>
     <path id="DejaVuSans-32"/>
     <path d="M 53.515625 70.515625 
L 53.515625 60.890625 
Q 47.90625 63.578125 42.921875 64.890625 
Q 37.9375 66.21875 33.296875 66.21875 
Q 25.25 66.21875 20.875 63.09375 
Q 16.5 59.96875 16.5 54.203125 
Q 16.5 49.359375 19.40625 46.890625 
Q 22.3125 44.4375 30.421875 42.921875 
L 36.375 41.703125 
Q 47.40625 39.59375 52.65625 34.296875 
Q 57.90625 29 57.90625 20.125 
Q 57.90625 9.515625 50.796875 4.046875 
Q 43.703125 -1.421875 29.984375 -1.421875 
Q 24.8125 -1.421875 18.96875 -0.25 
Q 13.140625 0.921875 6.890625 3.21875 
L 6.890625 13.375 
Q 12.890625 10.015625 18.65625 8.296875 
Q 24.421875 6.59375 29.984375 6.59375 
Q 38.421875 6.59375 43.015625 9.90625 
Q 47.609375 13.234375 47.609375 19.390625 
Q 47.609375 24.75 44.3125 27.78125 
Q 41.015625 30.8125 33.5 32.328125 
L 27.484375 33.5 
Q 16.453125 35.6875 11.515625 40.375 
Q 6.59375 45.0625 6.59375 53.421875 
Q 6.59375 63.09375 13.40625 68.65625 
Q 20.21875 74.21875 32.171875 74.21875 
Q 37.3125 74.21875 42.625 73.28125 
Q 47.953125 72.359375 53.515625 70.515625 
z
" id="DejaVuSans-83"/>
     <path d="M 30.609375 48.390625 
Q 23.390625 48.390625 19.1875 42.75 
Q 14.984375 37.109375 14.984375 27.296875 
Q 14.984375 17.484375 19.15625 11.84375 
Q 23.34375 6.203125 30.609375 6.203125 
Q 37.796875 6.203125 41.984375 11.859375 
Q 46.1875 17.53125 46.1875 27.296875 
Q 46.1875 37.015625 41.984375 42.703125 
Q 37.796875 48.390625 30.609375 48.390625 
z
M 30.609375 56 
Q 42.328125 56 49.015625 48.375 
Q 55.71875 40.765625 55.71875 27.296875 
Q 55.71875 13.875 49.015625 6.21875 
Q 42.328125 -1.421875 30.609375 -1.421875 
Q 18.84375 -1.421875 12.171875 6.21875 
Q 5.515625 13.875 5.515625 27.296875 
Q 5.515625 40.765625 12.171875 48.375 
Q 18.84375 56 30.609375 56 
z
" id="DejaVuSans-111"/>
     <path d="M 2.984375 54.6875 
L 12.5 54.6875 
L 29.59375 8.796875 
L 46.6875 54.6875 
L 56.203125 54.6875 
L 35.6875 0 
L 23.484375 0 
z
" id="DejaVuSans-118"/>
     <path d="M 44.28125 53.078125 
L 44.28125 44.578125 
Q 40.484375 46.53125 36.375 47.5 
Q 32.28125 48.484375 27.875 48.484375 
Q 21.1875 48.484375 17.84375 46.4375 
Q 14.5 44.390625 14.5 40.28125 
Q 14.5 37.15625 16.890625 35.375 
Q 19.28125 33.59375 26.515625 31.984375 
L 29.59375 31.296875 
Q 39.15625 29.25 43.1875 25.515625 
Q 47.21875 21.78125 47.21875 15.09375 
Q 47.21875 7.46875 41.1875 3.015625 
Q 35.15625 -1.421875 24.609375 -1.421875 
Q 20.21875 -1.421875 15.453125 -0.5625 
Q 10.6875 0.296875 5.421875 2 
L 5.421875 11.28125 
Q 10.40625 8.6875 15.234375 7.390625 
Q 20.0625 6.109375 24.8125 6.109375 
Q 31.15625 6.109375 34.5625 8.28125 
Q 37.984375 10.453125 37.984375 14.40625 
Q 37.984375 18.0625 35.515625 20.015625 
Q 33.0625 21.96875 24.703125 23.78125 
L 21.578125 24.515625 
Q 13.234375 26.265625 9.515625 29.90625 
Q 5.8125 33.546875 5.8125 39.890625 
Q 5.8125 47.609375 11.28125 51.796875 
Q 16.75 56 26.8125 56 
Q 31.78125 56 36.171875 55.265625 
Q 40.578125 54.546875 44.28125 53.078125 
z
" id="DejaVuSans-115"/>
     <path d="M 10.6875 12.40625 
L 21 12.40625 
L 21 0 
L 10.6875 0 
z
" id="DejaVuSans-46"/>
    </defs>
    <g transform="translate(102.02625 16.318125)scale(0.12 -0.12)">
     <use xlink:href="#DejaVuSans-80"/>
     <use x="58.552734" xlink:href="#DejaVuSans-114"/>
     <use x="97.416016" xlink:href="#DejaVuSans-101"/>
     <use x="158.939453" xlink:href="#DejaVuSans-100"/>
     <use x="222.416016" xlink:href="#DejaVuSans-105"/>
     <use x="250.199219" xlink:href="#DejaVuSans-99"/>
     <use x="305.179688" xlink:href="#DejaVuSans-116"/>
     <use x="344.388672" xlink:href="#DejaVuSans-101"/>
     <use x="405.912109" xlink:href="#DejaVuSans-100"/>
     <use x="469.388672" xlink:href="#DejaVuSans-32"/>
     <use x="501.175781" xlink:href="#DejaVuSans-83"/>
     <use x="564.652344" xlink:href="#DejaVuSans-99"/>
     <use x="619.632812" xlink:href="#DejaVuSans-111"/>
     <use x="680.814453" xlink:href="#DejaVuSans-114"/>
     <use x="719.677734" xlink:href="#DejaVuSans-101"/>
     <use x="781.201172" xlink:href="#DejaVuSans-32"/>
     <use x="812.988281" xlink:href="#DejaVuSans-118"/>
     <use x="872.167969" xlink:href="#DejaVuSans-115"/>
     <use x="924.267578" xlink:href="#DejaVuSans-46"/>
     <use x="956.054688" xlink:href="#DejaVuSans-32"/>
     <use x="987.841797" xlink:href="#DejaVuSans-69"/>
     <use x="1051.025391" xlink:href="#DejaVuSans-120"/>
     <use x="1110.205078" xlink:href="#DejaVuSans-112"/>
     <use x="1173.681641" xlink:href="#DejaVuSans-101"/>
     <use x="1235.205078" xlink:href="#DejaVuSans-99"/>
     <use x="1290.185547" xlink:href="#DejaVuSans-116"/>
     <use x="1329.394531" xlink:href="#DejaVuSans-101"/>
     <use x="1390.917969" xlink:href="#DejaVuSans-100"/>
     <use x="1454.394531" xlink:href="#DejaVuSans-32"/>
     <use x="1486.181641" xlink:href="#DejaVuSans-83"/>
     <use x="1549.658203" xlink:href="#DejaVuSans-99"/>
     <use x="1604.638672" xlink:href="#DejaVuSans-111"/>
     <use x="1665.820312" xlink:href="#DejaVuSans-114"/>
     <use x="1704.683594" xlink:href="#DejaVuSans-101"/>
    </g>
   </g>
  </g>
 </g>
 <defs>
  <clipPath id="p9c147696bc">
   <rect height="217.44" width="334.8" x="40.603125" y="22.318125"/>
  </clipPath>
 </defs>
</svg>
