<?xml version="1.0" encoding="utf-8" standalone="no"?>
<!DOCTYPE svg PUBLIC "-//W3C//DTD SVG 1.1//EN"
  "http://www.w3.org/Graphics/SVG/1.1/DTD/svg11.dtd">
<!-- Created with matplotlib (https://matplotlib.org/) -->
<svg height="277.314375pt" version="1.1" viewBox="0 0 390.464463 277.314375" width="390.464463pt" xmlns="http://www.w3.org/2000/svg" xmlns:xlink="http://www.w3.org/1999/xlink">
 <defs>
  <style type="text/css">
*{stroke-linecap:butt;stroke-linejoin:round;}
  </style>
 </defs>
 <g id="figure_1">
  <g id="patch_1">
   <path d="M 0 277.314375 
L 390.464463 277.314375 
L 390.464463 0 
L 0 0 
z
" style="fill:none;"/>
  </g>
  <g id="axes_1">
   <g id="patch_2">
    <path d="M 40.603125 239.758125 
L 375.403125 239.758125 
L 375.403125 22.318125 
L 40.603125 22.318125 
z
" style="fill:#ffffff;"/>
   </g>
   <g id="PathCollection_1">
    <defs>
     <path d="M 0 3 
C 0.795609 3 1.55874 2.683901 2.12132 2.12132 
C 2.683901 1.55874 3 0.795609 3 0 
C 3 -0.795609 2.683901 -1.55874 2.12132 -2.12132 
C 1.55874 -2.683901 0.795609 -3 0 -3 
C -0.795609 -3 -1.55874 -2.683901 -2.12132 -2.12132 
C -2.683901 -1.55874 -3 -0.795609 -3 0 
C -3 0.795609 -2.683901 1.55874 -2.12132 2.12132 
C -1.55874 2.683901 -0.795609 3 0 3 
z
" id="m092e4cfb86" style="stroke:#1f77b4;stroke-opacity:0.8;"/>
    </defs>
    <g clip-path="url(#p4e1b4926cb)">
     <use style="fill:#1f77b4;fill-opacity:0.8;stroke:#1f77b4;stroke-opacity:0.8;" x="375.403125" xlink:href="#m092e4cfb86" y="229.874489"/>
     <use style="fill:#1f77b4;fill-opacity:0.8;stroke:#1f77b4;stroke-opacity:0.8;" x="213.891567" xlink:href="#m092e4cfb86" y="63.979117"/>
     <use style="fill:#1f77b4;fill-opacity:0.8;stroke:#1f77b4;stroke-opacity:0.8;" x="180.243326" xlink:href="#m092e4cfb86" y="107.256171"/>
     <use style="fill:#1f77b4;fill-opacity:0.8;stroke:#1f77b4;stroke-opacity:0.8;" x="348.484532" xlink:href="#m092e4cfb86" y="56.766275"/>
     <use style="fill:#1f77b4;fill-opacity:0.8;stroke:#1f77b4;stroke-opacity:0.8;" x="234.080512" xlink:href="#m092e4cfb86" y="85.617644"/>
     <use style="fill:#1f77b4;fill-opacity:0.8;stroke:#1f77b4;stroke-opacity:0.8;" x="133.135788" xlink:href="#m092e4cfb86" y="78.404802"/>
     <use style="fill:#1f77b4;fill-opacity:0.8;stroke:#1f77b4;stroke-opacity:0.8;" x="308.106643" xlink:href="#m092e4cfb86" y="56.766275"/>
     <use style="fill:#1f77b4;fill-opacity:0.8;stroke:#1f77b4;stroke-opacity:0.8;" x="218.938803" xlink:href="#m092e4cfb86" y="63.979117"/>
     <use style="fill:#1f77b4;fill-opacity:0.8;stroke:#1f77b4;stroke-opacity:0.8;" x="299.694582" xlink:href="#m092e4cfb86" y="128.894697"/>
     <use style="fill:#1f77b4;fill-opacity:0.8;stroke:#1f77b4;stroke-opacity:0.8;" x="210.526743" xlink:href="#m092e4cfb86" y="201.02312"/>
     <use style="fill:#1f77b4;fill-opacity:0.8;stroke:#1f77b4;stroke-opacity:0.8;" x="212.209155" xlink:href="#m092e4cfb86" y="136.10754"/>
     <use style="fill:#1f77b4;fill-opacity:0.8;stroke:#1f77b4;stroke-opacity:0.8;" x="245.857396" xlink:href="#m092e4cfb86" y="107.256171"/>
     <use style="fill:#1f77b4;fill-opacity:0.8;stroke:#1f77b4;stroke-opacity:0.8;" x="138.183024" xlink:href="#m092e4cfb86" y="85.617644"/>
     <use style="fill:#1f77b4;fill-opacity:0.8;stroke:#1f77b4;stroke-opacity:0.8;" x="210.526743" xlink:href="#m092e4cfb86" y="179.384593"/>
     <use style="fill:#1f77b4;fill-opacity:0.8;stroke:#1f77b4;stroke-opacity:0.8;" x="222.303628" xlink:href="#m092e4cfb86" y="179.384593"/>
     <use style="fill:#1f77b4;fill-opacity:0.8;stroke:#1f77b4;stroke-opacity:0.8;" x="40.603125" xlink:href="#m092e4cfb86" y="179.384593"/>
    </g>
   </g>
   <g id="PolyCollection_1">
    <path clip-path="url(#p4e1b4926cb)" d="M 40.603125 32.201761 
L 40.603125 193.043763 
L 43.984943 191.753276 
L 47.366761 190.388402 
L 50.74858 189.060963 
L 54.130398 187.731079 
L 57.512216 186.398566 
L 60.894034 185.065731 
L 64.275852 183.732896 
L 67.65767 182.400062 
L 71.039489 181.067227 
L 74.421307 179.734392 
L 77.803125 178.401557 
L 81.184943 177.068723 
L 84.566761 175.735888 
L 87.94858 174.403053 
L 91.330398 173.687481 
L 94.712216 172.986552 
L 98.094034 172.285623 
L 101.475852 171.060666 
L 104.85767 169.782386 
L 108.239489 168.699634 
L 111.621307 167.415334 
L 115.003125 166.131035 
L 118.384943 164.91572 
L 121.766761 164.447908 
L 125.14858 163.35052 
L 128.530398 161.836013 
L 131.912216 161.138338 
L 135.294034 160.706829 
L 138.675852 159.309609 
L 142.05767 157.91239 
L 145.439489 157.3097 
L 148.821307 156.465894 
L 152.203125 155.313935 
L 155.584943 154.590686 
L 158.966761 153.855186 
L 162.34858 153.520583 
L 165.730398 152.165196 
L 169.112216 151.870123 
L 172.494034 151.340998 
L 175.875852 150.965119 
L 179.25767 149.717974 
L 182.639489 148.355246 
L 186.021307 147.764279 
L 189.403125 147.589395 
L 192.784943 147.481495 
L 196.166761 147.700118 
L 199.54858 147.44629 
L 202.930398 147.766354 
L 206.312216 147.819065 
L 209.694034 147.49601 
L 213.075852 147.513088 
L 216.45767 147.496996 
L 219.839489 147.561404 
L 223.221307 147.867576 
L 226.603125 147.925284 
L 229.984943 148.271944 
L 233.366761 148.795618 
L 236.74858 148.644927 
L 240.130398 149.325379 
L 243.512216 149.6168 
L 246.894034 150.420584 
L 250.275852 151.2279 
L 253.65767 152.123282 
L 257.039489 152.854636 
L 260.421307 153.717911 
L 263.803125 155.285723 
L 267.184943 156.128739 
L 270.566761 157.803114 
L 273.94858 158.924869 
L 277.330398 160.036197 
L 280.712216 160.827172 
L 284.094034 161.557992 
L 287.475852 162.411985 
L 290.85767 163.535738 
L 294.239489 164.377675 
L 297.621307 165.186892 
L 301.003125 166.287671 
L 304.384943 167.941159 
L 307.766761 168.761773 
L 311.14858 170.644091 
L 314.530398 171.71066 
L 317.912216 172.511417 
L 321.294034 173.699202 
L 324.675852 175.101289 
L 328.05767 176.145487 
L 331.439489 177.654126 
L 334.821307 178.212293 
L 338.203125 179.338654 
L 341.584943 180.683573 
L 344.966761 182.201024 
L 348.34858 183.563113 
L 351.730398 184.935387 
L 355.112216 186.358673 
L 358.494034 187.654474 
L 361.875852 188.782652 
L 365.25767 190.359524 
L 368.639489 192.010748 
L 372.021307 193.519627 
L 375.403125 194.958246 
L 375.403125 47.57583 
L 375.403125 47.57583 
L 372.021307 48.727442 
L 368.639489 49.883347 
L 365.25767 51.045368 
L 361.875852 52.29294 
L 358.494034 53.63598 
L 355.112216 54.974175 
L 351.730398 56.353097 
L 348.34858 57.470592 
L 344.966761 58.401473 
L 341.584943 59.587629 
L 338.203125 60.857394 
L 334.821307 61.861272 
L 331.439489 62.819081 
L 328.05767 63.778484 
L 324.675852 65.895847 
L 321.294034 67.158419 
L 317.912216 68.438569 
L 314.530398 69.711486 
L 311.14858 70.967739 
L 307.766761 72.223992 
L 304.384943 73.059423 
L 301.003125 73.919383 
L 297.621307 75.205943 
L 294.239489 77.003644 
L 290.85767 78.106956 
L 287.475852 78.976454 
L 284.094034 79.853702 
L 280.712216 80.452145 
L 277.330398 81.47955 
L 273.94858 82.478191 
L 270.566761 83.351109 
L 267.184943 84.510621 
L 263.803125 85.5741 
L 260.421307 86.213933 
L 257.039489 86.988533 
L 253.65767 87.741026 
L 250.275852 88.842715 
L 246.894034 89.94952 
L 243.512216 90.573199 
L 240.130398 91.033544 
L 236.74858 91.42747 
L 233.366761 92.093872 
L 229.984943 93.189064 
L 226.603125 93.704725 
L 223.221307 94.153878 
L 219.839489 94.818186 
L 216.45767 95.040388 
L 213.075852 95.103005 
L 209.694034 95.670017 
L 206.312216 95.969879 
L 202.930398 95.382338 
L 199.54858 95.322809 
L 196.166761 94.837357 
L 192.784943 94.25502 
L 189.403125 93.233188 
L 186.021307 93.139123 
L 182.639489 92.735246 
L 179.25767 92.193134 
L 175.875852 91.190051 
L 172.494034 90.433814 
L 169.112216 88.766275 
L 165.730398 87.82163 
L 162.34858 86.863065 
L 158.966761 85.193777 
L 155.584943 83.315092 
L 152.203125 82.079605 
L 148.821307 81.558921 
L 145.439489 80.285081 
L 142.05767 78.957188 
L 138.675852 77.390021 
L 135.294034 75.715986 
L 131.912216 74.176149 
L 128.530398 72.457738 
L 125.14858 70.74648 
L 121.766761 69.046236 
L 118.384943 67.331636 
L 115.003125 65.798581 
L 111.621307 64.713501 
L 108.239489 63.542049 
L 104.85767 62.024243 
L 101.475852 60.507819 
L 98.094034 58.991395 
L 94.712216 57.133166 
L 91.330398 55.217288 
L 87.94858 53.411089 
L 84.566761 51.945896 
L 81.184943 50.480702 
L 77.803125 48.622981 
L 74.421307 46.759158 
L 71.039489 45.478475 
L 67.65767 44.19925 
L 64.275852 42.854685 
L 60.894034 41.2047 
L 57.512216 39.554714 
L 54.130398 37.904998 
L 50.74858 36.258865 
L 47.366761 34.674578 
L 43.984943 33.434996 
L 40.603125 32.201761 
z
" style="fill:#1f77b4;fill-opacity:0.15;"/>
   </g>
   <g id="matplotlib.axis_1">
    <g id="xtick_1">
     <g id="line2d_1">
      <defs>
       <path d="M 0 0 
L 0 3.5 
" id="m0e05274576" style="stroke:#000000;stroke-width:0.8;"/>
      </defs>
      <g>
       <use style="stroke:#000000;stroke-width:0.8;" x="79.298602" xlink:href="#m0e05274576" y="239.758125"/>
      </g>
     </g>
     <g id="text_1">
      <!-- 100 -->
      <defs>
       <path d="M 12.40625 8.296875 
L 28.515625 8.296875 
L 28.515625 63.921875 
L 10.984375 60.40625 
L 10.984375 69.390625 
L 28.421875 72.90625 
L 38.28125 72.90625 
L 38.28125 8.296875 
L 54.390625 8.296875 
L 54.390625 0 
L 12.40625 0 
z
" id="DejaVuSans-49"/>
       <path d="M 31.78125 66.40625 
Q 24.171875 66.40625 20.328125 58.90625 
Q 16.5 51.421875 16.5 36.375 
Q 16.5 21.390625 20.328125 13.890625 
Q 24.171875 6.390625 31.78125 6.390625 
Q 39.453125 6.390625 43.28125 13.890625 
Q 47.125 21.390625 47.125 36.375 
Q 47.125 51.421875 43.28125 58.90625 
Q 39.453125 66.40625 31.78125 66.40625 
z
M 31.78125 74.21875 
Q 44.046875 74.21875 50.515625 64.515625 
Q 56.984375 54.828125 56.984375 36.375 
Q 56.984375 17.96875 50.515625 8.265625 
Q 44.046875 -1.421875 31.78125 -1.421875 
Q 19.53125 -1.421875 13.0625 8.265625 
Q 6.59375 17.96875 6.59375 36.375 
Q 6.59375 54.828125 13.0625 64.515625 
Q 19.53125 74.21875 31.78125 74.21875 
z
" id="DejaVuSans-48"/>
      </defs>
      <g transform="translate(69.754852 254.356562)scale(0.1 -0.1)">
       <use xlink:href="#DejaVuSans-49"/>
       <use x="63.623047" xlink:href="#DejaVuSans-48"/>
       <use x="127.246094" xlink:href="#DejaVuSans-48"/>
      </g>
     </g>
    </g>
    <g id="xtick_2">
     <g id="line2d_2">
      <g>
       <use style="stroke:#000000;stroke-width:0.8;" x="121.358904" xlink:href="#m0e05274576" y="239.758125"/>
      </g>
     </g>
     <g id="text_2">
      <!-- 125 -->
      <defs>
       <path d="M 19.1875 8.296875 
L 53.609375 8.296875 
L 53.609375 0 
L 7.328125 0 
L 7.328125 8.296875 
Q 12.9375 14.109375 22.625 23.890625 
Q 32.328125 33.6875 34.8125 36.53125 
Q 39.546875 41.84375 41.421875 45.53125 
Q 43.3125 49.21875 43.3125 52.78125 
Q 43.3125 58.59375 39.234375 62.25 
Q 35.15625 65.921875 28.609375 65.921875 
Q 23.96875 65.921875 18.8125 64.3125 
Q 13.671875 62.703125 7.8125 59.421875 
L 7.8125 69.390625 
Q 13.765625 71.78125 18.9375 73 
Q 24.125 74.21875 28.421875 74.21875 
Q 39.75 74.21875 46.484375 68.546875 
Q 53.21875 62.890625 53.21875 53.421875 
Q 53.21875 48.921875 51.53125 44.890625 
Q 49.859375 40.875 45.40625 35.40625 
Q 44.1875 33.984375 37.640625 27.21875 
Q 31.109375 20.453125 19.1875 8.296875 
z
" id="DejaVuSans-50"/>
       <path d="M 10.796875 72.90625 
L 49.515625 72.90625 
L 49.515625 64.59375 
L 19.828125 64.59375 
L 19.828125 46.734375 
Q 21.96875 47.46875 24.109375 47.828125 
Q 26.265625 48.1875 28.421875 48.1875 
Q 40.625 48.1875 47.75 41.5 
Q 54.890625 34.8125 54.890625 23.390625 
Q 54.890625 11.625 47.5625 5.09375 
Q 40.234375 -1.421875 26.90625 -1.421875 
Q 22.3125 -1.421875 17.546875 -0.640625 
Q 12.796875 0.140625 7.71875 1.703125 
L 7.71875 11.625 
Q 12.109375 9.234375 16.796875 8.0625 
Q 21.484375 6.890625 26.703125 6.890625 
Q 35.15625 6.890625 40.078125 11.328125 
Q 45.015625 15.765625 45.015625 23.390625 
Q 45.015625 31 40.078125 35.4375 
Q 35.15625 39.890625 26.703125 39.890625 
Q 22.75 39.890625 18.8125 39.015625 
Q 14.890625 38.140625 10.796875 36.28125 
z
" id="DejaVuSans-53"/>
      </defs>
      <g transform="translate(111.815154 254.356562)scale(0.1 -0.1)">
       <use xlink:href="#DejaVuSans-49"/>
       <use x="63.623047" xlink:href="#DejaVuSans-50"/>
       <use x="127.246094" xlink:href="#DejaVuSans-53"/>
      </g>
     </g>
    </g>
    <g id="xtick_3">
     <g id="line2d_3">
      <g>
       <use style="stroke:#000000;stroke-width:0.8;" x="163.419205" xlink:href="#m0e05274576" y="239.758125"/>
      </g>
     </g>
     <g id="text_3">
      <!-- 150 -->
      <g transform="translate(153.875455 254.356562)scale(0.1 -0.1)">
       <use xlink:href="#DejaVuSans-49"/>
       <use x="63.623047" xlink:href="#DejaVuSans-53"/>
       <use x="127.246094" xlink:href="#DejaVuSans-48"/>
      </g>
     </g>
    </g>
    <g id="xtick_4">
     <g id="line2d_4">
      <g>
       <use style="stroke:#000000;stroke-width:0.8;" x="205.479507" xlink:href="#m0e05274576" y="239.758125"/>
      </g>
     </g>
     <g id="text_4">
      <!-- 175 -->
      <defs>
       <path d="M 8.203125 72.90625 
L 55.078125 72.90625 
L 55.078125 68.703125 
L 28.609375 0 
L 18.3125 0 
L 43.21875 64.59375 
L 8.203125 64.59375 
z
" id="DejaVuSans-55"/>
      </defs>
      <g transform="translate(195.935757 254.356562)scale(0.1 -0.1)">
       <use xlink:href="#DejaVuSans-49"/>
       <use x="63.623047" xlink:href="#DejaVuSans-55"/>
       <use x="127.246094" xlink:href="#DejaVuSans-53"/>
      </g>
     </g>
    </g>
    <g id="xtick_5">
     <g id="line2d_5">
      <g>
       <use style="stroke:#000000;stroke-width:0.8;" x="247.539808" xlink:href="#m0e05274576" y="239.758125"/>
      </g>
     </g>
     <g id="text_5">
      <!-- 200 -->
      <g transform="translate(237.996058 254.356562)scale(0.1 -0.1)">
       <use xlink:href="#DejaVuSans-50"/>
       <use x="63.623047" xlink:href="#DejaVuSans-48"/>
       <use x="127.246094" xlink:href="#DejaVuSans-48"/>
      </g>
     </g>
    </g>
    <g id="xtick_6">
     <g id="line2d_6">
      <g>
       <use style="stroke:#000000;stroke-width:0.8;" x="289.60011" xlink:href="#m0e05274576" y="239.758125"/>
      </g>
     </g>
     <g id="text_6">
      <!-- 225 -->
      <g transform="translate(280.05636 254.356562)scale(0.1 -0.1)">
       <use xlink:href="#DejaVuSans-50"/>
       <use x="63.623047" xlink:href="#DejaVuSans-50"/>
       <use x="127.246094" xlink:href="#DejaVuSans-53"/>
      </g>
     </g>
    </g>
    <g id="xtick_7">
     <g id="line2d_7">
      <g>
       <use style="stroke:#000000;stroke-width:0.8;" x="331.660411" xlink:href="#m0e05274576" y="239.758125"/>
      </g>
     </g>
     <g id="text_7">
      <!-- 250 -->
      <g transform="translate(322.116661 254.356562)scale(0.1 -0.1)">
       <use xlink:href="#DejaVuSans-50"/>
       <use x="63.623047" xlink:href="#DejaVuSans-53"/>
       <use x="127.246094" xlink:href="#DejaVuSans-48"/>
      </g>
     </g>
    </g>
    <g id="xtick_8">
     <g id="line2d_8">
      <g>
       <use style="stroke:#000000;stroke-width:0.8;" x="373.720713" xlink:href="#m0e05274576" y="239.758125"/>
      </g>
     </g>
     <g id="text_8">
      <!-- 275 -->
      <g transform="translate(364.176963 254.356562)scale(0.1 -0.1)">
       <use xlink:href="#DejaVuSans-50"/>
       <use x="63.623047" xlink:href="#DejaVuSans-55"/>
       <use x="127.246094" xlink:href="#DejaVuSans-53"/>
      </g>
     </g>
    </g>
    <g id="text_9">
     <!-- PassY -->
     <defs>
      <path d="M 19.671875 64.796875 
L 19.671875 37.40625 
L 32.078125 37.40625 
Q 38.96875 37.40625 42.71875 40.96875 
Q 46.484375 44.53125 46.484375 51.125 
Q 46.484375 57.671875 42.71875 61.234375 
Q 38.96875 64.796875 32.078125 64.796875 
z
M 9.8125 72.90625 
L 32.078125 72.90625 
Q 44.34375 72.90625 50.609375 67.359375 
Q 56.890625 61.8125 56.890625 51.125 
Q 56.890625 40.328125 50.609375 34.8125 
Q 44.34375 29.296875 32.078125 29.296875 
L 19.671875 29.296875 
L 19.671875 0 
L 9.8125 0 
z
" id="DejaVuSans-80"/>
      <path d="M 34.28125 27.484375 
Q 23.390625 27.484375 19.1875 25 
Q 14.984375 22.515625 14.984375 16.5 
Q 14.984375 11.71875 18.140625 8.90625 
Q 21.296875 6.109375 26.703125 6.109375 
Q 34.1875 6.109375 38.703125 11.40625 
Q 43.21875 16.703125 43.21875 25.484375 
L 43.21875 27.484375 
z
M 52.203125 31.203125 
L 52.203125 0 
L 43.21875 0 
L 43.21875 8.296875 
Q 40.140625 3.328125 35.546875 0.953125 
Q 30.953125 -1.421875 24.3125 -1.421875 
Q 15.921875 -1.421875 10.953125 3.296875 
Q 6 8.015625 6 15.921875 
Q 6 25.140625 12.171875 29.828125 
Q 18.359375 34.515625 30.609375 34.515625 
L 43.21875 34.515625 
L 43.21875 35.40625 
Q 43.21875 41.609375 39.140625 45 
Q 35.0625 48.390625 27.6875 48.390625 
Q 23 48.390625 18.546875 47.265625 
Q 14.109375 46.140625 10.015625 43.890625 
L 10.015625 52.203125 
Q 14.9375 54.109375 19.578125 55.046875 
Q 24.21875 56 28.609375 56 
Q 40.484375 56 46.34375 49.84375 
Q 52.203125 43.703125 52.203125 31.203125 
z
" id="DejaVuSans-97"/>
      <path d="M 44.28125 53.078125 
L 44.28125 44.578125 
Q 40.484375 46.53125 36.375 47.5 
Q 32.28125 48.484375 27.875 48.484375 
Q 21.1875 48.484375 17.84375 46.4375 
Q 14.5 44.390625 14.5 40.28125 
Q 14.5 37.15625 16.890625 35.375 
Q 19.28125 33.59375 26.515625 31.984375 
L 29.59375 31.296875 
Q 39.15625 29.25 43.1875 25.515625 
Q 47.21875 21.78125 47.21875 15.09375 
Q 47.21875 7.46875 41.1875 3.015625 
Q 35.15625 -1.421875 24.609375 -1.421875 
Q 20.21875 -1.421875 15.453125 -0.5625 
Q 10.6875 0.296875 5.421875 2 
L 5.421875 11.28125 
Q 10.40625 8.6875 15.234375 7.390625 
Q 20.0625 6.109375 24.8125 6.109375 
Q 31.15625 6.109375 34.5625 8.28125 
Q 37.984375 10.453125 37.984375 14.40625 
Q 37.984375 18.0625 35.515625 20.015625 
Q 33.0625 21.96875 24.703125 23.78125 
L 21.578125 24.515625 
Q 13.234375 26.265625 9.515625 29.90625 
Q 5.8125 33.546875 5.8125 39.890625 
Q 5.8125 47.609375 11.28125 51.796875 
Q 16.75 56 26.8125 56 
Q 31.78125 56 36.171875 55.265625 
Q 40.578125 54.546875 44.28125 53.078125 
z
" id="DejaVuSans-115"/>
      <path d="M -0.203125 72.90625 
L 10.40625 72.90625 
L 30.609375 42.921875 
L 50.6875 72.90625 
L 61.28125 72.90625 
L 35.5 34.71875 
L 35.5 0 
L 25.59375 0 
L 25.59375 34.71875 
z
" id="DejaVuSans-89"/>
     </defs>
     <g transform="translate(193.885937 268.034687)scale(0.1 -0.1)">
      <use xlink:href="#DejaVuSans-80"/>
      <use x="55.802734" xlink:href="#DejaVuSans-97"/>
      <use x="117.082031" xlink:href="#DejaVuSans-115"/>
      <use x="169.181641" xlink:href="#DejaVuSans-115"/>
      <use x="221.28125" xlink:href="#DejaVuSans-89"/>
     </g>
    </g>
   </g>
   <g id="matplotlib.axis_2">
    <g id="ytick_1">
     <g id="line2d_9">
      <defs>
       <path d="M 0 0 
L -3.5 0 
" id="m3a8e73b8ea" style="stroke:#000000;stroke-width:0.8;"/>
      </defs>
      <g>
       <use style="stroke:#000000;stroke-width:0.8;" x="40.603125" xlink:href="#m3a8e73b8ea" y="215.448804"/>
      </g>
     </g>
     <g id="text_10">
      <!-- 5 -->
      <g transform="translate(27.240625 219.248023)scale(0.1 -0.1)">
       <use xlink:href="#DejaVuSans-53"/>
      </g>
     </g>
    </g>
    <g id="ytick_2">
     <g id="line2d_10">
      <g>
       <use style="stroke:#000000;stroke-width:0.8;" x="40.603125" xlink:href="#m3a8e73b8ea" y="179.384593"/>
      </g>
     </g>
     <g id="text_11">
      <!-- 10 -->
      <g transform="translate(20.878125 183.183812)scale(0.1 -0.1)">
       <use xlink:href="#DejaVuSans-49"/>
       <use x="63.623047" xlink:href="#DejaVuSans-48"/>
      </g>
     </g>
    </g>
    <g id="ytick_3">
     <g id="line2d_11">
      <g>
       <use style="stroke:#000000;stroke-width:0.8;" x="40.603125" xlink:href="#m3a8e73b8ea" y="143.320382"/>
      </g>
     </g>
     <g id="text_12">
      <!-- 15 -->
      <g transform="translate(20.878125 147.119601)scale(0.1 -0.1)">
       <use xlink:href="#DejaVuSans-49"/>
       <use x="63.623047" xlink:href="#DejaVuSans-53"/>
      </g>
     </g>
    </g>
    <g id="ytick_4">
     <g id="line2d_12">
      <g>
       <use style="stroke:#000000;stroke-width:0.8;" x="40.603125" xlink:href="#m3a8e73b8ea" y="107.256171"/>
      </g>
     </g>
     <g id="text_13">
      <!-- 20 -->
      <g transform="translate(20.878125 111.05539)scale(0.1 -0.1)">
       <use xlink:href="#DejaVuSans-50"/>
       <use x="63.623047" xlink:href="#DejaVuSans-48"/>
      </g>
     </g>
    </g>
    <g id="ytick_5">
     <g id="line2d_13">
      <g>
       <use style="stroke:#000000;stroke-width:0.8;" x="40.603125" xlink:href="#m3a8e73b8ea" y="71.19196"/>
      </g>
     </g>
     <g id="text_14">
      <!-- 25 -->
      <g transform="translate(20.878125 74.991178)scale(0.1 -0.1)">
       <use xlink:href="#DejaVuSans-50"/>
       <use x="63.623047" xlink:href="#DejaVuSans-53"/>
      </g>
     </g>
    </g>
    <g id="ytick_6">
     <g id="line2d_14">
      <g>
       <use style="stroke:#000000;stroke-width:0.8;" x="40.603125" xlink:href="#m3a8e73b8ea" y="35.127748"/>
      </g>
     </g>
     <g id="text_15">
      <!-- 30 -->
      <defs>
       <path d="M 40.578125 39.3125 
Q 47.65625 37.796875 51.625 33 
Q 55.609375 28.21875 55.609375 21.1875 
Q 55.609375 10.40625 48.1875 4.484375 
Q 40.765625 -1.421875 27.09375 -1.421875 
Q 22.515625 -1.421875 17.65625 -0.515625 
Q 12.796875 0.390625 7.625 2.203125 
L 7.625 11.71875 
Q 11.71875 9.328125 16.59375 8.109375 
Q 21.484375 6.890625 26.8125 6.890625 
Q 36.078125 6.890625 40.9375 10.546875 
Q 45.796875 14.203125 45.796875 21.1875 
Q 45.796875 27.640625 41.28125 31.265625 
Q 36.765625 34.90625 28.71875 34.90625 
L 20.21875 34.90625 
L 20.21875 43.015625 
L 29.109375 43.015625 
Q 36.375 43.015625 40.234375 45.921875 
Q 44.09375 48.828125 44.09375 54.296875 
Q 44.09375 59.90625 40.109375 62.90625 
Q 36.140625 65.921875 28.71875 65.921875 
Q 24.65625 65.921875 20.015625 65.03125 
Q 15.375 64.15625 9.8125 62.3125 
L 9.8125 71.09375 
Q 15.4375 72.65625 20.34375 73.4375 
Q 25.25 74.21875 29.59375 74.21875 
Q 40.828125 74.21875 47.359375 69.109375 
Q 53.90625 64.015625 53.90625 55.328125 
Q 53.90625 49.265625 50.4375 45.09375 
Q 46.96875 40.921875 40.578125 39.3125 
z
" id="DejaVuSans-51"/>
      </defs>
      <g transform="translate(20.878125 38.926967)scale(0.1 -0.1)">
       <use xlink:href="#DejaVuSans-51"/>
       <use x="63.623047" xlink:href="#DejaVuSans-48"/>
      </g>
     </g>
    </g>
    <g id="text_16">
     <!-- ScoredPoints -->
     <defs>
      <path d="M 53.515625 70.515625 
L 53.515625 60.890625 
Q 47.90625 63.578125 42.921875 64.890625 
Q 37.9375 66.21875 33.296875 66.21875 
Q 25.25 66.21875 20.875 63.09375 
Q 16.5 59.96875 16.5 54.203125 
Q 16.5 49.359375 19.40625 46.890625 
Q 22.3125 44.4375 30.421875 42.921875 
L 36.375 41.703125 
Q 47.40625 39.59375 52.65625 34.296875 
Q 57.90625 29 57.90625 20.125 
Q 57.90625 9.515625 50.796875 4.046875 
Q 43.703125 -1.421875 29.984375 -1.421875 
Q 24.8125 -1.421875 18.96875 -0.25 
Q 13.140625 0.921875 6.890625 3.21875 
L 6.890625 13.375 
Q 12.890625 10.015625 18.65625 8.296875 
Q 24.421875 6.59375 29.984375 6.59375 
Q 38.421875 6.59375 43.015625 9.90625 
Q 47.609375 13.234375 47.609375 19.390625 
Q 47.609375 24.75 44.3125 27.78125 
Q 41.015625 30.8125 33.5 32.328125 
L 27.484375 33.5 
Q 16.453125 35.6875 11.515625 40.375 
Q 6.59375 45.0625 6.59375 53.421875 
Q 6.59375 63.09375 13.40625 68.65625 
Q 20.21875 74.21875 32.171875 74.21875 
Q 37.3125 74.21875 42.625 73.28125 
Q 47.953125 72.359375 53.515625 70.515625 
z
" id="DejaVuSans-83"/>
      <path d="M 48.78125 52.59375 
L 48.78125 44.1875 
Q 44.96875 46.296875 41.140625 47.34375 
Q 37.3125 48.390625 33.40625 48.390625 
Q 24.65625 48.390625 19.8125 42.84375 
Q 14.984375 37.3125 14.984375 27.296875 
Q 14.984375 17.28125 19.8125 11.734375 
Q 24.65625 6.203125 33.40625 6.203125 
Q 37.3125 6.203125 41.140625 7.25 
Q 44.96875 8.296875 48.78125 10.40625 
L 48.78125 2.09375 
Q 45.015625 0.34375 40.984375 -0.53125 
Q 36.96875 -1.421875 32.421875 -1.421875 
Q 20.0625 -1.421875 12.78125 6.34375 
Q 5.515625 14.109375 5.515625 27.296875 
Q 5.515625 40.671875 12.859375 48.328125 
Q 20.21875 56 33.015625 56 
Q 37.15625 56 41.109375 55.140625 
Q 45.0625 54.296875 48.78125 52.59375 
z
" id="DejaVuSans-99"/>
      <path d="M 30.609375 48.390625 
Q 23.390625 48.390625 19.1875 42.75 
Q 14.984375 37.109375 14.984375 27.296875 
Q 14.984375 17.484375 19.15625 11.84375 
Q 23.34375 6.203125 30.609375 6.203125 
Q 37.796875 6.203125 41.984375 11.859375 
Q 46.1875 17.53125 46.1875 27.296875 
Q 46.1875 37.015625 41.984375 42.703125 
Q 37.796875 48.390625 30.609375 48.390625 
z
M 30.609375 56 
Q 42.328125 56 49.015625 48.375 
Q 55.71875 40.765625 55.71875 27.296875 
Q 55.71875 13.875 49.015625 6.21875 
Q 42.328125 -1.421875 30.609375 -1.421875 
Q 18.84375 -1.421875 12.171875 6.21875 
Q 5.515625 13.875 5.515625 27.296875 
Q 5.515625 40.765625 12.171875 48.375 
Q 18.84375 56 30.609375 56 
z
" id="DejaVuSans-111"/>
      <path d="M 41.109375 46.296875 
Q 39.59375 47.171875 37.8125 47.578125 
Q 36.03125 48 33.890625 48 
Q 26.265625 48 22.1875 43.046875 
Q 18.109375 38.09375 18.109375 28.8125 
L 18.109375 0 
L 9.078125 0 
L 9.078125 54.6875 
L 18.109375 54.6875 
L 18.109375 46.1875 
Q 20.953125 51.171875 25.484375 53.578125 
Q 30.03125 56 36.53125 56 
Q 37.453125 56 38.578125 55.875 
Q 39.703125 55.765625 41.0625 55.515625 
z
" id="DejaVuSans-114"/>
      <path d="M 56.203125 29.59375 
L 56.203125 25.203125 
L 14.890625 25.203125 
Q 15.484375 15.921875 20.484375 11.0625 
Q 25.484375 6.203125 34.421875 6.203125 
Q 39.59375 6.203125 44.453125 7.46875 
Q 49.3125 8.734375 54.109375 11.28125 
L 54.109375 2.78125 
Q 49.265625 0.734375 44.1875 -0.34375 
Q 39.109375 -1.421875 33.890625 -1.421875 
Q 20.796875 -1.421875 13.15625 6.1875 
Q 5.515625 13.8125 5.515625 26.8125 
Q 5.515625 40.234375 12.765625 48.109375 
Q 20.015625 56 32.328125 56 
Q 43.359375 56 49.78125 48.890625 
Q 56.203125 41.796875 56.203125 29.59375 
z
M 47.21875 32.234375 
Q 47.125 39.59375 43.09375 43.984375 
Q 39.0625 48.390625 32.421875 48.390625 
Q 24.90625 48.390625 20.390625 44.140625 
Q 15.875 39.890625 15.1875 32.171875 
z
" id="DejaVuSans-101"/>
      <path d="M 45.40625 46.390625 
L 45.40625 75.984375 
L 54.390625 75.984375 
L 54.390625 0 
L 45.40625 0 
L 45.40625 8.203125 
Q 42.578125 3.328125 38.25 0.953125 
Q 33.9375 -1.421875 27.875 -1.421875 
Q 17.96875 -1.421875 11.734375 6.484375 
Q 5.515625 14.40625 5.515625 27.296875 
Q 5.515625 40.1875 11.734375 48.09375 
Q 17.96875 56 27.875 56 
Q 33.9375 56 38.25 53.625 
Q 42.578125 51.265625 45.40625 46.390625 
z
M 14.796875 27.296875 
Q 14.796875 17.390625 18.875 11.75 
Q 22.953125 6.109375 30.078125 6.109375 
Q 37.203125 6.109375 41.296875 11.75 
Q 45.40625 17.390625 45.40625 27.296875 
Q 45.40625 37.203125 41.296875 42.84375 
Q 37.203125 48.484375 30.078125 48.484375 
Q 22.953125 48.484375 18.875 42.84375 
Q 14.796875 37.203125 14.796875 27.296875 
z
" id="DejaVuSans-100"/>
      <path d="M 9.421875 54.6875 
L 18.40625 54.6875 
L 18.40625 0 
L 9.421875 0 
z
M 9.421875 75.984375 
L 18.40625 75.984375 
L 18.40625 64.59375 
L 9.421875 64.59375 
z
" id="DejaVuSans-105"/>
      <path d="M 54.890625 33.015625 
L 54.890625 0 
L 45.90625 0 
L 45.90625 32.71875 
Q 45.90625 40.484375 42.875 44.328125 
Q 39.84375 48.1875 33.796875 48.1875 
Q 26.515625 48.1875 22.3125 43.546875 
Q 18.109375 38.921875 18.109375 30.90625 
L 18.109375 0 
L 9.078125 0 
L 9.078125 54.6875 
L 18.109375 54.6875 
L 18.109375 46.1875 
Q 21.34375 51.125 25.703125 53.5625 
Q 30.078125 56 35.796875 56 
Q 45.21875 56 50.046875 50.171875 
Q 54.890625 44.34375 54.890625 33.015625 
z
" id="DejaVuSans-110"/>
      <path d="M 18.3125 70.21875 
L 18.3125 54.6875 
L 36.8125 54.6875 
L 36.8125 47.703125 
L 18.3125 47.703125 
L 18.3125 18.015625 
Q 18.3125 11.328125 20.140625 9.421875 
Q 21.96875 7.515625 27.59375 7.515625 
L 36.8125 7.515625 
L 36.8125 0 
L 27.59375 0 
Q 17.1875 0 13.234375 3.875 
Q 9.28125 7.765625 9.28125 18.015625 
L 9.28125 47.703125 
L 2.6875 47.703125 
L 2.6875 54.6875 
L 9.28125 54.6875 
L 9.28125 70.21875 
z
" id="DejaVuSans-116"/>
     </defs>
     <g transform="translate(14.798438 163.230312)rotate(-90)scale(0.1 -0.1)">
      <use xlink:href="#DejaVuSans-83"/>
      <use x="63.476562" xlink:href="#DejaVuSans-99"/>
      <use x="118.457031" xlink:href="#DejaVuSans-111"/>
      <use x="179.638672" xlink:href="#DejaVuSans-114"/>
      <use x="218.501953" xlink:href="#DejaVuSans-101"/>
      <use x="280.025391" xlink:href="#DejaVuSans-100"/>
      <use x="343.501953" xlink:href="#DejaVuSans-80"/>
      <use x="400.179688" xlink:href="#DejaVuSans-111"/>
      <use x="461.361328" xlink:href="#DejaVuSans-105"/>
      <use x="489.144531" xlink:href="#DejaVuSans-110"/>
      <use x="552.523438" xlink:href="#DejaVuSans-116"/>
      <use x="591.732422" xlink:href="#DejaVuSans-115"/>
     </g>
    </g>
   </g>
   <g id="line2d_15">
    <path clip-path="url(#p4e1b4926cb)" d="M 40.603125 123.809314 
L 43.984943 123.761903 
L 47.366761 123.714493 
L 50.74858 123.667082 
L 54.130398 123.619672 
L 57.512216 123.572261 
L 60.894034 123.524851 
L 64.275852 123.47744 
L 67.65767 123.430029 
L 71.039489 123.382619 
L 74.421307 123.335208 
L 77.803125 123.287798 
L 81.184943 123.240387 
L 84.566761 123.192977 
L 87.94858 123.145566 
L 91.330398 123.098156 
L 94.712216 123.050745 
L 98.094034 123.003334 
L 101.475852 122.955924 
L 104.85767 122.908513 
L 108.239489 122.861103 
L 111.621307 122.813692 
L 115.003125 122.766282 
L 118.384943 122.718871 
L 121.766761 122.671461 
L 125.14858 122.62405 
L 128.530398 122.57664 
L 131.912216 122.529229 
L 135.294034 122.481818 
L 138.675852 122.434408 
L 142.05767 122.386997 
L 145.439489 122.339587 
L 148.821307 122.292176 
L 152.203125 122.244766 
L 155.584943 122.197355 
L 158.966761 122.149945 
L 162.34858 122.102534 
L 165.730398 122.055124 
L 169.112216 122.007713 
L 172.494034 121.960302 
L 175.875852 121.912892 
L 179.25767 121.865481 
L 182.639489 121.818071 
L 186.021307 121.77066 
L 189.403125 121.72325 
L 192.784943 121.675839 
L 196.166761 121.628429 
L 199.54858 121.581018 
L 202.930398 121.533608 
L 206.312216 121.486197 
L 209.694034 121.438786 
L 213.075852 121.391376 
L 216.45767 121.343965 
L 219.839489 121.296555 
L 223.221307 121.249144 
L 226.603125 121.201734 
L 229.984943 121.154323 
L 233.366761 121.106913 
L 236.74858 121.059502 
L 240.130398 121.012092 
L 243.512216 120.964681 
L 246.894034 120.91727 
L 250.275852 120.86986 
L 253.65767 120.822449 
L 257.039489 120.775039 
L 260.421307 120.727628 
L 263.803125 120.680218 
L 267.184943 120.632807 
L 270.566761 120.585397 
L 273.94858 120.537986 
L 277.330398 120.490575 
L 280.712216 120.443165 
L 284.094034 120.395754 
L 287.475852 120.348344 
L 290.85767 120.300933 
L 294.239489 120.253523 
L 297.621307 120.206112 
L 301.003125 120.158702 
L 304.384943 120.111291 
L 307.766761 120.063881 
L 311.14858 120.01647 
L 314.530398 119.969059 
L 317.912216 119.921649 
L 321.294034 119.874238 
L 324.675852 119.826828 
L 328.05767 119.779417 
L 331.439489 119.732007 
L 334.821307 119.684596 
L 338.203125 119.637186 
L 341.584943 119.589775 
L 344.966761 119.542365 
L 348.34858 119.494954 
L 351.730398 119.447543 
L 355.112216 119.400133 
L 358.494034 119.352722 
L 361.875852 119.305312 
L 365.25767 119.257901 
L 368.639489 119.210491 
L 372.021307 119.16308 
L 375.403125 119.11567 
" style="fill:none;stroke:#1f77b4;stroke-linecap:square;stroke-width:2.25;"/>
   </g>
   <g id="patch_3">
    <path d="M 40.603125 239.758125 
L 40.603125 22.318125 
" style="fill:none;stroke:#000000;stroke-linecap:square;stroke-linejoin:miter;stroke-width:0.8;"/>
   </g>
   <g id="patch_4">
    <path d="M 375.403125 239.758125 
L 375.403125 22.318125 
" style="fill:none;stroke:#000000;stroke-linecap:square;stroke-linejoin:miter;stroke-width:0.8;"/>
   </g>
   <g id="patch_5">
    <path d="M 40.603125 239.758125 
L 375.403125 239.758125 
" style="fill:none;stroke:#000000;stroke-linecap:square;stroke-linejoin:miter;stroke-width:0.8;"/>
   </g>
   <g id="patch_6">
    <path d="M 40.603125 22.318125 
L 375.403125 22.318125 
" style="fill:none;stroke:#000000;stroke-linecap:square;stroke-linejoin:miter;stroke-width:0.8;"/>
   </g>
   <g id="text_17">
    <!-- Steelers -->
    <defs>
     <path d="M 9.421875 75.984375 
L 18.40625 75.984375 
L 18.40625 0 
L 9.421875 0 
z
" id="DejaVuSans-108"/>
    </defs>
    <g transform="translate(183.507187 16.318125)scale(0.12 -0.12)">
     <use xlink:href="#DejaVuSans-83"/>
     <use x="63.476562" xlink:href="#DejaVuSans-116"/>
     <use x="102.685547" xlink:href="#DejaVuSans-101"/>
     <use x="164.208984" xlink:href="#DejaVuSans-101"/>
     <use x="225.732422" xlink:href="#DejaVuSans-108"/>
     <use x="253.515625" xlink:href="#DejaVuSans-101"/>
     <use x="315.039062" xlink:href="#DejaVuSans-114"/>
     <use x="356.152344" xlink:href="#DejaVuSans-115"/>
    </g>
   </g>
  </g>
 </g>
 <defs>
  <clipPath id="p4e1b4926cb">
   <rect height="217.44" width="334.8" x="40.603125" y="22.318125"/>
  </clipPath>
 </defs>
</svg>
