<?xml version="1.0" encoding="utf-8" standalone="no"?>
<!DOCTYPE svg PUBLIC "-//W3C//DTD SVG 1.1//EN"
  "http://www.w3.org/Graphics/SVG/1.1/DTD/svg11.dtd">
<!-- Created with matplotlib (https://matplotlib.org/) -->
<svg height="277.314375pt" version="1.1" viewBox="0 0 390.554688 277.314375" width="390.554688pt" xmlns="http://www.w3.org/2000/svg" xmlns:xlink="http://www.w3.org/1999/xlink">
 <defs>
  <style type="text/css">
*{stroke-linecap:butt;stroke-linejoin:round;}
  </style>
 </defs>
 <g id="figure_1">
  <g id="patch_1">
   <path d="M 0 277.314375 
L 390.554688 277.314375 
L 390.554688 0 
L 0 0 
z
" style="fill:none;"/>
  </g>
  <g id="axes_1">
   <g id="patch_2">
    <path d="M 40.603125 239.758125 
L 375.403125 239.758125 
L 375.403125 22.318125 
L 40.603125 22.318125 
z
" style="fill:#ffffff;"/>
   </g>
   <g id="PathCollection_1">
    <defs>
     <path d="M 0 3 
C 0.795609 3 1.55874 2.683901 2.12132 2.12132 
C 2.683901 1.55874 3 0.795609 3 0 
C 3 -0.795609 2.683901 -1.55874 2.12132 -2.12132 
C 1.55874 -2.683901 0.795609 -3 0 -3 
C -0.795609 -3 -1.55874 -2.683901 -2.12132 -2.12132 
C -2.683901 -1.55874 -3 -0.795609 -3 0 
C -3 0.795609 -2.683901 1.55874 -2.12132 2.12132 
C -1.55874 2.683901 -0.795609 3 0 3 
z
" id="ma169578d69" style="stroke:#1f77b4;stroke-opacity:0.8;"/>
    </defs>
    <g clip-path="url(#paddb6f45fa)">
     <use style="fill:#1f77b4;fill-opacity:0.8;stroke:#1f77b4;stroke-opacity:0.8;" x="208.003125" xlink:href="#ma169578d69" y="133.801851"/>
     <use style="fill:#1f77b4;fill-opacity:0.8;stroke:#1f77b4;stroke-opacity:0.8;" x="124.303125" xlink:href="#ma169578d69" y="109.895948"/>
     <use style="fill:#1f77b4;fill-opacity:0.8;stroke:#1f77b4;stroke-opacity:0.8;" x="40.603125" xlink:href="#ma169578d69" y="68.060617"/>
     <use style="fill:#1f77b4;fill-opacity:0.8;stroke:#1f77b4;stroke-opacity:0.8;" x="208.003125" xlink:href="#ma169578d69" y="133.801851"/>
     <use style="fill:#1f77b4;fill-opacity:0.8;stroke:#1f77b4;stroke-opacity:0.8;" x="291.703125" xlink:href="#ma169578d69" y="193.56661"/>
     <use style="fill:#1f77b4;fill-opacity:0.8;stroke:#1f77b4;stroke-opacity:0.8;" x="40.603125" xlink:href="#ma169578d69" y="68.060617"/>
     <use style="fill:#1f77b4;fill-opacity:0.8;stroke:#1f77b4;stroke-opacity:0.8;" x="40.603125" xlink:href="#ma169578d69" y="193.56661"/>
     <use style="fill:#1f77b4;fill-opacity:0.8;stroke:#1f77b4;stroke-opacity:0.8;" x="375.403125" xlink:href="#ma169578d69" y="199.543085"/>
     <use style="fill:#1f77b4;fill-opacity:0.8;stroke:#1f77b4;stroke-opacity:0.8;" x="40.603125" xlink:href="#ma169578d69" y="68.060617"/>
     <use style="fill:#1f77b4;fill-opacity:0.8;stroke:#1f77b4;stroke-opacity:0.8;" x="40.603125" xlink:href="#ma169578d69" y="115.872423"/>
     <use style="fill:#1f77b4;fill-opacity:0.8;stroke:#1f77b4;stroke-opacity:0.8;" x="40.603125" xlink:href="#ma169578d69" y="32.201761"/>
    </g>
   </g>
   <g id="PolyCollection_1">
    <path clip-path="url(#paddb6f45fa)" d="M 40.603125 56.105967 
L 40.603125 126.518787 
L 43.984943 127.03537 
L 47.366761 127.288784 
L 50.74858 127.301834 
L 54.130398 127.669451 
L 57.512216 128.47186 
L 60.894034 129.300997 
L 64.275852 130.162926 
L 67.65767 130.825716 
L 71.039489 131.217335 
L 74.421307 131.746534 
L 77.803125 132.361334 
L 81.184943 133.006675 
L 84.566761 133.307385 
L 87.94858 133.835336 
L 91.330398 134.363287 
L 94.712216 134.891238 
L 98.094034 135.557244 
L 101.475852 136.34712 
L 104.85767 137.136996 
L 108.239489 137.531058 
L 111.621307 138.286743 
L 115.003125 139.319158 
L 118.384943 139.938316 
L 121.766761 140.621928 
L 125.14858 141.483189 
L 128.530398 142.344449 
L 131.912216 143.202108 
L 135.294034 143.967918 
L 138.675852 144.474497 
L 142.05767 145.093824 
L 145.439489 145.661361 
L 148.821307 146.228899 
L 152.203125 146.910161 
L 155.584943 147.676342 
L 158.966761 148.504635 
L 162.34858 149.299036 
L 165.730398 150.10228 
L 169.112216 150.814031 
L 172.494034 151.405602 
L 175.875852 151.947351 
L 179.25767 153.000588 
L 182.639489 153.58337 
L 186.021307 154.173464 
L 189.403125 154.94346 
L 192.784943 155.977647 
L 196.166761 156.923851 
L 199.54858 157.897009 
L 202.930398 158.603197 
L 206.312216 159.601788 
L 209.694034 160.707699 
L 213.075852 161.283989 
L 216.45767 162.210184 
L 219.839489 163.025829 
L 223.221307 163.976924 
L 226.603125 164.902184 
L 229.984943 166.025394 
L 233.366761 167.288292 
L 236.74858 168.241621 
L 240.130398 169.199175 
L 243.512216 170.176567 
L 246.894034 171.379668 
L 250.275852 172.783048 
L 253.65767 173.98569 
L 257.039489 175.123582 
L 260.421307 176.001549 
L 263.803125 177.321419 
L 267.184943 178.546312 
L 270.566761 180.122584 
L 273.94858 181.796156 
L 277.330398 183.070914 
L 280.712216 184.605806 
L 284.094034 185.916147 
L 287.475852 187.29077 
L 290.85767 188.647963 
L 294.239489 189.975897 
L 297.621307 191.541805 
L 301.003125 193.241368 
L 304.384943 194.960381 
L 307.766761 196.642948 
L 311.14858 198.321228 
L 314.530398 199.821244 
L 317.912216 201.37794 
L 321.294034 203.048501 
L 324.675852 204.733307 
L 328.05767 206.291768 
L 331.439489 207.960336 
L 334.821307 209.77957 
L 338.203125 211.46813 
L 341.584943 212.96412 
L 344.966761 214.700344 
L 348.34858 216.436568 
L 351.730398 218.20521 
L 355.112216 219.888316 
L 358.494034 221.481165 
L 361.875852 223.036439 
L 365.25767 224.61704 
L 368.639489 226.411336 
L 372.021307 228.203318 
L 375.403125 229.874489 
L 375.403125 157.691514 
L 375.403125 157.691514 
L 372.021307 157.112948 
L 368.639489 156.534382 
L 365.25767 155.955816 
L 361.875852 155.37725 
L 358.494034 154.798684 
L 355.112216 154.220119 
L 351.730398 153.641553 
L 348.34858 153.062987 
L 344.966761 152.486488 
L 341.584943 151.910036 
L 338.203125 151.361622 
L 334.821307 150.90242 
L 331.439489 150.443217 
L 328.05767 150.098648 
L 324.675852 150.087245 
L 321.294034 150.075842 
L 317.912216 149.762465 
L 314.530398 149.177825 
L 311.14858 148.593184 
L 307.766761 148.008543 
L 304.384943 147.423903 
L 301.003125 146.839262 
L 297.621307 146.254621 
L 294.239489 145.669981 
L 290.85767 145.08534 
L 287.475852 144.520093 
L 284.094034 144.06068 
L 280.712216 143.601268 
L 277.330398 143.141855 
L 273.94858 142.682443 
L 270.566761 142.22303 
L 267.184943 141.763617 
L 263.803125 141.304205 
L 260.421307 140.673446 
L 257.039489 140.00003 
L 253.65767 139.331449 
L 250.275852 138.662869 
L 246.894034 138.103253 
L 243.512216 137.721423 
L 240.130398 137.346492 
L 236.74858 136.760365 
L 233.366761 136.25602 
L 229.984943 135.92234 
L 226.603125 135.27176 
L 223.221307 134.815997 
L 219.839489 134.17472 
L 216.45767 133.068361 
L 213.075852 132.240429 
L 209.694034 131.466783 
L 206.312216 130.387723 
L 202.930398 129.670818 
L 199.54858 128.524744 
L 196.166761 127.350156 
L 192.784943 126.382206 
L 189.403125 125.194704 
L 186.021307 123.747574 
L 182.639489 122.315594 
L 179.25767 121.01442 
L 175.875852 119.436483 
L 172.494034 117.966454 
L 169.112216 116.449138 
L 165.730398 115.069939 
L 162.34858 113.518826 
L 158.966761 111.904181 
L 155.584943 110.326084 
L 152.203125 108.818751 
L 148.821307 107.331224 
L 145.439489 105.928209 
L 142.05767 104.015775 
L 138.675852 102.505342 
L 135.294034 101.10374 
L 131.912216 99.550366 
L 128.530398 97.843476 
L 125.14858 96.247262 
L 121.766761 94.766551 
L 118.384943 93.28584 
L 115.003125 91.785101 
L 111.621307 90.134888 
L 108.239489 88.481082 
L 104.85767 86.829268 
L 101.475852 85.179946 
L 98.094034 83.530624 
L 94.712216 81.92728 
L 91.330398 80.4159 
L 87.94858 78.945725 
L 84.566761 77.285152 
L 81.184943 75.713528 
L 77.803125 74.14346 
L 74.421307 72.460044 
L 71.039489 70.87755 
L 67.65767 69.156627 
L 64.275852 67.598346 
L 60.894034 65.896126 
L 57.512216 64.372323 
L 54.130398 62.816551 
L 50.74858 61.162826 
L 47.366761 59.5091 
L 43.984943 57.810281 
L 40.603125 56.105967 
z
" style="fill:#1f77b4;fill-opacity:0.15;"/>
   </g>
   <g id="matplotlib.axis_1">
    <g id="xtick_1">
     <g id="line2d_1">
      <defs>
       <path d="M 0 0 
L 0 3.5 
" id="m9cccd9895d" style="stroke:#000000;stroke-width:0.8;"/>
      </defs>
      <g>
       <use style="stroke:#000000;stroke-width:0.8;" x="40.603125" xlink:href="#m9cccd9895d" y="239.758125"/>
      </g>
     </g>
     <g id="text_1">
      <!-- 1.0 -->
      <defs>
       <path d="M 12.40625 8.296875 
L 28.515625 8.296875 
L 28.515625 63.921875 
L 10.984375 60.40625 
L 10.984375 69.390625 
L 28.421875 72.90625 
L 38.28125 72.90625 
L 38.28125 8.296875 
L 54.390625 8.296875 
L 54.390625 0 
L 12.40625 0 
z
" id="DejaVuSans-49"/>
       <path d="M 10.6875 12.40625 
L 21 12.40625 
L 21 0 
L 10.6875 0 
z
" id="DejaVuSans-46"/>
       <path d="M 31.78125 66.40625 
Q 24.171875 66.40625 20.328125 58.90625 
Q 16.5 51.421875 16.5 36.375 
Q 16.5 21.390625 20.328125 13.890625 
Q 24.171875 6.390625 31.78125 6.390625 
Q 39.453125 6.390625 43.28125 13.890625 
Q 47.125 21.390625 47.125 36.375 
Q 47.125 51.421875 43.28125 58.90625 
Q 39.453125 66.40625 31.78125 66.40625 
z
M 31.78125 74.21875 
Q 44.046875 74.21875 50.515625 64.515625 
Q 56.984375 54.828125 56.984375 36.375 
Q 56.984375 17.96875 50.515625 8.265625 
Q 44.046875 -1.421875 31.78125 -1.421875 
Q 19.53125 -1.421875 13.0625 8.265625 
Q 6.59375 17.96875 6.59375 36.375 
Q 6.59375 54.828125 13.0625 64.515625 
Q 19.53125 74.21875 31.78125 74.21875 
z
" id="DejaVuSans-48"/>
      </defs>
      <g transform="translate(32.651563 254.356562)scale(0.1 -0.1)">
       <use xlink:href="#DejaVuSans-49"/>
       <use x="63.623047" xlink:href="#DejaVuSans-46"/>
       <use x="95.410156" xlink:href="#DejaVuSans-48"/>
      </g>
     </g>
    </g>
    <g id="xtick_2">
     <g id="line2d_2">
      <g>
       <use style="stroke:#000000;stroke-width:0.8;" x="82.453125" xlink:href="#m9cccd9895d" y="239.758125"/>
      </g>
     </g>
     <g id="text_2">
      <!-- 1.5 -->
      <defs>
       <path d="M 10.796875 72.90625 
L 49.515625 72.90625 
L 49.515625 64.59375 
L 19.828125 64.59375 
L 19.828125 46.734375 
Q 21.96875 47.46875 24.109375 47.828125 
Q 26.265625 48.1875 28.421875 48.1875 
Q 40.625 48.1875 47.75 41.5 
Q 54.890625 34.8125 54.890625 23.390625 
Q 54.890625 11.625 47.5625 5.09375 
Q 40.234375 -1.421875 26.90625 -1.421875 
Q 22.3125 -1.421875 17.546875 -0.640625 
Q 12.796875 0.140625 7.71875 1.703125 
L 7.71875 11.625 
Q 12.109375 9.234375 16.796875 8.0625 
Q 21.484375 6.890625 26.703125 6.890625 
Q 35.15625 6.890625 40.078125 11.328125 
Q 45.015625 15.765625 45.015625 23.390625 
Q 45.015625 31 40.078125 35.4375 
Q 35.15625 39.890625 26.703125 39.890625 
Q 22.75 39.890625 18.8125 39.015625 
Q 14.890625 38.140625 10.796875 36.28125 
z
" id="DejaVuSans-53"/>
      </defs>
      <g transform="translate(74.501563 254.356562)scale(0.1 -0.1)">
       <use xlink:href="#DejaVuSans-49"/>
       <use x="63.623047" xlink:href="#DejaVuSans-46"/>
       <use x="95.410156" xlink:href="#DejaVuSans-53"/>
      </g>
     </g>
    </g>
    <g id="xtick_3">
     <g id="line2d_3">
      <g>
       <use style="stroke:#000000;stroke-width:0.8;" x="124.303125" xlink:href="#m9cccd9895d" y="239.758125"/>
      </g>
     </g>
     <g id="text_3">
      <!-- 2.0 -->
      <defs>
       <path d="M 19.1875 8.296875 
L 53.609375 8.296875 
L 53.609375 0 
L 7.328125 0 
L 7.328125 8.296875 
Q 12.9375 14.109375 22.625 23.890625 
Q 32.328125 33.6875 34.8125 36.53125 
Q 39.546875 41.84375 41.421875 45.53125 
Q 43.3125 49.21875 43.3125 52.78125 
Q 43.3125 58.59375 39.234375 62.25 
Q 35.15625 65.921875 28.609375 65.921875 
Q 23.96875 65.921875 18.8125 64.3125 
Q 13.671875 62.703125 7.8125 59.421875 
L 7.8125 69.390625 
Q 13.765625 71.78125 18.9375 73 
Q 24.125 74.21875 28.421875 74.21875 
Q 39.75 74.21875 46.484375 68.546875 
Q 53.21875 62.890625 53.21875 53.421875 
Q 53.21875 48.921875 51.53125 44.890625 
Q 49.859375 40.875 45.40625 35.40625 
Q 44.1875 33.984375 37.640625 27.21875 
Q 31.109375 20.453125 19.1875 8.296875 
z
" id="DejaVuSans-50"/>
      </defs>
      <g transform="translate(116.351562 254.356562)scale(0.1 -0.1)">
       <use xlink:href="#DejaVuSans-50"/>
       <use x="63.623047" xlink:href="#DejaVuSans-46"/>
       <use x="95.410156" xlink:href="#DejaVuSans-48"/>
      </g>
     </g>
    </g>
    <g id="xtick_4">
     <g id="line2d_4">
      <g>
       <use style="stroke:#000000;stroke-width:0.8;" x="166.153125" xlink:href="#m9cccd9895d" y="239.758125"/>
      </g>
     </g>
     <g id="text_4">
      <!-- 2.5 -->
      <g transform="translate(158.201562 254.356562)scale(0.1 -0.1)">
       <use xlink:href="#DejaVuSans-50"/>
       <use x="63.623047" xlink:href="#DejaVuSans-46"/>
       <use x="95.410156" xlink:href="#DejaVuSans-53"/>
      </g>
     </g>
    </g>
    <g id="xtick_5">
     <g id="line2d_5">
      <g>
       <use style="stroke:#000000;stroke-width:0.8;" x="208.003125" xlink:href="#m9cccd9895d" y="239.758125"/>
      </g>
     </g>
     <g id="text_5">
      <!-- 3.0 -->
      <defs>
       <path d="M 40.578125 39.3125 
Q 47.65625 37.796875 51.625 33 
Q 55.609375 28.21875 55.609375 21.1875 
Q 55.609375 10.40625 48.1875 4.484375 
Q 40.765625 -1.421875 27.09375 -1.421875 
Q 22.515625 -1.421875 17.65625 -0.515625 
Q 12.796875 0.390625 7.625 2.203125 
L 7.625 11.71875 
Q 11.71875 9.328125 16.59375 8.109375 
Q 21.484375 6.890625 26.8125 6.890625 
Q 36.078125 6.890625 40.9375 10.546875 
Q 45.796875 14.203125 45.796875 21.1875 
Q 45.796875 27.640625 41.28125 31.265625 
Q 36.765625 34.90625 28.71875 34.90625 
L 20.21875 34.90625 
L 20.21875 43.015625 
L 29.109375 43.015625 
Q 36.375 43.015625 40.234375 45.921875 
Q 44.09375 48.828125 44.09375 54.296875 
Q 44.09375 59.90625 40.109375 62.90625 
Q 36.140625 65.921875 28.71875 65.921875 
Q 24.65625 65.921875 20.015625 65.03125 
Q 15.375 64.15625 9.8125 62.3125 
L 9.8125 71.09375 
Q 15.4375 72.65625 20.34375 73.4375 
Q 25.25 74.21875 29.59375 74.21875 
Q 40.828125 74.21875 47.359375 69.109375 
Q 53.90625 64.015625 53.90625 55.328125 
Q 53.90625 49.265625 50.4375 45.09375 
Q 46.96875 40.921875 40.578125 39.3125 
z
" id="DejaVuSans-51"/>
      </defs>
      <g transform="translate(200.051562 254.356562)scale(0.1 -0.1)">
       <use xlink:href="#DejaVuSans-51"/>
       <use x="63.623047" xlink:href="#DejaVuSans-46"/>
       <use x="95.410156" xlink:href="#DejaVuSans-48"/>
      </g>
     </g>
    </g>
    <g id="xtick_6">
     <g id="line2d_6">
      <g>
       <use style="stroke:#000000;stroke-width:0.8;" x="249.853125" xlink:href="#m9cccd9895d" y="239.758125"/>
      </g>
     </g>
     <g id="text_6">
      <!-- 3.5 -->
      <g transform="translate(241.901562 254.356562)scale(0.1 -0.1)">
       <use xlink:href="#DejaVuSans-51"/>
       <use x="63.623047" xlink:href="#DejaVuSans-46"/>
       <use x="95.410156" xlink:href="#DejaVuSans-53"/>
      </g>
     </g>
    </g>
    <g id="xtick_7">
     <g id="line2d_7">
      <g>
       <use style="stroke:#000000;stroke-width:0.8;" x="291.703125" xlink:href="#m9cccd9895d" y="239.758125"/>
      </g>
     </g>
     <g id="text_7">
      <!-- 4.0 -->
      <defs>
       <path d="M 37.796875 64.3125 
L 12.890625 25.390625 
L 37.796875 25.390625 
z
M 35.203125 72.90625 
L 47.609375 72.90625 
L 47.609375 25.390625 
L 58.015625 25.390625 
L 58.015625 17.1875 
L 47.609375 17.1875 
L 47.609375 0 
L 37.796875 0 
L 37.796875 17.1875 
L 4.890625 17.1875 
L 4.890625 26.703125 
z
" id="DejaVuSans-52"/>
      </defs>
      <g transform="translate(283.751562 254.356562)scale(0.1 -0.1)">
       <use xlink:href="#DejaVuSans-52"/>
       <use x="63.623047" xlink:href="#DejaVuSans-46"/>
       <use x="95.410156" xlink:href="#DejaVuSans-48"/>
      </g>
     </g>
    </g>
    <g id="xtick_8">
     <g id="line2d_8">
      <g>
       <use style="stroke:#000000;stroke-width:0.8;" x="333.553125" xlink:href="#m9cccd9895d" y="239.758125"/>
      </g>
     </g>
     <g id="text_8">
      <!-- 4.5 -->
      <g transform="translate(325.601562 254.356562)scale(0.1 -0.1)">
       <use xlink:href="#DejaVuSans-52"/>
       <use x="63.623047" xlink:href="#DejaVuSans-46"/>
       <use x="95.410156" xlink:href="#DejaVuSans-53"/>
      </g>
     </g>
    </g>
    <g id="xtick_9">
     <g id="line2d_9">
      <g>
       <use style="stroke:#000000;stroke-width:0.8;" x="375.403125" xlink:href="#m9cccd9895d" y="239.758125"/>
      </g>
     </g>
     <g id="text_9">
      <!-- 5.0 -->
      <g transform="translate(367.451562 254.356562)scale(0.1 -0.1)">
       <use xlink:href="#DejaVuSans-53"/>
       <use x="63.623047" xlink:href="#DejaVuSans-46"/>
       <use x="95.410156" xlink:href="#DejaVuSans-48"/>
      </g>
     </g>
    </g>
    <g id="text_10">
     <!-- TurnoversAllowed -->
     <defs>
      <path d="M -0.296875 72.90625 
L 61.375 72.90625 
L 61.375 64.59375 
L 35.5 64.59375 
L 35.5 0 
L 25.59375 0 
L 25.59375 64.59375 
L -0.296875 64.59375 
z
" id="DejaVuSans-84"/>
      <path d="M 8.5 21.578125 
L 8.5 54.6875 
L 17.484375 54.6875 
L 17.484375 21.921875 
Q 17.484375 14.15625 20.5 10.265625 
Q 23.53125 6.390625 29.59375 6.390625 
Q 36.859375 6.390625 41.078125 11.03125 
Q 45.3125 15.671875 45.3125 23.6875 
L 45.3125 54.6875 
L 54.296875 54.6875 
L 54.296875 0 
L 45.3125 0 
L 45.3125 8.40625 
Q 42.046875 3.421875 37.71875 1 
Q 33.40625 -1.421875 27.6875 -1.421875 
Q 18.265625 -1.421875 13.375 4.4375 
Q 8.5 10.296875 8.5 21.578125 
z
M 31.109375 56 
z
" id="DejaVuSans-117"/>
      <path d="M 41.109375 46.296875 
Q 39.59375 47.171875 37.8125 47.578125 
Q 36.03125 48 33.890625 48 
Q 26.265625 48 22.1875 43.046875 
Q 18.109375 38.09375 18.109375 28.8125 
L 18.109375 0 
L 9.078125 0 
L 9.078125 54.6875 
L 18.109375 54.6875 
L 18.109375 46.1875 
Q 20.953125 51.171875 25.484375 53.578125 
Q 30.03125 56 36.53125 56 
Q 37.453125 56 38.578125 55.875 
Q 39.703125 55.765625 41.0625 55.515625 
z
" id="DejaVuSans-114"/>
      <path d="M 54.890625 33.015625 
L 54.890625 0 
L 45.90625 0 
L 45.90625 32.71875 
Q 45.90625 40.484375 42.875 44.328125 
Q 39.84375 48.1875 33.796875 48.1875 
Q 26.515625 48.1875 22.3125 43.546875 
Q 18.109375 38.921875 18.109375 30.90625 
L 18.109375 0 
L 9.078125 0 
L 9.078125 54.6875 
L 18.109375 54.6875 
L 18.109375 46.1875 
Q 21.34375 51.125 25.703125 53.5625 
Q 30.078125 56 35.796875 56 
Q 45.21875 56 50.046875 50.171875 
Q 54.890625 44.34375 54.890625 33.015625 
z
" id="DejaVuSans-110"/>
      <path d="M 30.609375 48.390625 
Q 23.390625 48.390625 19.1875 42.75 
Q 14.984375 37.109375 14.984375 27.296875 
Q 14.984375 17.484375 19.15625 11.84375 
Q 23.34375 6.203125 30.609375 6.203125 
Q 37.796875 6.203125 41.984375 11.859375 
Q 46.1875 17.53125 46.1875 27.296875 
Q 46.1875 37.015625 41.984375 42.703125 
Q 37.796875 48.390625 30.609375 48.390625 
z
M 30.609375 56 
Q 42.328125 56 49.015625 48.375 
Q 55.71875 40.765625 55.71875 27.296875 
Q 55.71875 13.875 49.015625 6.21875 
Q 42.328125 -1.421875 30.609375 -1.421875 
Q 18.84375 -1.421875 12.171875 6.21875 
Q 5.515625 13.875 5.515625 27.296875 
Q 5.515625 40.765625 12.171875 48.375 
Q 18.84375 56 30.609375 56 
z
" id="DejaVuSans-111"/>
      <path d="M 2.984375 54.6875 
L 12.5 54.6875 
L 29.59375 8.796875 
L 46.6875 54.6875 
L 56.203125 54.6875 
L 35.6875 0 
L 23.484375 0 
z
" id="DejaVuSans-118"/>
      <path d="M 56.203125 29.59375 
L 56.203125 25.203125 
L 14.890625 25.203125 
Q 15.484375 15.921875 20.484375 11.0625 
Q 25.484375 6.203125 34.421875 6.203125 
Q 39.59375 6.203125 44.453125 7.46875 
Q 49.3125 8.734375 54.109375 11.28125 
L 54.109375 2.78125 
Q 49.265625 0.734375 44.1875 -0.34375 
Q 39.109375 -1.421875 33.890625 -1.421875 
Q 20.796875 -1.421875 13.15625 6.1875 
Q 5.515625 13.8125 5.515625 26.8125 
Q 5.515625 40.234375 12.765625 48.109375 
Q 20.015625 56 32.328125 56 
Q 43.359375 56 49.78125 48.890625 
Q 56.203125 41.796875 56.203125 29.59375 
z
M 47.21875 32.234375 
Q 47.125 39.59375 43.09375 43.984375 
Q 39.0625 48.390625 32.421875 48.390625 
Q 24.90625 48.390625 20.390625 44.140625 
Q 15.875 39.890625 15.1875 32.171875 
z
" id="DejaVuSans-101"/>
      <path d="M 44.28125 53.078125 
L 44.28125 44.578125 
Q 40.484375 46.53125 36.375 47.5 
Q 32.28125 48.484375 27.875 48.484375 
Q 21.1875 48.484375 17.84375 46.4375 
Q 14.5 44.390625 14.5 40.28125 
Q 14.5 37.15625 16.890625 35.375 
Q 19.28125 33.59375 26.515625 31.984375 
L 29.59375 31.296875 
Q 39.15625 29.25 43.1875 25.515625 
Q 47.21875 21.78125 47.21875 15.09375 
Q 47.21875 7.46875 41.1875 3.015625 
Q 35.15625 -1.421875 24.609375 -1.421875 
Q 20.21875 -1.421875 15.453125 -0.5625 
Q 10.6875 0.296875 5.421875 2 
L 5.421875 11.28125 
Q 10.40625 8.6875 15.234375 7.390625 
Q 20.0625 6.109375 24.8125 6.109375 
Q 31.15625 6.109375 34.5625 8.28125 
Q 37.984375 10.453125 37.984375 14.40625 
Q 37.984375 18.0625 35.515625 20.015625 
Q 33.0625 21.96875 24.703125 23.78125 
L 21.578125 24.515625 
Q 13.234375 26.265625 9.515625 29.90625 
Q 5.8125 33.546875 5.8125 39.890625 
Q 5.8125 47.609375 11.28125 51.796875 
Q 16.75 56 26.8125 56 
Q 31.78125 56 36.171875 55.265625 
Q 40.578125 54.546875 44.28125 53.078125 
z
" id="DejaVuSans-115"/>
      <path d="M 34.1875 63.1875 
L 20.796875 26.90625 
L 47.609375 26.90625 
z
M 28.609375 72.90625 
L 39.796875 72.90625 
L 67.578125 0 
L 57.328125 0 
L 50.6875 18.703125 
L 17.828125 18.703125 
L 11.1875 0 
L 0.78125 0 
z
" id="DejaVuSans-65"/>
      <path d="M 9.421875 75.984375 
L 18.40625 75.984375 
L 18.40625 0 
L 9.421875 0 
z
" id="DejaVuSans-108"/>
      <path d="M 4.203125 54.6875 
L 13.1875 54.6875 
L 24.421875 12.015625 
L 35.59375 54.6875 
L 46.1875 54.6875 
L 57.421875 12.015625 
L 68.609375 54.6875 
L 77.59375 54.6875 
L 63.28125 0 
L 52.6875 0 
L 40.921875 44.828125 
L 29.109375 0 
L 18.5 0 
z
" id="DejaVuSans-119"/>
      <path d="M 45.40625 46.390625 
L 45.40625 75.984375 
L 54.390625 75.984375 
L 54.390625 0 
L 45.40625 0 
L 45.40625 8.203125 
Q 42.578125 3.328125 38.25 0.953125 
Q 33.9375 -1.421875 27.875 -1.421875 
Q 17.96875 -1.421875 11.734375 6.484375 
Q 5.515625 14.40625 5.515625 27.296875 
Q 5.515625 40.1875 11.734375 48.09375 
Q 17.96875 56 27.875 56 
Q 33.9375 56 38.25 53.625 
Q 42.578125 51.265625 45.40625 46.390625 
z
M 14.796875 27.296875 
Q 14.796875 17.390625 18.875 11.75 
Q 22.953125 6.109375 30.078125 6.109375 
Q 37.203125 6.109375 41.296875 11.75 
Q 45.40625 17.390625 45.40625 27.296875 
Q 45.40625 37.203125 41.296875 42.84375 
Q 37.203125 48.484375 30.078125 48.484375 
Q 22.953125 48.484375 18.875 42.84375 
Q 14.796875 37.203125 14.796875 27.296875 
z
" id="DejaVuSans-100"/>
     </defs>
     <g transform="translate(164.046875 268.034687)scale(0.1 -0.1)">
      <use xlink:href="#DejaVuSans-84"/>
      <use x="45.958984" xlink:href="#DejaVuSans-117"/>
      <use x="109.337891" xlink:href="#DejaVuSans-114"/>
      <use x="148.701172" xlink:href="#DejaVuSans-110"/>
      <use x="212.080078" xlink:href="#DejaVuSans-111"/>
      <use x="273.261719" xlink:href="#DejaVuSans-118"/>
      <use x="332.441406" xlink:href="#DejaVuSans-101"/>
      <use x="393.964844" xlink:href="#DejaVuSans-114"/>
      <use x="435.078125" xlink:href="#DejaVuSans-115"/>
      <use x="487.177734" xlink:href="#DejaVuSans-65"/>
      <use x="555.585938" xlink:href="#DejaVuSans-108"/>
      <use x="583.369141" xlink:href="#DejaVuSans-108"/>
      <use x="611.152344" xlink:href="#DejaVuSans-111"/>
      <use x="672.333984" xlink:href="#DejaVuSans-119"/>
      <use x="754.121094" xlink:href="#DejaVuSans-101"/>
      <use x="815.644531" xlink:href="#DejaVuSans-100"/>
     </g>
    </g>
   </g>
   <g id="matplotlib.axis_2">
    <g id="ytick_1">
     <g id="line2d_10">
      <defs>
       <path d="M 0 0 
L -3.5 0 
" id="m15c0b08d30" style="stroke:#000000;stroke-width:0.8;"/>
      </defs>
      <g>
       <use style="stroke:#000000;stroke-width:0.8;" x="40.603125" xlink:href="#m15c0b08d30" y="223.448989"/>
      </g>
     </g>
     <g id="text_11">
      <!-- 5 -->
      <g transform="translate(27.240625 227.248208)scale(0.1 -0.1)">
       <use xlink:href="#DejaVuSans-53"/>
      </g>
     </g>
    </g>
    <g id="ytick_2">
     <g id="line2d_11">
      <g>
       <use style="stroke:#000000;stroke-width:0.8;" x="40.603125" xlink:href="#m15c0b08d30" y="193.56661"/>
      </g>
     </g>
     <g id="text_12">
      <!-- 10 -->
      <g transform="translate(20.878125 197.365828)scale(0.1 -0.1)">
       <use xlink:href="#DejaVuSans-49"/>
       <use x="63.623047" xlink:href="#DejaVuSans-48"/>
      </g>
     </g>
    </g>
    <g id="ytick_3">
     <g id="line2d_12">
      <g>
       <use style="stroke:#000000;stroke-width:0.8;" x="40.603125" xlink:href="#m15c0b08d30" y="163.68423"/>
      </g>
     </g>
     <g id="text_13">
      <!-- 15 -->
      <g transform="translate(20.878125 167.483449)scale(0.1 -0.1)">
       <use xlink:href="#DejaVuSans-49"/>
       <use x="63.623047" xlink:href="#DejaVuSans-53"/>
      </g>
     </g>
    </g>
    <g id="ytick_4">
     <g id="line2d_13">
      <g>
       <use style="stroke:#000000;stroke-width:0.8;" x="40.603125" xlink:href="#m15c0b08d30" y="133.801851"/>
      </g>
     </g>
     <g id="text_14">
      <!-- 20 -->
      <g transform="translate(20.878125 137.60107)scale(0.1 -0.1)">
       <use xlink:href="#DejaVuSans-50"/>
       <use x="63.623047" xlink:href="#DejaVuSans-48"/>
      </g>
     </g>
    </g>
    <g id="ytick_5">
     <g id="line2d_14">
      <g>
       <use style="stroke:#000000;stroke-width:0.8;" x="40.603125" xlink:href="#m15c0b08d30" y="103.919472"/>
      </g>
     </g>
     <g id="text_15">
      <!-- 25 -->
      <g transform="translate(20.878125 107.71869)scale(0.1 -0.1)">
       <use xlink:href="#DejaVuSans-50"/>
       <use x="63.623047" xlink:href="#DejaVuSans-53"/>
      </g>
     </g>
    </g>
    <g id="ytick_6">
     <g id="line2d_15">
      <g>
       <use style="stroke:#000000;stroke-width:0.8;" x="40.603125" xlink:href="#m15c0b08d30" y="74.037092"/>
      </g>
     </g>
     <g id="text_16">
      <!-- 30 -->
      <g transform="translate(20.878125 77.836311)scale(0.1 -0.1)">
       <use xlink:href="#DejaVuSans-51"/>
       <use x="63.623047" xlink:href="#DejaVuSans-48"/>
      </g>
     </g>
    </g>
    <g id="ytick_7">
     <g id="line2d_16">
      <g>
       <use style="stroke:#000000;stroke-width:0.8;" x="40.603125" xlink:href="#m15c0b08d30" y="44.154713"/>
      </g>
     </g>
     <g id="text_17">
      <!-- 35 -->
      <g transform="translate(20.878125 47.953932)scale(0.1 -0.1)">
       <use xlink:href="#DejaVuSans-51"/>
       <use x="63.623047" xlink:href="#DejaVuSans-53"/>
      </g>
     </g>
    </g>
    <g id="text_18">
     <!-- ScoredPoints -->
     <defs>
      <path d="M 53.515625 70.515625 
L 53.515625 60.890625 
Q 47.90625 63.578125 42.921875 64.890625 
Q 37.9375 66.21875 33.296875 66.21875 
Q 25.25 66.21875 20.875 63.09375 
Q 16.5 59.96875 16.5 54.203125 
Q 16.5 49.359375 19.40625 46.890625 
Q 22.3125 44.4375 30.421875 42.921875 
L 36.375 41.703125 
Q 47.40625 39.59375 52.65625 34.296875 
Q 57.90625 29 57.90625 20.125 
Q 57.90625 9.515625 50.796875 4.046875 
Q 43.703125 -1.421875 29.984375 -1.421875 
Q 24.8125 -1.421875 18.96875 -0.25 
Q 13.140625 0.921875 6.890625 3.21875 
L 6.890625 13.375 
Q 12.890625 10.015625 18.65625 8.296875 
Q 24.421875 6.59375 29.984375 6.59375 
Q 38.421875 6.59375 43.015625 9.90625 
Q 47.609375 13.234375 47.609375 19.390625 
Q 47.609375 24.75 44.3125 27.78125 
Q 41.015625 30.8125 33.5 32.328125 
L 27.484375 33.5 
Q 16.453125 35.6875 11.515625 40.375 
Q 6.59375 45.0625 6.59375 53.421875 
Q 6.59375 63.09375 13.40625 68.65625 
Q 20.21875 74.21875 32.171875 74.21875 
Q 37.3125 74.21875 42.625 73.28125 
Q 47.953125 72.359375 53.515625 70.515625 
z
" id="DejaVuSans-83"/>
      <path d="M 48.78125 52.59375 
L 48.78125 44.1875 
Q 44.96875 46.296875 41.140625 47.34375 
Q 37.3125 48.390625 33.40625 48.390625 
Q 24.65625 48.390625 19.8125 42.84375 
Q 14.984375 37.3125 14.984375 27.296875 
Q 14.984375 17.28125 19.8125 11.734375 
Q 24.65625 6.203125 33.40625 6.203125 
Q 37.3125 6.203125 41.140625 7.25 
Q 44.96875 8.296875 48.78125 10.40625 
L 48.78125 2.09375 
Q 45.015625 0.34375 40.984375 -0.53125 
Q 36.96875 -1.421875 32.421875 -1.421875 
Q 20.0625 -1.421875 12.78125 6.34375 
Q 5.515625 14.109375 5.515625 27.296875 
Q 5.515625 40.671875 12.859375 48.328125 
Q 20.21875 56 33.015625 56 
Q 37.15625 56 41.109375 55.140625 
Q 45.0625 54.296875 48.78125 52.59375 
z
" id="DejaVuSans-99"/>
      <path d="M 19.671875 64.796875 
L 19.671875 37.40625 
L 32.078125 37.40625 
Q 38.96875 37.40625 42.71875 40.96875 
Q 46.484375 44.53125 46.484375 51.125 
Q 46.484375 57.671875 42.71875 61.234375 
Q 38.96875 64.796875 32.078125 64.796875 
z
M 9.8125 72.90625 
L 32.078125 72.90625 
Q 44.34375 72.90625 50.609375 67.359375 
Q 56.890625 61.8125 56.890625 51.125 
Q 56.890625 40.328125 50.609375 34.8125 
Q 44.34375 29.296875 32.078125 29.296875 
L 19.671875 29.296875 
L 19.671875 0 
L 9.8125 0 
z
" id="DejaVuSans-80"/>
      <path d="M 9.421875 54.6875 
L 18.40625 54.6875 
L 18.40625 0 
L 9.421875 0 
z
M 9.421875 75.984375 
L 18.40625 75.984375 
L 18.40625 64.59375 
L 9.421875 64.59375 
z
" id="DejaVuSans-105"/>
      <path d="M 18.3125 70.21875 
L 18.3125 54.6875 
L 36.8125 54.6875 
L 36.8125 47.703125 
L 18.3125 47.703125 
L 18.3125 18.015625 
Q 18.3125 11.328125 20.140625 9.421875 
Q 21.96875 7.515625 27.59375 7.515625 
L 36.8125 7.515625 
L 36.8125 0 
L 27.59375 0 
Q 17.1875 0 13.234375 3.875 
Q 9.28125 7.765625 9.28125 18.015625 
L 9.28125 47.703125 
L 2.6875 47.703125 
L 2.6875 54.6875 
L 9.28125 54.6875 
L 9.28125 70.21875 
z
" id="DejaVuSans-116"/>
     </defs>
     <g transform="translate(14.798438 163.230312)rotate(-90)scale(0.1 -0.1)">
      <use xlink:href="#DejaVuSans-83"/>
      <use x="63.476562" xlink:href="#DejaVuSans-99"/>
      <use x="118.457031" xlink:href="#DejaVuSans-111"/>
      <use x="179.638672" xlink:href="#DejaVuSans-114"/>
      <use x="218.501953" xlink:href="#DejaVuSans-101"/>
      <use x="280.025391" xlink:href="#DejaVuSans-100"/>
      <use x="343.501953" xlink:href="#DejaVuSans-80"/>
      <use x="400.179688" xlink:href="#DejaVuSans-111"/>
      <use x="461.361328" xlink:href="#DejaVuSans-105"/>
      <use x="489.144531" xlink:href="#DejaVuSans-110"/>
      <use x="552.523438" xlink:href="#DejaVuSans-116"/>
      <use x="591.732422" xlink:href="#DejaVuSans-115"/>
     </g>
    </g>
   </g>
   <g id="line2d_17">
    <path clip-path="url(#paddb6f45fa)" d="M 40.603125 89.004267 
L 43.984943 90.140243 
L 47.366761 91.27622 
L 50.74858 92.412197 
L 54.130398 93.548173 
L 57.512216 94.68415 
L 60.894034 95.820126 
L 64.275852 96.956103 
L 67.65767 98.09208 
L 71.039489 99.228056 
L 74.421307 100.364033 
L 77.803125 101.500009 
L 81.184943 102.635986 
L 84.566761 103.771963 
L 87.94858 104.907939 
L 91.330398 106.043916 
L 94.712216 107.179893 
L 98.094034 108.315869 
L 101.475852 109.451846 
L 104.85767 110.587822 
L 108.239489 111.723799 
L 111.621307 112.859776 
L 115.003125 113.995752 
L 118.384943 115.131729 
L 121.766761 116.267705 
L 125.14858 117.403682 
L 128.530398 118.539659 
L 131.912216 119.675635 
L 135.294034 120.811612 
L 138.675852 121.947589 
L 142.05767 123.083565 
L 145.439489 124.219542 
L 148.821307 125.355518 
L 152.203125 126.491495 
L 155.584943 127.627472 
L 158.966761 128.763448 
L 162.34858 129.899425 
L 165.730398 131.035401 
L 169.112216 132.171378 
L 172.494034 133.307355 
L 175.875852 134.443331 
L 179.25767 135.579308 
L 182.639489 136.715285 
L 186.021307 137.851261 
L 189.403125 138.987238 
L 192.784943 140.123214 
L 196.166761 141.259191 
L 199.54858 142.395168 
L 202.930398 143.531144 
L 206.312216 144.667121 
L 209.694034 145.803097 
L 213.075852 146.939074 
L 216.45767 148.075051 
L 219.839489 149.211027 
L 223.221307 150.347004 
L 226.603125 151.482981 
L 229.984943 152.618957 
L 233.366761 153.754934 
L 236.74858 154.89091 
L 240.130398 156.026887 
L 243.512216 157.162864 
L 246.894034 158.29884 
L 250.275852 159.434817 
L 253.65767 160.570793 
L 257.039489 161.70677 
L 260.421307 162.842747 
L 263.803125 163.978723 
L 267.184943 165.1147 
L 270.566761 166.250677 
L 273.94858 167.386653 
L 277.330398 168.52263 
L 280.712216 169.658606 
L 284.094034 170.794583 
L 287.475852 171.93056 
L 290.85767 173.066536 
L 294.239489 174.202513 
L 297.621307 175.338489 
L 301.003125 176.474466 
L 304.384943 177.610443 
L 307.766761 178.746419 
L 311.14858 179.882396 
L 314.530398 181.018373 
L 317.912216 182.154349 
L 321.294034 183.290326 
L 324.675852 184.426302 
L 328.05767 185.562279 
L 331.439489 186.698256 
L 334.821307 187.834232 
L 338.203125 188.970209 
L 341.584943 190.106185 
L 344.966761 191.242162 
L 348.34858 192.378139 
L 351.730398 193.514115 
L 355.112216 194.650092 
L 358.494034 195.786069 
L 361.875852 196.922045 
L 365.25767 198.058022 
L 368.639489 199.193998 
L 372.021307 200.329975 
L 375.403125 201.465952 
" style="fill:none;stroke:#1f77b4;stroke-linecap:square;stroke-width:2.25;"/>
   </g>
   <g id="patch_3">
    <path d="M 40.603125 239.758125 
L 40.603125 22.318125 
" style="fill:none;stroke:#000000;stroke-linecap:square;stroke-linejoin:miter;stroke-width:0.8;"/>
   </g>
   <g id="patch_4">
    <path d="M 375.403125 239.758125 
L 375.403125 22.318125 
" style="fill:none;stroke:#000000;stroke-linecap:square;stroke-linejoin:miter;stroke-width:0.8;"/>
   </g>
   <g id="patch_5">
    <path d="M 40.603125 239.758125 
L 375.403125 239.758125 
" style="fill:none;stroke:#000000;stroke-linecap:square;stroke-linejoin:miter;stroke-width:0.8;"/>
   </g>
   <g id="patch_6">
    <path d="M 40.603125 22.318125 
L 375.403125 22.318125 
" style="fill:none;stroke:#000000;stroke-linecap:square;stroke-linejoin:miter;stroke-width:0.8;"/>
   </g>
   <g id="text_19">
    <!-- Eagles -->
    <defs>
     <path d="M 9.8125 72.90625 
L 55.90625 72.90625 
L 55.90625 64.59375 
L 19.671875 64.59375 
L 19.671875 43.015625 
L 54.390625 43.015625 
L 54.390625 34.71875 
L 19.671875 34.71875 
L 19.671875 8.296875 
L 56.78125 8.296875 
L 56.78125 0 
L 9.8125 0 
z
" id="DejaVuSans-69"/>
     <path d="M 34.28125 27.484375 
Q 23.390625 27.484375 19.1875 25 
Q 14.984375 22.515625 14.984375 16.5 
Q 14.984375 11.71875 18.140625 8.90625 
Q 21.296875 6.109375 26.703125 6.109375 
Q 34.1875 6.109375 38.703125 11.40625 
Q 43.21875 16.703125 43.21875 25.484375 
L 43.21875 27.484375 
z
M 52.203125 31.203125 
L 52.203125 0 
L 43.21875 0 
L 43.21875 8.296875 
Q 40.140625 3.328125 35.546875 0.953125 
Q 30.953125 -1.421875 24.3125 -1.421875 
Q 15.921875 -1.421875 10.953125 3.296875 
Q 6 8.015625 6 15.921875 
Q 6 25.140625 12.171875 29.828125 
Q 18.359375 34.515625 30.609375 34.515625 
L 43.21875 34.515625 
L 43.21875 35.40625 
Q 43.21875 41.609375 39.140625 45 
Q 35.0625 48.390625 27.6875 48.390625 
Q 23 48.390625 18.546875 47.265625 
Q 14.109375 46.140625 10.015625 43.890625 
L 10.015625 52.203125 
Q 14.9375 54.109375 19.578125 55.046875 
Q 24.21875 56 28.609375 56 
Q 40.484375 56 46.34375 49.84375 
Q 52.203125 43.703125 52.203125 31.203125 
z
" id="DejaVuSans-97"/>
     <path d="M 45.40625 27.984375 
Q 45.40625 37.75 41.375 43.109375 
Q 37.359375 48.484375 30.078125 48.484375 
Q 22.859375 48.484375 18.828125 43.109375 
Q 14.796875 37.75 14.796875 27.984375 
Q 14.796875 18.265625 18.828125 12.890625 
Q 22.859375 7.515625 30.078125 7.515625 
Q 37.359375 7.515625 41.375 12.890625 
Q 45.40625 18.265625 45.40625 27.984375 
z
M 54.390625 6.78125 
Q 54.390625 -7.171875 48.1875 -13.984375 
Q 42 -20.796875 29.203125 -20.796875 
Q 24.46875 -20.796875 20.265625 -20.09375 
Q 16.0625 -19.390625 12.109375 -17.921875 
L 12.109375 -9.1875 
Q 16.0625 -11.328125 19.921875 -12.34375 
Q 23.78125 -13.375 27.78125 -13.375 
Q 36.625 -13.375 41.015625 -8.765625 
Q 45.40625 -4.15625 45.40625 5.171875 
L 45.40625 9.625 
Q 42.625 4.78125 38.28125 2.390625 
Q 33.9375 0 27.875 0 
Q 17.828125 0 11.671875 7.65625 
Q 5.515625 15.328125 5.515625 27.984375 
Q 5.515625 40.671875 11.671875 48.328125 
Q 17.828125 56 27.875 56 
Q 33.9375 56 38.28125 53.609375 
Q 42.625 51.21875 45.40625 46.390625 
L 45.40625 54.6875 
L 54.390625 54.6875 
z
" id="DejaVuSans-103"/>
    </defs>
    <g transform="translate(188.241562 16.318125)scale(0.12 -0.12)">
     <use xlink:href="#DejaVuSans-69"/>
     <use x="63.183594" xlink:href="#DejaVuSans-97"/>
     <use x="124.462891" xlink:href="#DejaVuSans-103"/>
     <use x="187.939453" xlink:href="#DejaVuSans-108"/>
     <use x="215.722656" xlink:href="#DejaVuSans-101"/>
     <use x="277.246094" xlink:href="#DejaVuSans-115"/>
    </g>
   </g>
  </g>
 </g>
 <defs>
  <clipPath id="paddb6f45fa">
   <rect height="217.44" width="334.8" x="40.603125" y="22.318125"/>
  </clipPath>
 </defs>
</svg>
