<?xml version="1.0" encoding="utf-8" standalone="no"?>
<!DOCTYPE svg PUBLIC "-//W3C//DTD SVG 1.1//EN"
  "http://www.w3.org/Graphics/SVG/1.1/DTD/svg11.dtd">
<!-- Created with matplotlib (https://matplotlib.org/) -->
<svg height="277.314375pt" version="1.1" viewBox="0 0 382.603125 277.314375" width="382.603125pt" xmlns="http://www.w3.org/2000/svg" xmlns:xlink="http://www.w3.org/1999/xlink">
 <defs>
  <style type="text/css">
*{stroke-linecap:butt;stroke-linejoin:round;}
  </style>
 </defs>
 <g id="figure_1">
  <g id="patch_1">
   <path d="M 0 277.314375 
L 382.603125 277.314375 
L 382.603125 0 
L 0 0 
z
" style="fill:none;"/>
  </g>
  <g id="axes_1">
   <g id="patch_2">
    <path d="M 40.603125 239.758125 
L 375.403125 239.758125 
L 375.403125 22.318125 
L 40.603125 22.318125 
z
" style="fill:#ffffff;"/>
   </g>
   <g id="PathCollection_1">
    <defs>
     <path d="M 0 3 
C 0.795609 3 1.55874 2.683901 2.12132 2.12132 
C 2.683901 1.55874 3 0.795609 3 0 
C 3 -0.795609 2.683901 -1.55874 2.12132 -2.12132 
C 1.55874 -2.683901 0.795609 -3 0 -3 
C -0.795609 -3 -1.55874 -2.683901 -2.12132 -2.12132 
C -2.683901 -1.55874 -3 -0.795609 -3 0 
C -3 0.795609 -2.683901 1.55874 -2.12132 2.12132 
C -1.55874 2.683901 -0.795609 3 0 3 
z
" id="m42c4bfde21" style="stroke:#1f77b4;stroke-opacity:0.8;"/>
    </defs>
    <g clip-path="url(#p37d98de0bc)">
     <use style="fill:#1f77b4;fill-opacity:0.8;stroke:#1f77b4;stroke-opacity:0.8;" x="42.538385" xlink:href="#m42c4bfde21" y="32.201761"/>
     <use style="fill:#1f77b4;fill-opacity:0.8;stroke:#1f77b4;stroke-opacity:0.8;" x="40.603125" xlink:href="#m42c4bfde21" y="205.162366"/>
     <use style="fill:#1f77b4;fill-opacity:0.8;stroke:#1f77b4;stroke-opacity:0.8;" x="272.834339" xlink:href="#m42c4bfde21" y="181.14006"/>
     <use style="fill:#1f77b4;fill-opacity:0.8;stroke:#1f77b4;stroke-opacity:0.8;" x="375.403125" xlink:href="#m42c4bfde21" y="195.553444"/>
     <use style="fill:#1f77b4;fill-opacity:0.8;stroke:#1f77b4;stroke-opacity:0.8;" x="150.912952" xlink:href="#m42c4bfde21" y="190.748982"/>
     <use style="fill:#1f77b4;fill-opacity:0.8;stroke:#1f77b4;stroke-opacity:0.8;" x="65.761507" xlink:href="#m42c4bfde21" y="205.162366"/>
     <use style="fill:#1f77b4;fill-opacity:0.8;stroke:#1f77b4;stroke-opacity:0.8;" x="207.035495" xlink:href="#m42c4bfde21" y="171.531137"/>
     <use style="fill:#1f77b4;fill-opacity:0.8;stroke:#1f77b4;stroke-opacity:0.8;" x="145.107171" xlink:href="#m42c4bfde21" y="137.899909"/>
     <use style="fill:#1f77b4;fill-opacity:0.8;stroke:#1f77b4;stroke-opacity:0.8;" x="305.733761" xlink:href="#m42c4bfde21" y="80.246374"/>
     <use style="fill:#1f77b4;fill-opacity:0.8;stroke:#1f77b4;stroke-opacity:0.8;" x="237.999657" xlink:href="#m42c4bfde21" y="118.682064"/>
     <use style="fill:#1f77b4;fill-opacity:0.8;stroke:#1f77b4;stroke-opacity:0.8;" x="44.473645" xlink:href="#m42c4bfde21" y="99.464219"/>
     <use style="fill:#1f77b4;fill-opacity:0.8;stroke:#1f77b4;stroke-opacity:0.8;" x="338.633183" xlink:href="#m42c4bfde21" y="219.57575"/>
     <use style="fill:#1f77b4;fill-opacity:0.8;stroke:#1f77b4;stroke-opacity:0.8;" x="203.164975" xlink:href="#m42c4bfde21" y="200.357905"/>
     <use style="fill:#1f77b4;fill-opacity:0.8;stroke:#1f77b4;stroke-opacity:0.8;" x="201.229715" xlink:href="#m42c4bfde21" y="113.877602"/>
     <use style="fill:#1f77b4;fill-opacity:0.8;stroke:#1f77b4;stroke-opacity:0.8;" x="112.207749" xlink:href="#m42c4bfde21" y="166.726676"/>
     <use style="fill:#1f77b4;fill-opacity:0.8;stroke:#1f77b4;stroke-opacity:0.8;" x="178.006593" xlink:href="#m42c4bfde21" y="181.14006"/>
    </g>
   </g>
   <g id="PolyCollection_1">
    <path clip-path="url(#p37d98de0bc)" d="M 40.603125 86.271494 
L 40.603125 195.335271 
L 43.984943 194.707884 
L 47.366761 194.00641 
L 50.74858 193.387631 
L 54.130398 192.924232 
L 57.512216 192.15608 
L 60.894034 191.421573 
L 64.275852 190.579693 
L 67.65767 189.833885 
L 71.039489 189.743676 
L 74.421307 189.521265 
L 77.803125 189.203417 
L 81.184943 188.749733 
L 84.566761 188.281538 
L 87.94858 187.744199 
L 91.330398 187.340681 
L 94.712216 186.876516 
L 98.094034 186.453663 
L 101.475852 185.947352 
L 104.85767 185.644097 
L 108.239489 185.015618 
L 111.621307 184.54355 
L 115.003125 184.065622 
L 118.384943 183.551749 
L 121.766761 183.121802 
L 125.14858 182.654541 
L 128.530398 182.188212 
L 131.912216 181.912744 
L 135.294034 181.448171 
L 138.675852 181.219686 
L 142.05767 180.831668 
L 145.439489 180.44365 
L 148.821307 180.049991 
L 152.203125 179.708286 
L 155.584943 179.714466 
L 158.966761 179.569581 
L 162.34858 179.427187 
L 165.730398 179.425903 
L 169.112216 178.93839 
L 172.494034 179.146594 
L 175.875852 179.30888 
L 179.25767 179.219395 
L 182.639489 179.324951 
L 186.021307 179.140424 
L 189.403125 179.352212 
L 192.784943 179.787741 
L 196.166761 180.025991 
L 199.54858 180.405873 
L 202.930398 180.994163 
L 206.312216 181.448582 
L 209.694034 182.12479 
L 213.075852 182.957055 
L 216.45767 183.411068 
L 219.839489 183.653307 
L 223.221307 184.219852 
L 226.603125 184.632255 
L 229.984943 185.338857 
L 233.366761 185.803588 
L 236.74858 186.388101 
L 240.130398 187.111131 
L 243.512216 187.929091 
L 246.894034 188.554411 
L 250.275852 189.327629 
L 253.65767 190.181285 
L 257.039489 191.007174 
L 260.421307 191.967853 
L 263.803125 192.97018 
L 267.184943 193.927478 
L 270.566761 194.675353 
L 273.94858 195.532067 
L 277.330398 196.782519 
L 280.712216 198.273341 
L 284.094034 199.061744 
L 287.475852 200.259593 
L 290.85767 201.036984 
L 294.239489 202.240934 
L 297.621307 202.995394 
L 301.003125 204.084897 
L 304.384943 205.224643 
L 307.766761 206.408113 
L 311.14858 208.075697 
L 314.530398 209.374957 
L 317.912216 210.374269 
L 321.294034 211.455891 
L 324.675852 212.96195 
L 328.05767 214.465185 
L 331.439489 215.246122 
L 334.821307 215.925964 
L 338.203125 216.700227 
L 341.584943 217.839529 
L 344.966761 218.978832 
L 348.34858 220.118134 
L 351.730398 221.272403 
L 355.112216 222.404856 
L 358.494034 223.553409 
L 361.875852 224.701962 
L 365.25767 225.863211 
L 368.639489 227.200303 
L 372.021307 228.537396 
L 375.403125 229.874489 
L 375.403125 107.919331 
L 375.403125 107.919331 
L 372.021307 108.741297 
L 368.639489 109.427542 
L 365.25767 110.016252 
L 361.875852 110.604962 
L 358.494034 111.193673 
L 355.112216 111.782383 
L 351.730398 112.371093 
L 348.34858 112.959804 
L 344.966761 113.548514 
L 341.584943 114.137224 
L 338.203125 114.96096 
L 334.821307 115.891286 
L 331.439489 116.828089 
L 328.05767 117.825954 
L 324.675852 118.995887 
L 321.294034 120.165819 
L 317.912216 121.335752 
L 314.530398 122.037333 
L 311.14858 122.429944 
L 307.766761 123.345994 
L 304.384943 124.112118 
L 301.003125 124.394798 
L 297.621307 124.6784 
L 294.239489 125.295257 
L 290.85767 125.97158 
L 287.475852 126.636433 
L 284.094034 127.578368 
L 280.712216 128.225385 
L 277.330398 127.712901 
L 273.94858 127.750116 
L 270.566761 127.977652 
L 267.184943 129.05022 
L 263.803125 130.011974 
L 260.421307 130.995815 
L 257.039489 131.34392 
L 253.65767 131.571704 
L 250.275852 131.289947 
L 246.894034 131.639421 
L 243.512216 132.424617 
L 240.130398 132.842786 
L 236.74858 133.607929 
L 233.366761 134.380763 
L 229.984943 134.826787 
L 226.603125 134.626584 
L 223.221307 134.682156 
L 219.839489 134.59619 
L 216.45767 134.556724 
L 213.075852 134.22234 
L 209.694034 134.123908 
L 206.312216 133.839842 
L 202.930398 132.930401 
L 199.54858 132.4864 
L 196.166761 132.742805 
L 192.784943 132.343668 
L 189.403125 131.858408 
L 186.021307 131.203309 
L 182.639489 130.894411 
L 179.25767 130.337584 
L 175.875852 129.559584 
L 172.494034 128.768213 
L 169.112216 127.501372 
L 165.730398 126.456481 
L 162.34858 125.196235 
L 158.966761 124.487729 
L 155.584943 123.331979 
L 152.203125 122.20253 
L 148.821307 121.125123 
L 145.439489 120.219206 
L 142.05767 119.415241 
L 138.675852 118.633656 
L 135.294034 117.690944 
L 131.912216 116.783659 
L 128.530398 115.889232 
L 125.14858 114.985395 
L 121.766761 113.765086 
L 118.384943 112.538916 
L 115.003125 110.920813 
L 111.621307 110.115771 
L 108.239489 108.908233 
L 104.85767 107.701247 
L 101.475852 106.49426 
L 98.094034 105.344735 
L 94.712216 104.368798 
L 91.330398 103.396871 
L 87.94858 102.429002 
L 84.566761 101.461134 
L 81.184943 100.3771 
L 77.803125 99.447835 
L 74.421307 98.533087 
L 71.039489 96.652702 
L 67.65767 94.946052 
L 64.275852 93.884471 
L 60.894034 93.338314 
L 57.512216 92.442786 
L 54.130398 90.979083 
L 50.74858 89.741391 
L 47.366761 88.516281 
L 43.984943 87.296444 
L 40.603125 86.271494 
z
" style="fill:#1f77b4;fill-opacity:0.15;"/>
   </g>
   <g id="matplotlib.axis_1">
    <g id="xtick_1">
     <g id="line2d_1">
      <defs>
       <path d="M 0 0 
L 0 3.5 
" id="m96e86d379e" style="stroke:#000000;stroke-width:0.8;"/>
      </defs>
      <g>
       <use style="stroke:#000000;stroke-width:0.8;" x="40.603125" xlink:href="#m96e86d379e" y="239.758125"/>
      </g>
     </g>
     <g id="text_1">
      <!-- 20 -->
      <defs>
       <path d="M 19.1875 8.296875 
L 53.609375 8.296875 
L 53.609375 0 
L 7.328125 0 
L 7.328125 8.296875 
Q 12.9375 14.109375 22.625 23.890625 
Q 32.328125 33.6875 34.8125 36.53125 
Q 39.546875 41.84375 41.421875 45.53125 
Q 43.3125 49.21875 43.3125 52.78125 
Q 43.3125 58.59375 39.234375 62.25 
Q 35.15625 65.921875 28.609375 65.921875 
Q 23.96875 65.921875 18.8125 64.3125 
Q 13.671875 62.703125 7.8125 59.421875 
L 7.8125 69.390625 
Q 13.765625 71.78125 18.9375 73 
Q 24.125 74.21875 28.421875 74.21875 
Q 39.75 74.21875 46.484375 68.546875 
Q 53.21875 62.890625 53.21875 53.421875 
Q 53.21875 48.921875 51.53125 44.890625 
Q 49.859375 40.875 45.40625 35.40625 
Q 44.1875 33.984375 37.640625 27.21875 
Q 31.109375 20.453125 19.1875 8.296875 
z
" id="DejaVuSans-50"/>
       <path d="M 31.78125 66.40625 
Q 24.171875 66.40625 20.328125 58.90625 
Q 16.5 51.421875 16.5 36.375 
Q 16.5 21.390625 20.328125 13.890625 
Q 24.171875 6.390625 31.78125 6.390625 
Q 39.453125 6.390625 43.28125 13.890625 
Q 47.125 21.390625 47.125 36.375 
Q 47.125 51.421875 43.28125 58.90625 
Q 39.453125 66.40625 31.78125 66.40625 
z
M 31.78125 74.21875 
Q 44.046875 74.21875 50.515625 64.515625 
Q 56.984375 54.828125 56.984375 36.375 
Q 56.984375 17.96875 50.515625 8.265625 
Q 44.046875 -1.421875 31.78125 -1.421875 
Q 19.53125 -1.421875 13.0625 8.265625 
Q 6.59375 17.96875 6.59375 36.375 
Q 6.59375 54.828125 13.0625 64.515625 
Q 19.53125 74.21875 31.78125 74.21875 
z
" id="DejaVuSans-48"/>
      </defs>
      <g transform="translate(34.240625 254.356562)scale(0.1 -0.1)">
       <use xlink:href="#DejaVuSans-50"/>
       <use x="63.623047" xlink:href="#DejaVuSans-48"/>
      </g>
     </g>
    </g>
    <g id="xtick_2">
     <g id="line2d_2">
      <g>
       <use style="stroke:#000000;stroke-width:0.8;" x="79.308327" xlink:href="#m96e86d379e" y="239.758125"/>
      </g>
     </g>
     <g id="text_2">
      <!-- 40 -->
      <defs>
       <path d="M 37.796875 64.3125 
L 12.890625 25.390625 
L 37.796875 25.390625 
z
M 35.203125 72.90625 
L 47.609375 72.90625 
L 47.609375 25.390625 
L 58.015625 25.390625 
L 58.015625 17.1875 
L 47.609375 17.1875 
L 47.609375 0 
L 37.796875 0 
L 37.796875 17.1875 
L 4.890625 17.1875 
L 4.890625 26.703125 
z
" id="DejaVuSans-52"/>
      </defs>
      <g transform="translate(72.945827 254.356562)scale(0.1 -0.1)">
       <use xlink:href="#DejaVuSans-52"/>
       <use x="63.623047" xlink:href="#DejaVuSans-48"/>
      </g>
     </g>
    </g>
    <g id="xtick_3">
     <g id="line2d_3">
      <g>
       <use style="stroke:#000000;stroke-width:0.8;" x="118.01353" xlink:href="#m96e86d379e" y="239.758125"/>
      </g>
     </g>
     <g id="text_3">
      <!-- 60 -->
      <defs>
       <path d="M 33.015625 40.375 
Q 26.375 40.375 22.484375 35.828125 
Q 18.609375 31.296875 18.609375 23.390625 
Q 18.609375 15.53125 22.484375 10.953125 
Q 26.375 6.390625 33.015625 6.390625 
Q 39.65625 6.390625 43.53125 10.953125 
Q 47.40625 15.53125 47.40625 23.390625 
Q 47.40625 31.296875 43.53125 35.828125 
Q 39.65625 40.375 33.015625 40.375 
z
M 52.59375 71.296875 
L 52.59375 62.3125 
Q 48.875 64.0625 45.09375 64.984375 
Q 41.3125 65.921875 37.59375 65.921875 
Q 27.828125 65.921875 22.671875 59.328125 
Q 17.53125 52.734375 16.796875 39.40625 
Q 19.671875 43.65625 24.015625 45.921875 
Q 28.375 48.1875 33.59375 48.1875 
Q 44.578125 48.1875 50.953125 41.515625 
Q 57.328125 34.859375 57.328125 23.390625 
Q 57.328125 12.15625 50.6875 5.359375 
Q 44.046875 -1.421875 33.015625 -1.421875 
Q 20.359375 -1.421875 13.671875 8.265625 
Q 6.984375 17.96875 6.984375 36.375 
Q 6.984375 53.65625 15.1875 63.9375 
Q 23.390625 74.21875 37.203125 74.21875 
Q 40.921875 74.21875 44.703125 73.484375 
Q 48.484375 72.75 52.59375 71.296875 
z
" id="DejaVuSans-54"/>
      </defs>
      <g transform="translate(111.65103 254.356562)scale(0.1 -0.1)">
       <use xlink:href="#DejaVuSans-54"/>
       <use x="63.623047" xlink:href="#DejaVuSans-48"/>
      </g>
     </g>
    </g>
    <g id="xtick_4">
     <g id="line2d_4">
      <g>
       <use style="stroke:#000000;stroke-width:0.8;" x="156.718732" xlink:href="#m96e86d379e" y="239.758125"/>
      </g>
     </g>
     <g id="text_4">
      <!-- 80 -->
      <defs>
       <path d="M 31.78125 34.625 
Q 24.75 34.625 20.71875 30.859375 
Q 16.703125 27.09375 16.703125 20.515625 
Q 16.703125 13.921875 20.71875 10.15625 
Q 24.75 6.390625 31.78125 6.390625 
Q 38.8125 6.390625 42.859375 10.171875 
Q 46.921875 13.96875 46.921875 20.515625 
Q 46.921875 27.09375 42.890625 30.859375 
Q 38.875 34.625 31.78125 34.625 
z
M 21.921875 38.8125 
Q 15.578125 40.375 12.03125 44.71875 
Q 8.5 49.078125 8.5 55.328125 
Q 8.5 64.0625 14.71875 69.140625 
Q 20.953125 74.21875 31.78125 74.21875 
Q 42.671875 74.21875 48.875 69.140625 
Q 55.078125 64.0625 55.078125 55.328125 
Q 55.078125 49.078125 51.53125 44.71875 
Q 48 40.375 41.703125 38.8125 
Q 48.828125 37.15625 52.796875 32.3125 
Q 56.78125 27.484375 56.78125 20.515625 
Q 56.78125 9.90625 50.3125 4.234375 
Q 43.84375 -1.421875 31.78125 -1.421875 
Q 19.734375 -1.421875 13.25 4.234375 
Q 6.78125 9.90625 6.78125 20.515625 
Q 6.78125 27.484375 10.78125 32.3125 
Q 14.796875 37.15625 21.921875 38.8125 
z
M 18.3125 54.390625 
Q 18.3125 48.734375 21.84375 45.5625 
Q 25.390625 42.390625 31.78125 42.390625 
Q 38.140625 42.390625 41.71875 45.5625 
Q 45.3125 48.734375 45.3125 54.390625 
Q 45.3125 60.0625 41.71875 63.234375 
Q 38.140625 66.40625 31.78125 66.40625 
Q 25.390625 66.40625 21.84375 63.234375 
Q 18.3125 60.0625 18.3125 54.390625 
z
" id="DejaVuSans-56"/>
      </defs>
      <g transform="translate(150.356232 254.356562)scale(0.1 -0.1)">
       <use xlink:href="#DejaVuSans-56"/>
       <use x="63.623047" xlink:href="#DejaVuSans-48"/>
      </g>
     </g>
    </g>
    <g id="xtick_5">
     <g id="line2d_5">
      <g>
       <use style="stroke:#000000;stroke-width:0.8;" x="195.423934" xlink:href="#m96e86d379e" y="239.758125"/>
      </g>
     </g>
     <g id="text_5">
      <!-- 100 -->
      <defs>
       <path d="M 12.40625 8.296875 
L 28.515625 8.296875 
L 28.515625 63.921875 
L 10.984375 60.40625 
L 10.984375 69.390625 
L 28.421875 72.90625 
L 38.28125 72.90625 
L 38.28125 8.296875 
L 54.390625 8.296875 
L 54.390625 0 
L 12.40625 0 
z
" id="DejaVuSans-49"/>
      </defs>
      <g transform="translate(185.880184 254.356562)scale(0.1 -0.1)">
       <use xlink:href="#DejaVuSans-49"/>
       <use x="63.623047" xlink:href="#DejaVuSans-48"/>
       <use x="127.246094" xlink:href="#DejaVuSans-48"/>
      </g>
     </g>
    </g>
    <g id="xtick_6">
     <g id="line2d_6">
      <g>
       <use style="stroke:#000000;stroke-width:0.8;" x="234.129137" xlink:href="#m96e86d379e" y="239.758125"/>
      </g>
     </g>
     <g id="text_6">
      <!-- 120 -->
      <g transform="translate(224.585387 254.356562)scale(0.1 -0.1)">
       <use xlink:href="#DejaVuSans-49"/>
       <use x="63.623047" xlink:href="#DejaVuSans-50"/>
       <use x="127.246094" xlink:href="#DejaVuSans-48"/>
      </g>
     </g>
    </g>
    <g id="xtick_7">
     <g id="line2d_7">
      <g>
       <use style="stroke:#000000;stroke-width:0.8;" x="272.834339" xlink:href="#m96e86d379e" y="239.758125"/>
      </g>
     </g>
     <g id="text_7">
      <!-- 140 -->
      <g transform="translate(263.290589 254.356562)scale(0.1 -0.1)">
       <use xlink:href="#DejaVuSans-49"/>
       <use x="63.623047" xlink:href="#DejaVuSans-52"/>
       <use x="127.246094" xlink:href="#DejaVuSans-48"/>
      </g>
     </g>
    </g>
    <g id="xtick_8">
     <g id="line2d_8">
      <g>
       <use style="stroke:#000000;stroke-width:0.8;" x="311.539541" xlink:href="#m96e86d379e" y="239.758125"/>
      </g>
     </g>
     <g id="text_8">
      <!-- 160 -->
      <g transform="translate(301.995791 254.356562)scale(0.1 -0.1)">
       <use xlink:href="#DejaVuSans-49"/>
       <use x="63.623047" xlink:href="#DejaVuSans-54"/>
       <use x="127.246094" xlink:href="#DejaVuSans-48"/>
      </g>
     </g>
    </g>
    <g id="xtick_9">
     <g id="line2d_9">
      <g>
       <use style="stroke:#000000;stroke-width:0.8;" x="350.244743" xlink:href="#m96e86d379e" y="239.758125"/>
      </g>
     </g>
     <g id="text_9">
      <!-- 180 -->
      <g transform="translate(340.700993 254.356562)scale(0.1 -0.1)">
       <use xlink:href="#DejaVuSans-49"/>
       <use x="63.623047" xlink:href="#DejaVuSans-56"/>
       <use x="127.246094" xlink:href="#DejaVuSans-48"/>
      </g>
     </g>
    </g>
    <g id="text_10">
     <!-- RushingYardsAllowed -->
     <defs>
      <path d="M 44.390625 34.1875 
Q 47.5625 33.109375 50.5625 29.59375 
Q 53.5625 26.078125 56.59375 19.921875 
L 66.609375 0 
L 56 0 
L 46.6875 18.703125 
Q 43.0625 26.03125 39.671875 28.421875 
Q 36.28125 30.8125 30.421875 30.8125 
L 19.671875 30.8125 
L 19.671875 0 
L 9.8125 0 
L 9.8125 72.90625 
L 32.078125 72.90625 
Q 44.578125 72.90625 50.734375 67.671875 
Q 56.890625 62.453125 56.890625 51.90625 
Q 56.890625 45.015625 53.6875 40.46875 
Q 50.484375 35.9375 44.390625 34.1875 
z
M 19.671875 64.796875 
L 19.671875 38.921875 
L 32.078125 38.921875 
Q 39.203125 38.921875 42.84375 42.21875 
Q 46.484375 45.515625 46.484375 51.90625 
Q 46.484375 58.296875 42.84375 61.546875 
Q 39.203125 64.796875 32.078125 64.796875 
z
" id="DejaVuSans-82"/>
      <path d="M 8.5 21.578125 
L 8.5 54.6875 
L 17.484375 54.6875 
L 17.484375 21.921875 
Q 17.484375 14.15625 20.5 10.265625 
Q 23.53125 6.390625 29.59375 6.390625 
Q 36.859375 6.390625 41.078125 11.03125 
Q 45.3125 15.671875 45.3125 23.6875 
L 45.3125 54.6875 
L 54.296875 54.6875 
L 54.296875 0 
L 45.3125 0 
L 45.3125 8.40625 
Q 42.046875 3.421875 37.71875 1 
Q 33.40625 -1.421875 27.6875 -1.421875 
Q 18.265625 -1.421875 13.375 4.4375 
Q 8.5 10.296875 8.5 21.578125 
z
M 31.109375 56 
z
" id="DejaVuSans-117"/>
      <path d="M 44.28125 53.078125 
L 44.28125 44.578125 
Q 40.484375 46.53125 36.375 47.5 
Q 32.28125 48.484375 27.875 48.484375 
Q 21.1875 48.484375 17.84375 46.4375 
Q 14.5 44.390625 14.5 40.28125 
Q 14.5 37.15625 16.890625 35.375 
Q 19.28125 33.59375 26.515625 31.984375 
L 29.59375 31.296875 
Q 39.15625 29.25 43.1875 25.515625 
Q 47.21875 21.78125 47.21875 15.09375 
Q 47.21875 7.46875 41.1875 3.015625 
Q 35.15625 -1.421875 24.609375 -1.421875 
Q 20.21875 -1.421875 15.453125 -0.5625 
Q 10.6875 0.296875 5.421875 2 
L 5.421875 11.28125 
Q 10.40625 8.6875 15.234375 7.390625 
Q 20.0625 6.109375 24.8125 6.109375 
Q 31.15625 6.109375 34.5625 8.28125 
Q 37.984375 10.453125 37.984375 14.40625 
Q 37.984375 18.0625 35.515625 20.015625 
Q 33.0625 21.96875 24.703125 23.78125 
L 21.578125 24.515625 
Q 13.234375 26.265625 9.515625 29.90625 
Q 5.8125 33.546875 5.8125 39.890625 
Q 5.8125 47.609375 11.28125 51.796875 
Q 16.75 56 26.8125 56 
Q 31.78125 56 36.171875 55.265625 
Q 40.578125 54.546875 44.28125 53.078125 
z
" id="DejaVuSans-115"/>
      <path d="M 54.890625 33.015625 
L 54.890625 0 
L 45.90625 0 
L 45.90625 32.71875 
Q 45.90625 40.484375 42.875 44.328125 
Q 39.84375 48.1875 33.796875 48.1875 
Q 26.515625 48.1875 22.3125 43.546875 
Q 18.109375 38.921875 18.109375 30.90625 
L 18.109375 0 
L 9.078125 0 
L 9.078125 75.984375 
L 18.109375 75.984375 
L 18.109375 46.1875 
Q 21.34375 51.125 25.703125 53.5625 
Q 30.078125 56 35.796875 56 
Q 45.21875 56 50.046875 50.171875 
Q 54.890625 44.34375 54.890625 33.015625 
z
" id="DejaVuSans-104"/>
      <path d="M 9.421875 54.6875 
L 18.40625 54.6875 
L 18.40625 0 
L 9.421875 0 
z
M 9.421875 75.984375 
L 18.40625 75.984375 
L 18.40625 64.59375 
L 9.421875 64.59375 
z
" id="DejaVuSans-105"/>
      <path d="M 54.890625 33.015625 
L 54.890625 0 
L 45.90625 0 
L 45.90625 32.71875 
Q 45.90625 40.484375 42.875 44.328125 
Q 39.84375 48.1875 33.796875 48.1875 
Q 26.515625 48.1875 22.3125 43.546875 
Q 18.109375 38.921875 18.109375 30.90625 
L 18.109375 0 
L 9.078125 0 
L 9.078125 54.6875 
L 18.109375 54.6875 
L 18.109375 46.1875 
Q 21.34375 51.125 25.703125 53.5625 
Q 30.078125 56 35.796875 56 
Q 45.21875 56 50.046875 50.171875 
Q 54.890625 44.34375 54.890625 33.015625 
z
" id="DejaVuSans-110"/>
      <path d="M 45.40625 27.984375 
Q 45.40625 37.75 41.375 43.109375 
Q 37.359375 48.484375 30.078125 48.484375 
Q 22.859375 48.484375 18.828125 43.109375 
Q 14.796875 37.75 14.796875 27.984375 
Q 14.796875 18.265625 18.828125 12.890625 
Q 22.859375 7.515625 30.078125 7.515625 
Q 37.359375 7.515625 41.375 12.890625 
Q 45.40625 18.265625 45.40625 27.984375 
z
M 54.390625 6.78125 
Q 54.390625 -7.171875 48.1875 -13.984375 
Q 42 -20.796875 29.203125 -20.796875 
Q 24.46875 -20.796875 20.265625 -20.09375 
Q 16.0625 -19.390625 12.109375 -17.921875 
L 12.109375 -9.1875 
Q 16.0625 -11.328125 19.921875 -12.34375 
Q 23.78125 -13.375 27.78125 -13.375 
Q 36.625 -13.375 41.015625 -8.765625 
Q 45.40625 -4.15625 45.40625 5.171875 
L 45.40625 9.625 
Q 42.625 4.78125 38.28125 2.390625 
Q 33.9375 0 27.875 0 
Q 17.828125 0 11.671875 7.65625 
Q 5.515625 15.328125 5.515625 27.984375 
Q 5.515625 40.671875 11.671875 48.328125 
Q 17.828125 56 27.875 56 
Q 33.9375 56 38.28125 53.609375 
Q 42.625 51.21875 45.40625 46.390625 
L 45.40625 54.6875 
L 54.390625 54.6875 
z
" id="DejaVuSans-103"/>
      <path d="M -0.203125 72.90625 
L 10.40625 72.90625 
L 30.609375 42.921875 
L 50.6875 72.90625 
L 61.28125 72.90625 
L 35.5 34.71875 
L 35.5 0 
L 25.59375 0 
L 25.59375 34.71875 
z
" id="DejaVuSans-89"/>
      <path d="M 34.28125 27.484375 
Q 23.390625 27.484375 19.1875 25 
Q 14.984375 22.515625 14.984375 16.5 
Q 14.984375 11.71875 18.140625 8.90625 
Q 21.296875 6.109375 26.703125 6.109375 
Q 34.1875 6.109375 38.703125 11.40625 
Q 43.21875 16.703125 43.21875 25.484375 
L 43.21875 27.484375 
z
M 52.203125 31.203125 
L 52.203125 0 
L 43.21875 0 
L 43.21875 8.296875 
Q 40.140625 3.328125 35.546875 0.953125 
Q 30.953125 -1.421875 24.3125 -1.421875 
Q 15.921875 -1.421875 10.953125 3.296875 
Q 6 8.015625 6 15.921875 
Q 6 25.140625 12.171875 29.828125 
Q 18.359375 34.515625 30.609375 34.515625 
L 43.21875 34.515625 
L 43.21875 35.40625 
Q 43.21875 41.609375 39.140625 45 
Q 35.0625 48.390625 27.6875 48.390625 
Q 23 48.390625 18.546875 47.265625 
Q 14.109375 46.140625 10.015625 43.890625 
L 10.015625 52.203125 
Q 14.9375 54.109375 19.578125 55.046875 
Q 24.21875 56 28.609375 56 
Q 40.484375 56 46.34375 49.84375 
Q 52.203125 43.703125 52.203125 31.203125 
z
" id="DejaVuSans-97"/>
      <path d="M 41.109375 46.296875 
Q 39.59375 47.171875 37.8125 47.578125 
Q 36.03125 48 33.890625 48 
Q 26.265625 48 22.1875 43.046875 
Q 18.109375 38.09375 18.109375 28.8125 
L 18.109375 0 
L 9.078125 0 
L 9.078125 54.6875 
L 18.109375 54.6875 
L 18.109375 46.1875 
Q 20.953125 51.171875 25.484375 53.578125 
Q 30.03125 56 36.53125 56 
Q 37.453125 56 38.578125 55.875 
Q 39.703125 55.765625 41.0625 55.515625 
z
" id="DejaVuSans-114"/>
      <path d="M 45.40625 46.390625 
L 45.40625 75.984375 
L 54.390625 75.984375 
L 54.390625 0 
L 45.40625 0 
L 45.40625 8.203125 
Q 42.578125 3.328125 38.25 0.953125 
Q 33.9375 -1.421875 27.875 -1.421875 
Q 17.96875 -1.421875 11.734375 6.484375 
Q 5.515625 14.40625 5.515625 27.296875 
Q 5.515625 40.1875 11.734375 48.09375 
Q 17.96875 56 27.875 56 
Q 33.9375 56 38.25 53.625 
Q 42.578125 51.265625 45.40625 46.390625 
z
M 14.796875 27.296875 
Q 14.796875 17.390625 18.875 11.75 
Q 22.953125 6.109375 30.078125 6.109375 
Q 37.203125 6.109375 41.296875 11.75 
Q 45.40625 17.390625 45.40625 27.296875 
Q 45.40625 37.203125 41.296875 42.84375 
Q 37.203125 48.484375 30.078125 48.484375 
Q 22.953125 48.484375 18.875 42.84375 
Q 14.796875 37.203125 14.796875 27.296875 
z
" id="DejaVuSans-100"/>
      <path d="M 34.1875 63.1875 
L 20.796875 26.90625 
L 47.609375 26.90625 
z
M 28.609375 72.90625 
L 39.796875 72.90625 
L 67.578125 0 
L 57.328125 0 
L 50.6875 18.703125 
L 17.828125 18.703125 
L 11.1875 0 
L 0.78125 0 
z
" id="DejaVuSans-65"/>
      <path d="M 9.421875 75.984375 
L 18.40625 75.984375 
L 18.40625 0 
L 9.421875 0 
z
" id="DejaVuSans-108"/>
      <path d="M 30.609375 48.390625 
Q 23.390625 48.390625 19.1875 42.75 
Q 14.984375 37.109375 14.984375 27.296875 
Q 14.984375 17.484375 19.15625 11.84375 
Q 23.34375 6.203125 30.609375 6.203125 
Q 37.796875 6.203125 41.984375 11.859375 
Q 46.1875 17.53125 46.1875 27.296875 
Q 46.1875 37.015625 41.984375 42.703125 
Q 37.796875 48.390625 30.609375 48.390625 
z
M 30.609375 56 
Q 42.328125 56 49.015625 48.375 
Q 55.71875 40.765625 55.71875 27.296875 
Q 55.71875 13.875 49.015625 6.21875 
Q 42.328125 -1.421875 30.609375 -1.421875 
Q 18.84375 -1.421875 12.171875 6.21875 
Q 5.515625 13.875 5.515625 27.296875 
Q 5.515625 40.765625 12.171875 48.375 
Q 18.84375 56 30.609375 56 
z
" id="DejaVuSans-111"/>
      <path d="M 4.203125 54.6875 
L 13.1875 54.6875 
L 24.421875 12.015625 
L 35.59375 54.6875 
L 46.1875 54.6875 
L 57.421875 12.015625 
L 68.609375 54.6875 
L 77.59375 54.6875 
L 63.28125 0 
L 52.6875 0 
L 40.921875 44.828125 
L 29.109375 0 
L 18.5 0 
z
" id="DejaVuSans-119"/>
      <path d="M 56.203125 29.59375 
L 56.203125 25.203125 
L 14.890625 25.203125 
Q 15.484375 15.921875 20.484375 11.0625 
Q 25.484375 6.203125 34.421875 6.203125 
Q 39.59375 6.203125 44.453125 7.46875 
Q 49.3125 8.734375 54.109375 11.28125 
L 54.109375 2.78125 
Q 49.265625 0.734375 44.1875 -0.34375 
Q 39.109375 -1.421875 33.890625 -1.421875 
Q 20.796875 -1.421875 13.15625 6.1875 
Q 5.515625 13.8125 5.515625 26.8125 
Q 5.515625 40.234375 12.765625 48.109375 
Q 20.015625 56 32.328125 56 
Q 43.359375 56 49.78125 48.890625 
Q 56.203125 41.796875 56.203125 29.59375 
z
M 47.21875 32.234375 
Q 47.125 39.59375 43.09375 43.984375 
Q 39.0625 48.390625 32.421875 48.390625 
Q 24.90625 48.390625 20.390625 44.140625 
Q 15.875 39.890625 15.1875 32.171875 
z
" id="DejaVuSans-101"/>
     </defs>
     <g transform="translate(155.304687 268.034687)scale(0.1 -0.1)">
      <use xlink:href="#DejaVuSans-82"/>
      <use x="64.982422" xlink:href="#DejaVuSans-117"/>
      <use x="128.361328" xlink:href="#DejaVuSans-115"/>
      <use x="180.460938" xlink:href="#DejaVuSans-104"/>
      <use x="243.839844" xlink:href="#DejaVuSans-105"/>
      <use x="271.623047" xlink:href="#DejaVuSans-110"/>
      <use x="335.001953" xlink:href="#DejaVuSans-103"/>
      <use x="398.478516" xlink:href="#DejaVuSans-89"/>
      <use x="445.8125" xlink:href="#DejaVuSans-97"/>
      <use x="507.091797" xlink:href="#DejaVuSans-114"/>
      <use x="546.455078" xlink:href="#DejaVuSans-100"/>
      <use x="609.931641" xlink:href="#DejaVuSans-115"/>
      <use x="662.03125" xlink:href="#DejaVuSans-65"/>
      <use x="730.439453" xlink:href="#DejaVuSans-108"/>
      <use x="758.222656" xlink:href="#DejaVuSans-108"/>
      <use x="786.005859" xlink:href="#DejaVuSans-111"/>
      <use x="847.1875" xlink:href="#DejaVuSans-119"/>
      <use x="928.974609" xlink:href="#DejaVuSans-101"/>
      <use x="990.498047" xlink:href="#DejaVuSans-100"/>
     </g>
    </g>
   </g>
   <g id="matplotlib.axis_2">
    <g id="ytick_1">
     <g id="line2d_10">
      <defs>
       <path d="M 0 0 
L -3.5 0 
" id="mdc1efd1727" style="stroke:#000000;stroke-width:0.8;"/>
      </defs>
      <g>
       <use style="stroke:#000000;stroke-width:0.8;" x="40.603125" xlink:href="#mdc1efd1727" y="219.57575"/>
      </g>
     </g>
     <g id="text_11">
      <!-- 20 -->
      <g transform="translate(20.878125 223.374969)scale(0.1 -0.1)">
       <use xlink:href="#DejaVuSans-50"/>
       <use x="63.623047" xlink:href="#DejaVuSans-48"/>
      </g>
     </g>
    </g>
    <g id="ytick_2">
     <g id="line2d_11">
      <g>
       <use style="stroke:#000000;stroke-width:0.8;" x="40.603125" xlink:href="#mdc1efd1727" y="171.531137"/>
      </g>
     </g>
     <g id="text_12">
      <!-- 30 -->
      <defs>
       <path d="M 40.578125 39.3125 
Q 47.65625 37.796875 51.625 33 
Q 55.609375 28.21875 55.609375 21.1875 
Q 55.609375 10.40625 48.1875 4.484375 
Q 40.765625 -1.421875 27.09375 -1.421875 
Q 22.515625 -1.421875 17.65625 -0.515625 
Q 12.796875 0.390625 7.625 2.203125 
L 7.625 11.71875 
Q 11.71875 9.328125 16.59375 8.109375 
Q 21.484375 6.890625 26.8125 6.890625 
Q 36.078125 6.890625 40.9375 10.546875 
Q 45.796875 14.203125 45.796875 21.1875 
Q 45.796875 27.640625 41.28125 31.265625 
Q 36.765625 34.90625 28.71875 34.90625 
L 20.21875 34.90625 
L 20.21875 43.015625 
L 29.109375 43.015625 
Q 36.375 43.015625 40.234375 45.921875 
Q 44.09375 48.828125 44.09375 54.296875 
Q 44.09375 59.90625 40.109375 62.90625 
Q 36.140625 65.921875 28.71875 65.921875 
Q 24.65625 65.921875 20.015625 65.03125 
Q 15.375 64.15625 9.8125 62.3125 
L 9.8125 71.09375 
Q 15.4375 72.65625 20.34375 73.4375 
Q 25.25 74.21875 29.59375 74.21875 
Q 40.828125 74.21875 47.359375 69.109375 
Q 53.90625 64.015625 53.90625 55.328125 
Q 53.90625 49.265625 50.4375 45.09375 
Q 46.96875 40.921875 40.578125 39.3125 
z
" id="DejaVuSans-51"/>
      </defs>
      <g transform="translate(20.878125 175.330356)scale(0.1 -0.1)">
       <use xlink:href="#DejaVuSans-51"/>
       <use x="63.623047" xlink:href="#DejaVuSans-48"/>
      </g>
     </g>
    </g>
    <g id="ytick_3">
     <g id="line2d_12">
      <g>
       <use style="stroke:#000000;stroke-width:0.8;" x="40.603125" xlink:href="#mdc1efd1727" y="123.486525"/>
      </g>
     </g>
     <g id="text_13">
      <!-- 40 -->
      <g transform="translate(20.878125 127.285744)scale(0.1 -0.1)">
       <use xlink:href="#DejaVuSans-52"/>
       <use x="63.623047" xlink:href="#DejaVuSans-48"/>
      </g>
     </g>
    </g>
    <g id="ytick_4">
     <g id="line2d_13">
      <g>
       <use style="stroke:#000000;stroke-width:0.8;" x="40.603125" xlink:href="#mdc1efd1727" y="75.441913"/>
      </g>
     </g>
     <g id="text_14">
      <!-- 50 -->
      <defs>
       <path d="M 10.796875 72.90625 
L 49.515625 72.90625 
L 49.515625 64.59375 
L 19.828125 64.59375 
L 19.828125 46.734375 
Q 21.96875 47.46875 24.109375 47.828125 
Q 26.265625 48.1875 28.421875 48.1875 
Q 40.625 48.1875 47.75 41.5 
Q 54.890625 34.8125 54.890625 23.390625 
Q 54.890625 11.625 47.5625 5.09375 
Q 40.234375 -1.421875 26.90625 -1.421875 
Q 22.3125 -1.421875 17.546875 -0.640625 
Q 12.796875 0.140625 7.71875 1.703125 
L 7.71875 11.625 
Q 12.109375 9.234375 16.796875 8.0625 
Q 21.484375 6.890625 26.703125 6.890625 
Q 35.15625 6.890625 40.078125 11.328125 
Q 45.015625 15.765625 45.015625 23.390625 
Q 45.015625 31 40.078125 35.4375 
Q 35.15625 39.890625 26.703125 39.890625 
Q 22.75 39.890625 18.8125 39.015625 
Q 14.890625 38.140625 10.796875 36.28125 
z
" id="DejaVuSans-53"/>
      </defs>
      <g transform="translate(20.878125 79.241131)scale(0.1 -0.1)">
       <use xlink:href="#DejaVuSans-53"/>
       <use x="63.623047" xlink:href="#DejaVuSans-48"/>
      </g>
     </g>
    </g>
    <g id="ytick_5">
     <g id="line2d_14">
      <g>
       <use style="stroke:#000000;stroke-width:0.8;" x="40.603125" xlink:href="#mdc1efd1727" y="27.3973"/>
      </g>
     </g>
     <g id="text_15">
      <!-- 60 -->
      <g transform="translate(20.878125 31.196519)scale(0.1 -0.1)">
       <use xlink:href="#DejaVuSans-54"/>
       <use x="63.623047" xlink:href="#DejaVuSans-48"/>
      </g>
     </g>
    </g>
    <g id="text_16">
     <!-- ScoredPoints -->
     <defs>
      <path d="M 53.515625 70.515625 
L 53.515625 60.890625 
Q 47.90625 63.578125 42.921875 64.890625 
Q 37.9375 66.21875 33.296875 66.21875 
Q 25.25 66.21875 20.875 63.09375 
Q 16.5 59.96875 16.5 54.203125 
Q 16.5 49.359375 19.40625 46.890625 
Q 22.3125 44.4375 30.421875 42.921875 
L 36.375 41.703125 
Q 47.40625 39.59375 52.65625 34.296875 
Q 57.90625 29 57.90625 20.125 
Q 57.90625 9.515625 50.796875 4.046875 
Q 43.703125 -1.421875 29.984375 -1.421875 
Q 24.8125 -1.421875 18.96875 -0.25 
Q 13.140625 0.921875 6.890625 3.21875 
L 6.890625 13.375 
Q 12.890625 10.015625 18.65625 8.296875 
Q 24.421875 6.59375 29.984375 6.59375 
Q 38.421875 6.59375 43.015625 9.90625 
Q 47.609375 13.234375 47.609375 19.390625 
Q 47.609375 24.75 44.3125 27.78125 
Q 41.015625 30.8125 33.5 32.328125 
L 27.484375 33.5 
Q 16.453125 35.6875 11.515625 40.375 
Q 6.59375 45.0625 6.59375 53.421875 
Q 6.59375 63.09375 13.40625 68.65625 
Q 20.21875 74.21875 32.171875 74.21875 
Q 37.3125 74.21875 42.625 73.28125 
Q 47.953125 72.359375 53.515625 70.515625 
z
" id="DejaVuSans-83"/>
      <path d="M 48.78125 52.59375 
L 48.78125 44.1875 
Q 44.96875 46.296875 41.140625 47.34375 
Q 37.3125 48.390625 33.40625 48.390625 
Q 24.65625 48.390625 19.8125 42.84375 
Q 14.984375 37.3125 14.984375 27.296875 
Q 14.984375 17.28125 19.8125 11.734375 
Q 24.65625 6.203125 33.40625 6.203125 
Q 37.3125 6.203125 41.140625 7.25 
Q 44.96875 8.296875 48.78125 10.40625 
L 48.78125 2.09375 
Q 45.015625 0.34375 40.984375 -0.53125 
Q 36.96875 -1.421875 32.421875 -1.421875 
Q 20.0625 -1.421875 12.78125 6.34375 
Q 5.515625 14.109375 5.515625 27.296875 
Q 5.515625 40.671875 12.859375 48.328125 
Q 20.21875 56 33.015625 56 
Q 37.15625 56 41.109375 55.140625 
Q 45.0625 54.296875 48.78125 52.59375 
z
" id="DejaVuSans-99"/>
      <path d="M 19.671875 64.796875 
L 19.671875 37.40625 
L 32.078125 37.40625 
Q 38.96875 37.40625 42.71875 40.96875 
Q 46.484375 44.53125 46.484375 51.125 
Q 46.484375 57.671875 42.71875 61.234375 
Q 38.96875 64.796875 32.078125 64.796875 
z
M 9.8125 72.90625 
L 32.078125 72.90625 
Q 44.34375 72.90625 50.609375 67.359375 
Q 56.890625 61.8125 56.890625 51.125 
Q 56.890625 40.328125 50.609375 34.8125 
Q 44.34375 29.296875 32.078125 29.296875 
L 19.671875 29.296875 
L 19.671875 0 
L 9.8125 0 
z
" id="DejaVuSans-80"/>
      <path d="M 18.3125 70.21875 
L 18.3125 54.6875 
L 36.8125 54.6875 
L 36.8125 47.703125 
L 18.3125 47.703125 
L 18.3125 18.015625 
Q 18.3125 11.328125 20.140625 9.421875 
Q 21.96875 7.515625 27.59375 7.515625 
L 36.8125 7.515625 
L 36.8125 0 
L 27.59375 0 
Q 17.1875 0 13.234375 3.875 
Q 9.28125 7.765625 9.28125 18.015625 
L 9.28125 47.703125 
L 2.6875 47.703125 
L 2.6875 54.6875 
L 9.28125 54.6875 
L 9.28125 70.21875 
z
" id="DejaVuSans-116"/>
     </defs>
     <g transform="translate(14.798438 163.230312)rotate(-90)scale(0.1 -0.1)">
      <use xlink:href="#DejaVuSans-83"/>
      <use x="63.476562" xlink:href="#DejaVuSans-99"/>
      <use x="118.457031" xlink:href="#DejaVuSans-111"/>
      <use x="179.638672" xlink:href="#DejaVuSans-114"/>
      <use x="218.501953" xlink:href="#DejaVuSans-101"/>
      <use x="280.025391" xlink:href="#DejaVuSans-100"/>
      <use x="343.501953" xlink:href="#DejaVuSans-80"/>
      <use x="400.179688" xlink:href="#DejaVuSans-111"/>
      <use x="461.361328" xlink:href="#DejaVuSans-105"/>
      <use x="489.144531" xlink:href="#DejaVuSans-110"/>
      <use x="552.523438" xlink:href="#DejaVuSans-116"/>
      <use x="591.732422" xlink:href="#DejaVuSans-115"/>
     </g>
    </g>
   </g>
   <g id="line2d_15">
    <path clip-path="url(#p37d98de0bc)" d="M 40.603125 139.380143 
L 43.984943 139.781122 
L 47.366761 140.182101 
L 50.74858 140.58308 
L 54.130398 140.984059 
L 57.512216 141.385038 
L 60.894034 141.786017 
L 64.275852 142.186996 
L 67.65767 142.587975 
L 71.039489 142.988954 
L 74.421307 143.389933 
L 77.803125 143.790912 
L 81.184943 144.191891 
L 84.566761 144.59287 
L 87.94858 144.993849 
L 91.330398 145.394829 
L 94.712216 145.795808 
L 98.094034 146.196787 
L 101.475852 146.597766 
L 104.85767 146.998745 
L 108.239489 147.399724 
L 111.621307 147.800703 
L 115.003125 148.201682 
L 118.384943 148.602661 
L 121.766761 149.00364 
L 125.14858 149.404619 
L 128.530398 149.805598 
L 131.912216 150.206577 
L 135.294034 150.607556 
L 138.675852 151.008535 
L 142.05767 151.409514 
L 145.439489 151.810493 
L 148.821307 152.211472 
L 152.203125 152.612452 
L 155.584943 153.013431 
L 158.966761 153.41441 
L 162.34858 153.815389 
L 165.730398 154.216368 
L 169.112216 154.617347 
L 172.494034 155.018326 
L 175.875852 155.419305 
L 179.25767 155.820284 
L 182.639489 156.221263 
L 186.021307 156.622242 
L 189.403125 157.023221 
L 192.784943 157.4242 
L 196.166761 157.825179 
L 199.54858 158.226158 
L 202.930398 158.627137 
L 206.312216 159.028116 
L 209.694034 159.429095 
L 213.075852 159.830075 
L 216.45767 160.231054 
L 219.839489 160.632033 
L 223.221307 161.033012 
L 226.603125 161.433991 
L 229.984943 161.83497 
L 233.366761 162.235949 
L 236.74858 162.636928 
L 240.130398 163.037907 
L 243.512216 163.438886 
L 246.894034 163.839865 
L 250.275852 164.240844 
L 253.65767 164.641823 
L 257.039489 165.042802 
L 260.421307 165.443781 
L 263.803125 165.84476 
L 267.184943 166.245739 
L 270.566761 166.646718 
L 273.94858 167.047698 
L 277.330398 167.448677 
L 280.712216 167.849656 
L 284.094034 168.250635 
L 287.475852 168.651614 
L 290.85767 169.052593 
L 294.239489 169.453572 
L 297.621307 169.854551 
L 301.003125 170.25553 
L 304.384943 170.656509 
L 307.766761 171.057488 
L 311.14858 171.458467 
L 314.530398 171.859446 
L 317.912216 172.260425 
L 321.294034 172.661404 
L 324.675852 173.062383 
L 328.05767 173.463362 
L 331.439489 173.864341 
L 334.821307 174.265321 
L 338.203125 174.6663 
L 341.584943 175.067279 
L 344.966761 175.468258 
L 348.34858 175.869237 
L 351.730398 176.270216 
L 355.112216 176.671195 
L 358.494034 177.072174 
L 361.875852 177.473153 
L 365.25767 177.874132 
L 368.639489 178.275111 
L 372.021307 178.67609 
L 375.403125 179.077069 
" style="fill:none;stroke:#1f77b4;stroke-linecap:square;stroke-width:2.25;"/>
   </g>
   <g id="patch_3">
    <path d="M 40.603125 239.758125 
L 40.603125 22.318125 
" style="fill:none;stroke:#000000;stroke-linecap:square;stroke-linejoin:miter;stroke-width:0.8;"/>
   </g>
   <g id="patch_4">
    <path d="M 375.403125 239.758125 
L 375.403125 22.318125 
" style="fill:none;stroke:#000000;stroke-linecap:square;stroke-linejoin:miter;stroke-width:0.8;"/>
   </g>
   <g id="patch_5">
    <path d="M 40.603125 239.758125 
L 375.403125 239.758125 
" style="fill:none;stroke:#000000;stroke-linecap:square;stroke-linejoin:miter;stroke-width:0.8;"/>
   </g>
   <g id="patch_6">
    <path d="M 40.603125 22.318125 
L 375.403125 22.318125 
" style="fill:none;stroke:#000000;stroke-linecap:square;stroke-linejoin:miter;stroke-width:0.8;"/>
   </g>
   <g id="text_17">
    <!-- Ravens -->
    <defs>
     <path d="M 2.984375 54.6875 
L 12.5 54.6875 
L 29.59375 8.796875 
L 46.6875 54.6875 
L 56.203125 54.6875 
L 35.6875 0 
L 23.484375 0 
z
" id="DejaVuSans-118"/>
    </defs>
    <g transform="translate(186.120937 16.318125)scale(0.12 -0.12)">
     <use xlink:href="#DejaVuSans-82"/>
     <use x="67.232422" xlink:href="#DejaVuSans-97"/>
     <use x="128.511719" xlink:href="#DejaVuSans-118"/>
     <use x="187.691406" xlink:href="#DejaVuSans-101"/>
     <use x="249.214844" xlink:href="#DejaVuSans-110"/>
     <use x="312.59375" xlink:href="#DejaVuSans-115"/>
    </g>
   </g>
  </g>
 </g>
 <defs>
  <clipPath id="p37d98de0bc">
   <rect height="217.44" width="334.8" x="40.603125" y="22.318125"/>
  </clipPath>
 </defs>
</svg>
